{
copyright = "Copyright (c) 2015, Cadson Demak (info@cadsondemak.com)";
customParameters = (
{
name = vendorID;
value = CDK;
},
{
name = description;
value = "Copyright (c) 2015, Cadson Demak (info@cadsondemak.com)";
},
{
name = license;

glyphs = (
{
glyphname = A;
lastChange = "2015-11-25 10:44:32 +0000";
layers = (
{
layerId = "CD587521-C2B1-4DF5-9394-E26F9987D7DC";
name = "SemiBold Italic";
paths = (
{
closed = 1;
nodes = (
"149 0 LINE",
"237 146 LINE",
"458 146 LINE",
"485 0 LINE",
"641 0 LINE",
"531 644 LINE",
"357 644 LINE",
"-25 0 LINE"
);
},
{
closed = 1;
nodes = (
"416 489 LINE",
"453 265 LINE",
"284 265 LINE"
);
}
);
width = 728;
}
);
leftKerningGroup = A;
note = A;
rightKerningGroup = A;
unicode = 0041;
},
{
glyphname = Aacute;
lastChange = "2015-11-25 10:44:32 +0000";
layers = (
{
layerId = "CD587521-C2B1-4DF5-9394-E26F9987D7DC";
name = "SemiBold Italic";
paths = (
{
closed = 1;
nodes = (
"149 0 LINE",
"237 146 LINE",
"458 146 LINE",
"485 0 LINE",
"641 0 LINE",
"531 644 LINE",
"357 644 LINE",
"-25 0 LINE"
);
},
{
closed = 1;
nodes = (
"416 489 LINE",
"453 265 LINE",
"284 265 LINE"
);
},
{
closed = 1;
nodes = (
"511 688 LINE",
"645 884 LINE",
"513 884 LINE",
"387 688 LINE"
);
}
);
width = 728;
}
);
leftKerningGroup = A;
note = Aacute;
rightKerningGroup = A;
unicode = 00C1;
},
{
glyphname = Abreve;
lastChange = "2015-11-25 10:44:32 +0000";
layers = (
{
layerId = "CD587521-C2B1-4DF5-9394-E26F9987D7DC";
name = "SemiBold Italic";
paths = (
{
closed = 1;
nodes = (
"149 0 LINE",
"237 146 LINE",
"458 146 LINE",
"485 0 LINE",
"641 0 LINE",
"531 644 LINE",
"357 644 LINE",
"-25 0 LINE"
);
},
{
closed = 1;
nodes = (
"416 489 LINE",
"453 265 LINE",
"284 265 LINE"
);
},
{
closed = 1;
nodes = (
"565 688 OFFCURVE",
"640 750 OFFCURVE",
"663 860 CURVE",
"551 860 LINE",
"542 814 OFFCURVE",
"514 778 OFFCURVE",
"465 778 CURVE SMOOTH",
"413 778 OFFCURVE",
"404 809 OFFCURVE",
"415 860 CURVE",
"316 860 LINE",
"293 750 OFFCURVE",
"350 688 OFFCURVE",
"452 688 CURVE SMOOTH"
);
}
);
width = 728;
}
);
leftKerningGroup = A;
note = Abreve;
rightKerningGroup = A;
unicode = 0102;
},
{
glyphname = Abreveacute;
lastChange = "2015-11-25 10:44:32 +0000";
layers = (
{
layerId = "CD587521-C2B1-4DF5-9394-E26F9987D7DC";
name = "SemiBold Italic";
paths = (
{
closed = 1;
nodes = (
"149 0 LINE",
"237 146 LINE",
"458 146 LINE",
"485 0 LINE",
"641 0 LINE",
"531 644 LINE",
"357 644 LINE",
"-25 0 LINE"
);
},
{
closed = 1;
nodes = (
"416 489 LINE",
"453 265 LINE",
"284 265 LINE"
);
},
{
closed = 1;
nodes = (
"564 688 OFFCURVE",
"637 736 OFFCURVE",
"661 852 CURVE",
"565 852 LINE",
"554 800 OFFCURVE",
"519 769 OFFCURVE",
"468 769 CURVE SMOOTH",
"405 769 OFFCURVE",
"393 795 OFFCURVE",
"404 852 CURVE",
"315 852 LINE",
"291 736 OFFCURVE",
"353 688 OFFCURVE",
"454 688 CURVE SMOOTH"
);
},
{
closed = 1;
nodes = (
"532 837 LINE",
"642 986 LINE",
"529 986 LINE",
"431 837 LINE"
);
}
);
width = 728;
}
);
leftKerningGroup = A;
note = Abreveacute;
rightKerningGroup = A;
unicode = 1EAE;
},
{
glyphname = Abrevedotbelow;
lastChange = "2015-11-25 10:44:30 +0000";
layers = (
{
layerId = "CD587521-C2B1-4DF5-9394-E26F9987D7DC";
name = "SemiBold Italic";
paths = (
{
closed = 1;
nodes = (
"149 0 LINE",
"237 146 LINE",
"458 146 LINE",
"485 0 LINE",
"641 0 LINE",
"531 644 LINE",
"357 644 LINE",
"-25 0 LINE"
);
},
{
closed = 1;
nodes = (
"328 -179 LINE",
"351 -70 LINE",
"233 -70 LINE",
"210 -179 LINE"
);
},
{
closed = 1;
nodes = (
"416 489 LINE",
"453 265 LINE",
"284 265 LINE"
);
},
{
closed = 1;
nodes = (
"564 688 OFFCURVE",
"639 750 OFFCURVE",
"662 860 CURVE",
"550 860 LINE",
"541 814 OFFCURVE",
"513 778 OFFCURVE",
"464 778 CURVE SMOOTH",
"412 778 OFFCURVE",
"403 809 OFFCURVE",
"414 860 CURVE",
"315 860 LINE",
"292 750 OFFCURVE",
"349 688 OFFCURVE",
"451 688 CURVE SMOOTH"
);
}
);
width = 728;
}
);
leftKerningGroup = A;
note = Abrevedotbelow;
rightKerningGroup = A;
unicode = 1EB6;
},
{
glyphname = Abrevegrave;
lastChange = "2015-11-25 10:44:31 +0000";
layers = (
{
layerId = "CD587521-C2B1-4DF5-9394-E26F9987D7DC";
name = "SemiBold Italic";
paths = (
{
closed = 1;
nodes = (
"149 0 LINE",
"237 146 LINE",
"458 146 LINE",
"485 0 LINE",
"641 0 LINE",
"531 644 LINE",
"357 644 LINE",
"-25 0 LINE"
);
},
{
closed = 1;
nodes = (
"416 489 LINE",
"453 265 LINE",
"284 265 LINE"
);
},
{
closed = 1;
nodes = (
"564 688 OFFCURVE",
"637 736 OFFCURVE",
"661 852 CURVE",
"565 852 LINE",
"554 800 OFFCURVE",
"519 769 OFFCURVE",
"468 769 CURVE SMOOTH",
"405 769 OFFCURVE",
"393 795 OFFCURVE",
"404 852 CURVE",
"315 852 LINE",
"291 736 OFFCURVE",
"353 688 OFFCURVE",
"454 688 CURVE SMOOTH"
);
},
{
closed = 1;
nodes = (
"540 837 LINE",
"506 986 LINE",
"392 986 LINE",
"438 837 LINE"
);
}
);
width = 728;
}
);
leftKerningGroup = A;
note = Abrevegrave;
rightKerningGroup = A;
unicode = 1EB0;
},
{
glyphname = Abrevehookabove;
lastChange = "2015-11-25 10:44:30 +0000";
layers = (
{
layerId = "CD587521-C2B1-4DF5-9394-E26F9987D7DC";
name = "SemiBold Italic";
paths = (
{
closed = 1;
nodes = (
"149 0 LINE",
"237 146 LINE",
"458 146 LINE",
"485 0 LINE",
"641 0 LINE",
"531 644 LINE",
"357 644 LINE",
"-25 0 LINE"
);
},
{
closed = 1;
nodes = (
"416 489 LINE",
"453 265 LINE",
"284 265 LINE"
);
},
{
closed = 1;
nodes = (
"564 688 OFFCURVE",
"637 736 OFFCURVE",
"661 852 CURVE",
"565 852 LINE",
"554 800 OFFCURVE",
"519 769 OFFCURVE",
"468 769 CURVE SMOOTH",
"405 769 OFFCURVE",
"393 795 OFFCURVE",
"404 852 CURVE",
"315 852 LINE",
"291 736 OFFCURVE",
"353 688 OFFCURVE",
"454 688 CURVE SMOOTH"
);
},
{
closed = 1;
nodes = (
"538 844 LINE",
"544 875 LINE",
"601 887 OFFCURVE",
"628 910 OFFCURVE",
"637 955 CURVE SMOOTH",
"647 1003 OFFCURVE",
"615 1038 OFFCURVE",
"544 1038 CURVE SMOOTH",
"507 1038 OFFCURVE",
"471 1033 OFFCURVE",
"446 1025 CURVE",
"433 963 LINE",
"448 969 OFFCURVE",
"468 974 OFFCURVE",
"487 974 CURVE SMOOTH",
"520 974 OFFCURVE",
"535 967 OFFCURVE",
"530 944 CURVE SMOOTH",
"525 921 OFFCURVE",
"503 907 OFFCURVE",
"445 905 CURVE",
"432 844 LINE"
);
}
);
width = 728;
}
);
leftKerningGroup = A;
note = Abrevehookabove;
rightKerningGroup = A;
unicode = 1EB2;
},
{
glyphname = Abrevetilde;
lastChange = "2015-11-25 10:44:31 +0000";
layers = (
{
layerId = "CD587521-C2B1-4DF5-9394-E26F9987D7DC";
name = "SemiBold Italic";
paths = (
{
closed = 1;
nodes = (
"149 0 LINE",
"237 146 LINE",
"458 146 LINE",
"485 0 LINE",
"641 0 LINE",
"531 644 LINE",
"357 644 LINE",
"-25 0 LINE"
);
},
{
closed = 1;
nodes = (
"416 489 LINE",
"453 265 LINE",
"284 265 LINE"
);
},
{
closed = 1;
nodes = (
"564 688 OFFCURVE",
"637 736 OFFCURVE",
"661 852 CURVE",
"565 852 LINE",
"554 800 OFFCURVE",
"519 769 OFFCURVE",
"468 769 CURVE SMOOTH",
"405 769 OFFCURVE",
"393 795 OFFCURVE",
"404 852 CURVE",
"315 852 LINE",
"291 736 OFFCURVE",
"353 688 OFFCURVE",
"454 688 CURVE SMOOTH"
);
},
{
closed = 1;
nodes = (
"620 870 OFFCURVE",
"655 884 OFFCURVE",
"672 902 CURVE",
"690 994 LINE",
"669 970 OFFCURVE",
"636 955 OFFCURVE",
"597 955 CURVE SMOOTH",
"539 955 OFFCURVE",
"500 996 OFFCURVE",
"437 996 CURVE SMOOTH",
"401 996 OFFCURVE",
"363 982 OFFCURVE",
"341 964 CURVE",
"322 873 LINE",
"350 897 OFFCURVE",
"383 910 OFFCURVE",
"422 910 CURVE SMOOTH",
"474 910 OFFCURVE",
"521 870 OFFCURVE",
"582 870 CURVE SMOOTH"
);
}
);
width = 728;
}
);
leftKerningGroup = A;
note = Abrevetilde;
rightKerningGroup = A;
unicode = 1EB4;
},
{
glyphname = Acaron;
lastChange = "2015-11-25 10:44:32 +0000";
layers = (
{
layerId = "CD587521-C2B1-4DF5-9394-E26F9987D7DC";
name = "SemiBold Italic";
paths = (
{
closed = 1;
nodes = (
"149 0 LINE",
"237 146 LINE",
"458 146 LINE",
"485 0 LINE",
"641 0 LINE",
"531 644 LINE",
"357 644 LINE",
"-25 0 LINE"
);
},
{
closed = 1;
nodes = (
"416 489 LINE",
"453 265 LINE",
"284 265 LINE"
);
},
{
closed = 1;
nodes = (
"502 688 LINE",
"687 875 LINE",
"561 875 LINE",
"464 771 LINE",
"414 875 LINE",
"298 875 LINE",
"402 688 LINE"
);
}
);
width = 728;
}
);
leftKerningGroup = A;
note = Acaron;
rightKerningGroup = A;
unicode = 01CD;
},
{
glyphname = Acircumflex;
lastChange = "2015-11-25 10:44:31 +0000";
layers = (
{
layerId = "CD587521-C2B1-4DF5-9394-E26F9987D7DC";
name = "SemiBold Italic";
paths = (
{
closed = 1;
nodes = (
"149 0 LINE",
"237 146 LINE",
"458 146 LINE",
"485 0 LINE",
"641 0 LINE",
"531 644 LINE",
"357 644 LINE",
"-25 0 LINE"
);
},
{
closed = 1;
nodes = (
"416 489 LINE",
"453 265 LINE",
"284 265 LINE"
);
},
{
closed = 1;
nodes = (
"386 687 LINE",
"480 791 LINE",
"533 687 LINE",
"647 687 LINE",
"542 874 LINE",
"442 874 LINE",
"258 687 LINE"
);
}
);
width = 728;
}
);
leftKerningGroup = A;
note = Acircumflex;
rightKerningGroup = A;
unicode = 00C2;
},
{
glyphname = Acircumflexacute;
lastChange = "2015-11-25 10:44:32 +0000";
layers = (
{
layerId = "CD587521-C2B1-4DF5-9394-E26F9987D7DC";
name = "SemiBold Italic";
paths = (
{
closed = 1;
nodes = (
"149 0 LINE",
"237 146 LINE",
"458 146 LINE",
"485 0 LINE",
"641 0 LINE",
"531 644 LINE",
"357 644 LINE",
"-25 0 LINE"
);
},
{
closed = 1;
nodes = (
"416 489 LINE",
"453 265 LINE",
"284 265 LINE"
);
},
{
closed = 1;
nodes = (
"391 688 LINE",
"473 768 LINE",
"521 688 LINE",
"645 688 LINE",
"541 832 LINE",
"420 832 LINE",
"256 688 LINE"
);
},
{
closed = 1;
nodes = (
"701 809 LINE",
"807 958 LINE",
"687 958 LINE",
"588 809 LINE"
);
}
);
width = 728;
}
);
leftKerningGroup = A;
note = Acircumflexacute;
rightKerningGroup = A;
unicode = 1EA4;
},
{
glyphname = Acircumflexdotbelow;
lastChange = "2015-11-25 10:44:31 +0000";
layers = (
{
layerId = "CD587521-C2B1-4DF5-9394-E26F9987D7DC";
name = "SemiBold Italic";
paths = (
{
closed = 1;
nodes = (
"149 0 LINE",
"237 146 LINE",
"458 146 LINE",
"485 0 LINE",
"641 0 LINE",
"531 644 LINE",
"357 644 LINE",
"-25 0 LINE"
);
},
{
closed = 1;
nodes = (
"328 -179 LINE",
"351 -70 LINE",
"233 -70 LINE",
"210 -179 LINE"
);
},
{
closed = 1;
nodes = (
"416 489 LINE",
"453 265 LINE",
"284 265 LINE"
);
},
{
closed = 1;
nodes = (
"386 688 LINE",
"480 792 LINE",
"533 688 LINE",
"647 688 LINE",
"542 875 LINE",
"442 875 LINE",
"258 688 LINE"
);
}
);
width = 728;
}
);
leftKerningGroup = A;
note = Acircumflexdotbelow;
rightKerningGroup = A;
unicode = 1EAC;
},
{
glyphname = Acircumflexgrave;
lastChange = "2015-11-25 10:44:30 +0000";
layers = (
{
layerId = "CD587521-C2B1-4DF5-9394-E26F9987D7DC";
name = "SemiBold Italic";
paths = (
{
closed = 1;
nodes = (
"149 0 LINE",
"237 146 LINE",
"458 146 LINE",
"485 0 LINE",
"641 0 LINE",
"531 644 LINE",
"357 644 LINE",
"-25 0 LINE"
);
},
{
closed = 1;
nodes = (
"416 489 LINE",
"453 265 LINE",
"284 265 LINE"
);
},
{
closed = 1;
nodes = (
"369 809 LINE",
"331 958 LINE",
"211 958 LINE",
"255 809 LINE"
);
},
{
closed = 1;
nodes = (
"394 688 LINE",
"476 768 LINE",
"524 688 LINE",
"648 688 LINE",
"544 832 LINE",
"423 832 LINE",
"259 688 LINE"
);
}
);
width = 728;
}
);
leftKerningGroup = A;
note = Acircumflexgrave;
rightKerningGroup = A;
unicode = 1EA6;
},
{
glyphname = Acircumflexhookabove;
lastChange = "2015-11-25 10:44:30 +0000";
layers = (
{
layerId = "CD587521-C2B1-4DF5-9394-E26F9987D7DC";
name = "SemiBold Italic";
paths = (
{
closed = 1;
nodes = (
"149 0 LINE",
"237 146 LINE",
"458 146 LINE",
"485 0 LINE",
"641 0 LINE",
"531 644 LINE",
"357 644 LINE",
"-25 0 LINE"
);
},
{
closed = 1;
nodes = (
"416 489 LINE",
"453 265 LINE",
"284 265 LINE"
);
},
{
closed = 1;
nodes = (
"393 688 LINE",
"475 768 LINE",
"523 688 LINE",
"647 688 LINE",
"543 832 LINE",
"422 832 LINE",
"258 688 LINE"
);
},
{
closed = 1;
nodes = (
"703 787 LINE",
"710 820 LINE",
"763 828 OFFCURVE",
"792 857 OFFCURVE",
"801 902 CURVE SMOOTH",
"812 952 OFFCURVE",
"780 985 OFFCURVE",
"704 985 CURVE SMOOTH",
"666 985 OFFCURVE",
"636 980 OFFCURVE",
"611 973 CURVE",
"597 906 LINE",
"613 912 OFFCURVE",
"632 916 OFFCURVE",
"651 916 CURVE SMOOTH",
"679 916 OFFCURVE",
"693 909 OFFCURVE",
"689 891 CURVE SMOOTH",
"685 872 OFFCURVE",
"669 860 OFFCURVE",
"610 858 CURVE",
"595 787 LINE"
);
}
);
width = 728;
}
);
leftKerningGroup = A;
note = Acircumflexhookabove;
rightKerningGroup = A;
unicode = 1EA8;
},
{
glyphname = Acircumflextilde;
lastChange = "2015-11-25 10:44:32 +0000";
layers = (
{
layerId = "CD587521-C2B1-4DF5-9394-E26F9987D7DC";
name = "SemiBold Italic";
paths = (
{
closed = 1;
nodes = (
"149 0 LINE",
"237 146 LINE",
"458 146 LINE",
"485 0 LINE",
"641 0 LINE",
"531 644 LINE",
"357 644 LINE",
"-25 0 LINE"
);
},
{
closed = 1;
nodes = (
"416 489 LINE",
"453 265 LINE",
"284 265 LINE"
);
},
{
closed = 1;
nodes = (
"393 688 LINE",
"475 768 LINE",
"523 688 LINE",
"647 688 LINE",
"543 832 LINE",
"422 832 LINE",
"258 688 LINE"
);
},
{
closed = 1;
nodes = (
"622 847 OFFCURVE",
"656 861 OFFCURVE",
"672 879 CURVE",
"692 971 LINE",
"670 947 OFFCURVE",
"638 932 OFFCURVE",
"599 932 CURVE SMOOTH",
"541 932 OFFCURVE",
"501 973 OFFCURVE",
"438 973 CURVE SMOOTH",
"402 973 OFFCURVE",
"364 959 OFFCURVE",
"343 941 CURVE",
"323 850 LINE",
"351 874 OFFCURVE",
"384 887 OFFCURVE",
"423 887 CURVE SMOOTH",
"475 887 OFFCURVE",
"523 847 OFFCURVE",
"584 847 CURVE SMOOTH"
);
}
);
width = 728;
}
);
leftKerningGroup = A;
note = Acircumflextilde;
rightKerningGroup = A;
unicode = 1EAA;
},
{
glyphname = Adieresis;
lastChange = "2015-11-25 10:44:31 +0000";
layers = (
{
layerId = "CD587521-C2B1-4DF5-9394-E26F9987D7DC";
name = "SemiBold Italic";
paths = (
{
closed = 1;
nodes = (
"149 0 LINE",
"237 146 LINE",
"458 146 LINE",
"485 0 LINE",
"641 0 LINE",
"531 644 LINE",
"357 644 LINE",
"-25 0 LINE"
);
},
{
closed = 1;
nodes = (
"416 489 LINE",
"453 265 LINE",
"284 265 LINE"
);
},
{
closed = 1;
nodes = (
"413 713 LINE",
"437 822 LINE",
"320 822 LINE",
"296 713 LINE"
);
},
{
closed = 1;
nodes = (
"619 713 LINE",
"643 822 LINE",
"525 822 LINE",
"501 713 LINE"
);
}
);
width = 728;
}
);
leftKerningGroup = A;
note = Adieresis;
rightKerningGroup = A;
unicode = 00C4;
},
{
glyphname = Adotbelow;
lastChange = "2015-11-25 10:44:31 +0000";
layers = (
{
layerId = "CD587521-C2B1-4DF5-9394-E26F9987D7DC";
name = "SemiBold Italic";
paths = (
{
closed = 1;
nodes = (
"149 0 LINE",
"237 146 LINE",
"458 146 LINE",
"485 0 LINE",
"641 0 LINE",
"531 644 LINE",
"357 644 LINE",
"-25 0 LINE"
);
},
{
closed = 1;
nodes = (
"328 -179 LINE",
"351 -70 LINE",
"233 -70 LINE",
"210 -179 LINE"
);
},
{
closed = 1;
nodes = (
"416 489 LINE",
"453 265 LINE",
"284 265 LINE"
);
}
);
width = 728;
}
);
leftKerningGroup = A;
note = Adotbelow;
rightKerningGroup = A;
unicode = 1EA0;
},
{
glyphname = Agrave;
lastChange = "2015-11-25 10:44:31 +0000";
layers = (
{
layerId = "CD587521-C2B1-4DF5-9394-E26F9987D7DC";
name = "SemiBold Italic";
paths = (
{
closed = 1;
nodes = (
"149 0 LINE",
"237 146 LINE",
"458 146 LINE",
"485 0 LINE",
"641 0 LINE",
"531 644 LINE",
"357 644 LINE",
"-25 0 LINE"
);
},
{
closed = 1;
nodes = (
"416 489 LINE",
"453 265 LINE",
"284 265 LINE"
);
},
{
closed = 1;
nodes = (
"513 688 LINE",
"471 884 LINE",
"339 884 LINE",
"390 688 LINE"
);
}
);
width = 728;
}
);
leftKerningGroup = A;
note = Agrave;
rightKerningGroup = A;
unicode = 00C0;
},
{
glyphname = Ahookabove;
lastChange = "2015-11-25 10:44:30 +0000";
layers = (
{
layerId = "CD587521-C2B1-4DF5-9394-E26F9987D7DC";
name = "SemiBold Italic";
paths = (
{
closed = 1;
nodes = (
"149 0 LINE",
"237 146 LINE",
"458 146 LINE",
"485 0 LINE",
"641 0 LINE",
"531 644 LINE",
"357 644 LINE",
"-25 0 LINE"
);
},
{
closed = 1;
nodes = (
"416 489 LINE",
"453 265 LINE",
"284 265 LINE"
);
},
{
closed = 1;
nodes = (
"516 688 LINE",
"525 732 LINE",
"587 746 OFFCURVE",
"618 772 OFFCURVE",
"631 829 CURVE SMOOTH",
"643 888 OFFCURVE",
"604 928 OFFCURVE",
"516 928 CURVE SMOOTH",
"473 928 OFFCURVE",
"434 923 OFFCURVE",
"406 914 CURVE",
"390 842 LINE",
"407 847 OFFCURVE",
"433 851 OFFCURVE",
"452 851 CURVE SMOOTH",
"493 851 OFFCURVE",
"515 840 OFFCURVE",
"510 815 CURVE SMOOTH",
"504 788 OFFCURVE",
"483 773 OFFCURVE",
"411 769 CURVE",
"394 688 LINE"
);
}
);
width = 728;
}
);
leftKerningGroup = A;
note = Ahookabove;
rightKerningGroup = A;
unicode = 1EA2;
},
{
glyphname = Amacron;
lastChange = "2015-11-25 10:44:31 +0000";
layers = (
{
layerId = "CD587521-C2B1-4DF5-9394-E26F9987D7DC";
name = "SemiBold Italic";
paths = (
{
closed = 1;
nodes = (
"149 0 LINE",
"237 146 LINE",
"458 146 LINE",
"485 0 LINE",
"641 0 LINE",
"531 644 LINE",
"357 644 LINE",
"-25 0 LINE"
);
},
{
closed = 1;
nodes = (
"416 489 LINE",
"453 265 LINE",
"284 265 LINE"
);
},
{
closed = 1;
nodes = (
"614 704 LINE",
"635 801 LINE",
"318 801 LINE",
"297 704 LINE"
);
}
);
width = 728;
}
);
leftKerningGroup = A;
note = Amacron;
rightKerningGroup = A;
unicode = 0100;
},
{
glyphname = Aogonek;
lastChange = "2015-11-25 10:44:31 +0000";
layers = (
{
layerId = "CD587521-C2B1-4DF5-9394-E26F9987D7DC";
name = "SemiBold Italic";
paths = (
{
closed = 1;
nodes = (
"550 -220 OFFCURVE",
"588 -213 OFFCURVE",
"609 -205 CURVE",
"626 -124 LINE",
"613 -131 OFFCURVE",
"591 -135 OFFCURVE",
"574 -135 CURVE SMOOTH",
"548 -135 OFFCURVE",
"533 -124 OFFCURVE",
"539 -97 CURVE SMOOTH",
"547 -61 OFFCURVE",
"579 -25 OFFCURVE",
"641 0 CURVE",
"531 644 LINE",
"357 644 LINE",
"-25 0 LINE",
"149 0 LINE",
"237 146 LINE",
"460 146 LINE",
"487 0 LINE",
"445 -34 OFFCURVE",
"420 -76 OFFCURVE",
"410 -126 CURVE SMOOTH",
"396 -191 OFFCURVE",
"445 -220 OFFCURVE",
"513 -220 CURVE SMOOTH"
);
},
{
closed = 1;
nodes = (
"416 489 LINE",
"453 265 LINE",
"284 265 LINE"
);
}
);
width = 728;
}
);
leftKerningGroup = A;
note = Aogonek;
rightKerningGroup = A;
unicode = 0104;
},
{
glyphname = Aring;
lastChange = "2015-11-25 10:44:32 +0000";
layers = (
{
layerId = "CD587521-C2B1-4DF5-9394-E26F9987D7DC";
name = "SemiBold Italic";
paths = (
{
closed = 1;
nodes = (
"149 0 LINE",
"237 146 LINE",
"458 146 LINE",
"485 0 LINE",
"641 0 LINE",
"534 625 LINE",
"563 647 OFFCURVE",
"582 680 OFFCURVE",
"590 717 CURVE SMOOTH",
"605 788 OFFCURVE",
"569 843 OFFCURVE",
"485 843 CURVE SMOOTH",
"399 843 OFFCURVE",
"343 788 OFFCURVE",
"328 717 CURVE SMOOTH",
"320 680 OFFCURVE",
"326 648 OFFCURVE",
"346 626 CURVE",
"-25 0 LINE"
);
},
{
closed = 1;
nodes = (
"416 489 LINE",
"453 265 LINE",
"284 265 LINE"
);
},
{
closed = 1;
nodes = (
"406 662 OFFCURVE",
"395 686 OFFCURVE",
"401 717 CURVE SMOOTH",
"408 748 OFFCURVE",
"435 773 OFFCURVE",
"470 773 CURVE SMOOTH",
"514 773 OFFCURVE",
"523 748 OFFCURVE",
"516 717 CURVE SMOOTH",
"510 686 OFFCURVE",
"484 662 OFFCURVE",
"447 662 CURVE SMOOTH"
);
}
);
width = 728;
}
);
leftKerningGroup = A;
note = Aring;
rightKerningGroup = A;
unicode = 00C5;
},
{
glyphname = Aringacute;
lastChange = "2015-11-25 10:44:30 +0000";
layers = (
{
layerId = "CD587521-C2B1-4DF5-9394-E26F9987D7DC";
name = "SemiBold Italic";
paths = (
{
closed = 1;
nodes = (
"149 0 LINE",
"237 146 LINE",
"458 146 LINE",
"485 0 LINE",
"641 0 LINE",
"534 625 LINE",
"563 647 OFFCURVE",
"582 680 OFFCURVE",
"590 717 CURVE SMOOTH",
"605 788 OFFCURVE",
"569 843 OFFCURVE",
"485 843 CURVE SMOOTH",
"399 843 OFFCURVE",
"343 788 OFFCURVE",
"328 717 CURVE SMOOTH",
"320 680 OFFCURVE",
"326 648 OFFCURVE",
"346 626 CURVE",
"-25 0 LINE"
);
},
{
closed = 1;
nodes = (
"416 489 LINE",
"453 265 LINE",
"284 265 LINE"
);
},
{
closed = 1;
nodes = (
"406 662 OFFCURVE",
"395 686 OFFCURVE",
"401 717 CURVE SMOOTH",
"408 748 OFFCURVE",
"435 773 OFFCURVE",
"470 773 CURVE SMOOTH",
"514 773 OFFCURVE",
"523 748 OFFCURVE",
"516 717 CURVE SMOOTH",
"510 686 OFFCURVE",
"484 662 OFFCURVE",
"447 662 CURVE SMOOTH"
);
},
{
closed = 1;
nodes = (
"548 867 LINE",
"682 1053 LINE",
"550 1053 LINE",
"424 867 LINE"
);
}
);
width = 728;
}
);
leftKerningGroup = A;
note = Aringacute;
rightKerningGroup = A;
unicode = 01FA;
},
{
glyphname = Atilde;
lastChange = "2015-11-25 10:44:32 +0000";
layers = (
{
layerId = "CD587521-C2B1-4DF5-9394-E26F9987D7DC";
name = "SemiBold Italic";
paths = (
{
closed = 1;
nodes = (
"149 0 LINE",
"237 146 LINE",
"458 146 LINE",
"485 0 LINE",
"641 0 LINE",
"531 644 LINE",
"357 644 LINE",
"-25 0 LINE"
);
},
{
closed = 1;
nodes = (
"416 489 LINE",
"453 265 LINE",
"284 265 LINE"
);
},
{
closed = 1;
nodes = (
"582 690 OFFCURVE",
"618 704 OFFCURVE",
"635 722 CURVE",
"658 830 LINE",
"636 806 OFFCURVE",
"603 791 OFFCURVE",
"563 791 CURVE SMOOTH",
"504 791 OFFCURVE",
"465 832 OFFCURVE",
"401 832 CURVE SMOOTH",
"364 832 OFFCURVE",
"326 818 OFFCURVE",
"303 800 CURVE",
"280 693 LINE",
"309 717 OFFCURVE",
"343 731 OFFCURVE",
"382 731 CURVE SMOOTH",
"434 731 OFFCURVE",
"482 690 OFFCURVE",
"544 690 CURVE SMOOTH"
);
}
);
width = 728;
}
);
leftKerningGroup = A;
note = Atilde;
rightKerningGroup = A;
unicode = 00C3;
},
{
glyphname = AE;
lastChange = "2015-11-25 10:44:31 +0000";
layers = (
{
layerId = "CD587521-C2B1-4DF5-9394-E26F9987D7DC";
name = "SemiBold Italic";
paths = (
{
closed = 1;
nodes = (
"147 0 LINE",
"235 147 LINE",
"377 147 LINE",
"346 0 LINE",
"767 0 LINE",
"793 124 LINE",
"532 124 LINE",
"561 259 LINE",
"785 259 LINE",
"811 385 LINE",
"587 385 LINE",
"616 520 LINE",
"877 520 LINE",
"903 644 LINE",
"357 644 LINE",
"-25 0 LINE"
);
},
{
closed = 1;
nodes = (
"444 520 LINE",
"456 520 LINE",
"403 272 LINE",
"298 272 LINE"
);
}
);
width = 854;
}
);
leftKerningGroup = A;
note = AE;
rightKerningGroup = E;
unicode = 00C6;
},
{
glyphname = AEacute;
lastChange = "2015-11-25 10:44:32 +0000";
layers = (
{
layerId = "CD587521-C2B1-4DF5-9394-E26F9987D7DC";
name = "SemiBold Italic";
paths = (
{
closed = 1;
nodes = (
"147 0 LINE",
"235 147 LINE",
"377 147 LINE",
"346 0 LINE",
"767 0 LINE",
"793 124 LINE",
"532 124 LINE",
"561 259 LINE",
"785 259 LINE",
"811 385 LINE",
"587 385 LINE",
"616 520 LINE",
"877 520 LINE",
"903 644 LINE",
"357 644 LINE",
"-25 0 LINE"
);
},
{
closed = 1;
nodes = (
"444 520 LINE",
"456 520 LINE",
"403 272 LINE",
"298 272 LINE"
);
},
{
closed = 1;
nodes = (
"632 688 LINE",
"766 884 LINE",
"634 884 LINE",
"508 688 LINE"
);
}
);
width = 854;
}
);
leftKerningGroup = A;
note = AEacute;
rightKerningGroup = E;
unicode = 01FC;
},
{
glyphname = B;
lastChange = "2015-11-25 10:44:30 +0000";
layers = (
{
layerId = "CD587521-C2B1-4DF5-9394-E26F9987D7DC";
name = "SemiBold Italic";
paths = (
{
closed = 1;
nodes = (
"345 0 LINE SMOOTH",
"487 0 OFFCURVE",
"568 66 OFFCURVE",
"594 189 CURVE SMOOTH",
"610 265 OFFCURVE",
"583 308 OFFCURVE",
"529 329 CURVE",
"578 354 OFFCURVE",
"615 400 OFFCURVE",
"630 468 CURVE SMOOTH",
"653 574 OFFCURVE",
"591 644 OFFCURVE",
"463 644 CURVE SMOOTH",
"131 644 LINE",
"-5 0 LINE"
);
},
{
closed = 1;
nodes = (
"213 271 LINE",
"354 271 LINE SMOOTH",
"422 271 OFFCURVE",
"442 246 OFFCURVE",
"431 197 CURVE SMOOTH",
"418 136 OFFCURVE",
"392 115 OFFCURVE",
"327 115 CURVE SMOOTH",
"180 115 LINE"
);
},
{
closed = 1;
nodes = (
"268 528 LINE",
"391 528 LINE SMOOTH",
"457 528 OFFCURVE",
"473 503 OFFCURVE",
"463 454 CURVE SMOOTH",
"453 408 OFFCURVE",
"424 382 OFFCURVE",
"368 382 CURVE SMOOTH",
"237 382 LINE"
);
}
);
width = 641;
}
);
note = B;
unicode = 0042;
},
{
glyphname = C;
lastChange = "2015-11-25 10:44:26 +0000";
layers = (
{
layerId = "CD587521-C2B1-4DF5-9394-E26F9987D7DC";
name = "SemiBold Italic";
paths = (
{
closed = 1;
nodes = (
"397 -10 OFFCURVE",
"460 1 OFFCURVE",
"520 20 CURVE",
"550 162 LINE",
"487 138 OFFCURVE",
"423 127 OFFCURVE",
"360 127 CURVE SMOOTH",
"216 127 OFFCURVE",
"177 180 OFFCURVE",
"206 317 CURVE SMOOTH",
"235 454 OFFCURVE",
"313 516 OFFCURVE",
"441 516 CURVE SMOOTH",
"507 516 OFFCURVE",
"564 504 OFFCURVE",
"617 480 CURVE",
"646 621 LINE",
"594 641 OFFCURVE",
"538 654 OFFCURVE",
"459 654 CURVE SMOOTH",
"218 654 OFFCURVE",
"88 532 OFFCURVE",
"42 317 CURVE SMOOTH",
"-2 112 OFFCURVE",
"107 -10 OFFCURVE",
"318 -10 CURVE SMOOTH"
);
}
);
width = 603;
}
);
leftKerningGroup = C;
note = C;
rightKerningGroup = C;
unicode = 0043;
},
{
glyphname = Cacute;
lastChange = "2015-11-25 10:44:31 +0000";
layers = (
{
layerId = "CD587521-C2B1-4DF5-9394-E26F9987D7DC";
name = "SemiBold Italic";
paths = (
{
closed = 1;
nodes = (
"397 -10 OFFCURVE",
"460 1 OFFCURVE",
"520 20 CURVE",
"550 162 LINE",
"487 138 OFFCURVE",
"423 127 OFFCURVE",
"360 127 CURVE SMOOTH",
"216 127 OFFCURVE",
"177 180 OFFCURVE",
"206 317 CURVE SMOOTH",
"235 454 OFFCURVE",
"313 516 OFFCURVE",
"441 516 CURVE SMOOTH",
"507 516 OFFCURVE",
"564 504 OFFCURVE",
"617 480 CURVE",
"646 621 LINE",
"594 641 OFFCURVE",
"538 654 OFFCURVE",
"459 654 CURVE SMOOTH",
"218 654 OFFCURVE",
"88 532 OFFCURVE",
"42 317 CURVE SMOOTH",
"-2 112 OFFCURVE",
"107 -10 OFFCURVE",
"318 -10 CURVE SMOOTH"
);
},
{
closed = 1;
nodes = (
"513 688 LINE",
"647 884 LINE",
"515 884 LINE",
"389 688 LINE"
);
}
);
width = 603;
}
);
leftKerningGroup = C;
note = Cacute;
rightKerningGroup = C;
unicode = 0106;
},
{
glyphname = Ccaron;
lastChange = "2015-11-25 10:44:32 +0000";
layers = (
{
layerId = "CD587521-C2B1-4DF5-9394-E26F9987D7DC";
name = "SemiBold Italic";
paths = (
{
closed = 1;
nodes = (
"397 -10 OFFCURVE",
"460 1 OFFCURVE",
"520 20 CURVE",
"550 162 LINE",
"487 138 OFFCURVE",
"423 127 OFFCURVE",
"360 127 CURVE SMOOTH",
"216 127 OFFCURVE",
"177 180 OFFCURVE",
"206 317 CURVE SMOOTH",
"235 454 OFFCURVE",
"313 516 OFFCURVE",
"441 516 CURVE SMOOTH",
"507 516 OFFCURVE",
"564 504 OFFCURVE",
"617 480 CURVE",
"646 621 LINE",
"594 641 OFFCURVE",
"538 654 OFFCURVE",
"459 654 CURVE SMOOTH",
"218 654 OFFCURVE",
"88 532 OFFCURVE",
"42 317 CURVE SMOOTH",
"-2 112 OFFCURVE",
"107 -10 OFFCURVE",
"318 -10 CURVE SMOOTH"
);
},
{
closed = 1;
nodes = (
"506 687 LINE",
"691 874 LINE",
"565 874 LINE",
"468 770 LINE",
"418 874 LINE",
"302 874 LINE",
"406 687 LINE"
);
}
);
width = 603;
}
);
leftKerningGroup = C;
note = Ccaron;
rightKerningGroup = C;
unicode = 010C;
},
{
glyphname = Ccedilla;
lastChange = "2015-11-25 10:44:26 +0000";
layers = (
{
layerId = "CD587521-C2B1-4DF5-9394-E26F9987D7DC";
name = "SemiBold Italic";
paths = (
{
closed = 1;
nodes = (
"356 -240 OFFCURVE",
"415 -202 OFFCURVE",
"429 -136 CURVE SMOOTH",
"440 -80 OFFCURVE",
"414 -43 OFFCURVE",
"339 -43 CURVE",
"358 -9 LINE",
"419 -6 OFFCURVE",
"470 4 OFFCURVE",
"520 20 CURVE",
"550 162 LINE",
"487 138 OFFCURVE",
"423 127 OFFCURVE",
"360 127 CURVE SMOOTH",
"216 127 OFFCURVE",
"177 180 OFFCURVE",
"206 317 CURVE SMOOTH",
"235 454 OFFCURVE",
"313 516 OFFCURVE",
"441 516 CURVE SMOOTH",
"507 516 OFFCURVE",
"564 504 OFFCURVE",
"617 480 CURVE",
"646 621 LINE",
"594 641 OFFCURVE",
"538 654 OFFCURVE",
"459 654 CURVE SMOOTH",
"218 654 OFFCURVE",
"88 532 OFFCURVE",
"42 317 CURVE SMOOTH",
"2 130 OFFCURVE",
"89 12 OFFCURVE",
"264 -7 CURVE",
"218 -100 LINE",
"272 -100 LINE SMOOTH",
"311 -100 OFFCURVE",
"337 -103 OFFCURVE",
"330 -134 CURVE SMOOTH",
"324 -163 OFFCURVE",
"302 -169 OFFCURVE",
"247 -169 CURVE SMOOTH",
"227 -169 OFFCURVE",
"205 -166 OFFCURVE",
"188 -161 CURVE",
"173 -232 LINE",
"187 -236 OFFCURVE",
"227 -240 OFFCURVE",
"250 -240 CURVE SMOOTH"
);
}
);
width = 603;
}
);
leftKerningGroup = C;
note = Ccedilla;
rightKerningGroup = C;
unicode = 00C7;
},
{
glyphname = Ccircumflex;
lastChange = "2015-11-25 10:44:31 +0000";
layers = (
{
layerId = "CD587521-C2B1-4DF5-9394-E26F9987D7DC";
name = "SemiBold Italic";
paths = (
{
closed = 1;
nodes = (
"397 -10 OFFCURVE",
"460 1 OFFCURVE",
"520 20 CURVE",
"550 162 LINE",
"487 138 OFFCURVE",
"423 127 OFFCURVE",
"360 127 CURVE SMOOTH",
"216 127 OFFCURVE",
"177 180 OFFCURVE",
"206 317 CURVE SMOOTH",
"235 454 OFFCURVE",
"313 516 OFFCURVE",
"441 516 CURVE SMOOTH",
"507 516 OFFCURVE",
"564 504 OFFCURVE",
"617 480 CURVE",
"646 621 LINE",
"594 641 OFFCURVE",
"538 654 OFFCURVE",
"459 654 CURVE SMOOTH",
"218 654 OFFCURVE",
"88 532 OFFCURVE",
"42 317 CURVE SMOOTH",
"-2 112 OFFCURVE",
"107 -10 OFFCURVE",
"318 -10 CURVE SMOOTH"
);
},
{
closed = 1;
nodes = (
"368 687 LINE",
"462 791 LINE",
"515 687 LINE",
"629 687 LINE",
"524 874 LINE",
"424 874 LINE",
"240 687 LINE"
);
}
);
width = 603;
}
);
leftKerningGroup = C;
note = Ccircumflex;
rightKerningGroup = C;
unicode = 0108;
},
{
glyphname = Cdotaccent;
lastChange = "2015-11-25 10:44:32 +0000";
layers = (
{
layerId = "CD587521-C2B1-4DF5-9394-E26F9987D7DC";
name = "SemiBold Italic";
paths = (
{
closed = 1;
nodes = (
"397 -10 OFFCURVE",
"460 1 OFFCURVE",
"520 20 CURVE",
"550 162 LINE",
"487 138 OFFCURVE",
"423 127 OFFCURVE",
"360 127 CURVE SMOOTH",
"216 127 OFFCURVE",
"177 180 OFFCURVE",
"206 317 CURVE SMOOTH",
"235 454 OFFCURVE",
"313 516 OFFCURVE",
"441 516 CURVE SMOOTH",
"507 516 OFFCURVE",
"564 504 OFFCURVE",
"617 480 CURVE",
"646 621 LINE",
"594 641 OFFCURVE",
"538 654 OFFCURVE",
"459 654 CURVE SMOOTH",
"218 654 OFFCURVE",
"88 532 OFFCURVE",
"42 317 CURVE SMOOTH",
"-2 112 OFFCURVE",
"107 -10 OFFCURVE",
"318 -10 CURVE SMOOTH"
);
},
{
closed = 1;
nodes = (
"511 714 LINE",
"535 823 LINE",
"418 823 LINE",
"394 714 LINE"
);
}
);
width = 603;
}
);
leftKerningGroup = C;
note = Cdotaccent;
rightKerningGroup = C;
unicode = 010A;
},
{
glyphname = D;
lastChange = "2015-11-25 10:44:32 +0000";
layers = (
{
layerId = "CD587521-C2B1-4DF5-9394-E26F9987D7DC";
name = "SemiBold Italic";
paths = (
{
closed = 1;
nodes = (
"287 0 LINE SMOOTH",
"499 0 OFFCURVE",
"597 97 OFFCURVE",
"643 318 CURVE SMOOTH",
"691 550 OFFCURVE",
"588 644 OFFCURVE",
"410 644 CURVE SMOOTH",
"131 644 LINE",
"-5 0 LINE"
);
},
{
closed = 1;
nodes = (
"266 520 LINE",
"362 520 LINE SMOOTH",
"496 520 OFFCURVE",
"513 477 OFFCURVE",
"479 318 CURVE SMOOTH",
"445 159 OFFCURVE",
"395 124 OFFCURVE",
"278 124 CURVE SMOOTH",
"182 124 LINE"
);
}
);
width = 663;
}
);
note = D;
rightKerningGroup = D;
unicode = 0044;
},
{
glyphname = Eth;
lastChange = "2015-11-25 10:44:30 +0000";
layers = (
{
layerId = "CD587521-C2B1-4DF5-9394-E26F9987D7DC";
name = "SemiBold Italic";
paths = (
{
closed = 1;
nodes = (
"330 0 LINE SMOOTH",
"542 0 OFFCURVE",
"640 97 OFFCURVE",
"686 318 CURVE SMOOTH",
"734 550 OFFCURVE",
"631 644 OFFCURVE",
"453 644 CURVE SMOOTH",
"174 644 LINE",
"117 374 LINE",
"44 374 LINE",
"19 257 LINE",
"92 257 LINE",
"38 0 LINE"
);
},
{
closed = 1;
nodes = (
"253 257 LINE",
"379 257 LINE",
"404 374 LINE",
"278 374 LINE",
"309 520 LINE",
"405 520 LINE SMOOTH",
"539 520 OFFCURVE",
"556 477 OFFCURVE",
"522 318 CURVE SMOOTH",
"488 159 OFFCURVE",
"438 124 OFFCURVE",
"321 124 CURVE SMOOTH",
"225 124 LINE"
);
}
);
width = 707;
}
);
note = Eth;
rightKerningGroup = D;
unicode = 00D0;
},
{
glyphname = Dcaron;
lastChange = "2015-11-25 10:44:32 +0000";
layers = (
{
layerId = "CD587521-C2B1-4DF5-9394-E26F9987D7DC";
name = "SemiBold Italic";
paths = (
{
closed = 1;
nodes = (
"287 0 LINE SMOOTH",
"499 0 OFFCURVE",
"597 97 OFFCURVE",
"643 318 CURVE SMOOTH",
"691 550 OFFCURVE",
"588 644 OFFCURVE",
"410 644 CURVE SMOOTH",
"131 644 LINE",
"-5 0 LINE"
);
},
{
closed = 1;
nodes = (
"266 520 LINE",
"362 520 LINE SMOOTH",
"496 520 OFFCURVE",
"513 477 OFFCURVE",
"479 318 CURVE SMOOTH",
"445 159 OFFCURVE",
"395 124 OFFCURVE",
"278 124 CURVE SMOOTH",
"182 124 LINE"
);
},
{
closed = 1;
nodes = (
"442 698 LINE",
"627 885 LINE",
"501 885 LINE",
"404 781 LINE",
"354 885 LINE",
"238 885 LINE",
"342 698 LINE"
);
}
);
width = 663;
}
);
note = Dcaron;
rightKerningGroup = D;
unicode = 010E;
},
{
glyphname = Dcroat;
lastChange = "2015-11-25 10:44:32 +0000";
layers = (
{
layerId = "CD587521-C2B1-4DF5-9394-E26F9987D7DC";
name = "SemiBold Italic";
paths = (
{
closed = 1;
nodes = (
"320 0 LINE SMOOTH",
"532 0 OFFCURVE",
"630 97 OFFCURVE",
"676 318 CURVE SMOOTH",
"724 550 OFFCURVE",
"621 644 OFFCURVE",
"443 644 CURVE SMOOTH",
"164 644 LINE",
"107 374 LINE",
"34 374 LINE",
"9 257 LINE",
"82 257 LINE",
"28 0 LINE"
);
},
{
closed = 1;
nodes = (
"243 257 LINE",
"369 257 LINE",
"394 374 LINE",
"268 374 LINE",
"299 520 LINE",
"395 520 LINE SMOOTH",
"529 520 OFFCURVE",
"546 477 OFFCURVE",
"512 318 CURVE SMOOTH",
"478 159 OFFCURVE",
"428 124 OFFCURVE",
"311 124 CURVE SMOOTH",
"215 124 LINE"
);
}
);
width = 697;
}
);
note = Dcroat;
rightKerningGroup = D;
unicode = 0110;
},
{
glyphname = Ddotbelow;
lastChange = "2015-11-25 10:44:30 +0000";
layers = (
{
layerId = "CD587521-C2B1-4DF5-9394-E26F9987D7DC";
name = "SemiBold Italic";
paths = (
{
closed = 1;
nodes = (
"287 0 LINE SMOOTH",
"499 0 OFFCURVE",
"597 97 OFFCURVE",
"643 318 CURVE SMOOTH",
"691 550 OFFCURVE",
"588 644 OFFCURVE",
"410 644 CURVE SMOOTH",
"131 644 LINE",
"-5 0 LINE"
);
},
{
closed = 1;
nodes = (
"263 -189 LINE",
"286 -80 LINE",
"168 -80 LINE",
"145 -189 LINE"
);
},
{
closed = 1;
nodes = (
"266 520 LINE",
"362 520 LINE SMOOTH",
"496 520 OFFCURVE",
"513 477 OFFCURVE",
"479 318 CURVE SMOOTH",
"445 159 OFFCURVE",
"395 124 OFFCURVE",
"278 124 CURVE SMOOTH",
"182 124 LINE"
);
}
);
width = 663;
}
);
note = Ddotbelow;
rightKerningGroup = D;
unicode = 1E0C;
},
{
glyphname = Dlinebelow;
lastChange = "2015-11-25 10:44:32 +0000";
layers = (
{
layerId = "CD587521-C2B1-4DF5-9394-E26F9987D7DC";
name = "SemiBold Italic";
paths = (
{
closed = 1;
nodes = (
"287 0 LINE SMOOTH",
"499 0 OFFCURVE",
"597 97 OFFCURVE",
"643 318 CURVE SMOOTH",
"691 550 OFFCURVE",
"588 644 OFFCURVE",
"410 644 CURVE SMOOTH",
"131 644 LINE",
"-5 0 LINE"
);
},
{
closed = 1;
nodes = (
"366 -180 LINE",
"387 -82 LINE",
"70 -82 LINE",
"49 -180 LINE"
);
},
{
closed = 1;
nodes = (
"266 520 LINE",
"362 520 LINE SMOOTH",
"496 520 OFFCURVE",
"513 477 OFFCURVE",
"479 318 CURVE SMOOTH",
"445 159 OFFCURVE",
"395 124 OFFCURVE",
"278 124 CURVE SMOOTH",
"182 124 LINE"
);
}
);
width = 663;
}
);
note = Dlinebelow;
rightKerningGroup = D;
unicode = 1E0E;
},
{
glyphname = E;
lastChange = "2015-11-25 10:44:26 +0000";
layers = (
{
layerId = "CD587521-C2B1-4DF5-9394-E26F9987D7DC";
name = "SemiBold Italic";
paths = (
{
closed = 1;
nodes = (
"470 0 LINE",
"496 124 LINE",
"182 124 LINE",
"211 259 LINE",
"488 259 LINE",
"514 385 LINE",
"237 385 LINE",
"266 520 LINE",
"580 520 LINE",
"606 644 LINE",
"131 644 LINE",
"-5 0 LINE"
);
}
);
width = 552;
}
);
leftKerningGroup = E;
note = E;
rightKerningGroup = E;
unicode = 0045;
},
{
glyphname = Eacute;
lastChange = "2015-11-25 10:44:30 +0000";
layers = (
{
layerId = "CD587521-C2B1-4DF5-9394-E26F9987D7DC";
name = "SemiBold Italic";
paths = (
{
closed = 1;
nodes = (
"470 0 LINE",
"496 124 LINE",
"182 124 LINE",
"211 259 LINE",
"488 259 LINE",
"514 385 LINE",
"237 385 LINE",
"266 520 LINE",
"580 520 LINE",
"606 644 LINE",
"131 644 LINE",
"-5 0 LINE"
);
},
{
closed = 1;
nodes = (
"425 688 LINE",
"559 884 LINE",
"427 884 LINE",
"301 688 LINE"
);
}
);
width = 552;
}
);
leftKerningGroup = E;
note = Eacute;
rightKerningGroup = E;
unicode = 00C9;
},
{
glyphname = Ebreve;
lastChange = "2015-11-25 10:44:59 +0000";
layers = (
{
layerId = "CD587521-C2B1-4DF5-9394-E26F9987D7DC";
name = "SemiBold Italic";
paths = (
{
closed = 1;
nodes = (
"470 0 LINE",
"496 124 LINE",
"182 124 LINE",
"211 259 LINE",
"488 259 LINE",
"514 385 LINE",
"237 385 LINE",
"266 520 LINE",
"580 520 LINE",
"606 644 LINE",
"131 644 LINE",
"-5 0 LINE"
);
},
{
closed = 1;
nodes = (
"495 688 OFFCURVE",
"570 750 OFFCURVE",
"593 860 CURVE",
"481 860 LINE",
"472 814 OFFCURVE",
"444 778 OFFCURVE",
"395 778 CURVE SMOOTH",
"343 778 OFFCURVE",
"334 809 OFFCURVE",
"345 860 CURVE",
"246 860 LINE",
"223 750 OFFCURVE",
"280 688 OFFCURVE",
"382 688 CURVE SMOOTH"
);
}
);
width = 552;
}
);
leftKerningGroup = E;
note = Ebreve;
rightKerningGroup = E;
unicode = 0114;
},
{
glyphname = Ecaron;
lastChange = "2015-11-25 10:44:59 +0000";
layers = (
{
layerId = "CD587521-C2B1-4DF5-9394-E26F9987D7DC";
name = "SemiBold Italic";
paths = (
{
closed = 1;
nodes = (
"470 0 LINE",
"496 124 LINE",
"182 124 LINE",
"211 259 LINE",
"488 259 LINE",
"514 385 LINE",
"237 385 LINE",
"266 520 LINE",
"580 520 LINE",
"606 644 LINE",
"131 644 LINE",
"-5 0 LINE"
);
},
{
closed = 1;
nodes = (
"435 687 LINE",
"620 874 LINE",
"494 874 LINE",
"397 770 LINE",
"347 874 LINE",
"231 874 LINE",
"335 687 LINE"
);
}
);
width = 552;
}
);
leftKerningGroup = E;
note = Ecaron;
rightKerningGroup = E;
unicode = 011A;
},
{
glyphname = Ecircumflex;
lastChange = "2015-11-25 10:45:13 +0000";
layers = (
{
layerId = "CD587521-C2B1-4DF5-9394-E26F9987D7DC";
name = "SemiBold Italic";
paths = (
{
closed = 1;
nodes = (
"470 0 LINE",
"496 124 LINE",
"182 124 LINE",
"211 259 LINE",
"488 259 LINE",
"514 385 LINE",
"237 385 LINE",
"266 520 LINE",
"580 520 LINE",
"606 644 LINE",
"131 644 LINE",
"-5 0 LINE"
);
},
{
closed = 1;
nodes = (
"311 687 LINE",
"405 791 LINE",
"458 687 LINE",
"572 687 LINE",
"467 874 LINE",
"367 874 LINE",
"183 687 LINE"
);
}
);
width = 552;
}
);
leftKerningGroup = E;
note = Ecircumflex;
rightKerningGroup = E;
unicode = 00CA;
},
{
glyphname = Ecircumflexacute;
lastChange = "2015-11-25 10:44:59 +0000";
layers = (
{
layerId = "CD587521-C2B1-4DF5-9394-E26F9987D7DC";
name = "SemiBold Italic";
paths = (
{
closed = 1;
nodes = (
"470 0 LINE",
"496 124 LINE",
"182 124 LINE",
"211 259 LINE",
"488 259 LINE",
"514 385 LINE",
"237 385 LINE",
"266 520 LINE",
"580 520 LINE",
"606 644 LINE",
"131 644 LINE",
"-5 0 LINE"
);
},
{
closed = 1;
nodes = (
"309 688 LINE",
"391 768 LINE",
"439 688 LINE",
"563 688 LINE",
"459 832 LINE",
"338 832 LINE",
"174 688 LINE"
);
},
{
closed = 1;
nodes = (
"619 809 LINE",
"725 958 LINE",
"605 958 LINE",
"506 809 LINE"
);
}
);
width = 552;
}
);
leftKerningGroup = E;
note = Ecircumflexacute;
rightKerningGroup = E;
unicode = 1EBE;
},
{
glyphname = Ecircumflexdotbelow;
lastChange = "2015-11-25 10:45:23 +0000";
layers = (
{
layerId = "CD587521-C2B1-4DF5-9394-E26F9987D7DC";
name = "SemiBold Italic";
paths = (
{
closed = 1;
nodes = (
"470 0 LINE",
"496 124 LINE",
"182 124 LINE",
"211 259 LINE",
"488 259 LINE",
"514 385 LINE",
"237 385 LINE",
"266 520 LINE",
"580 520 LINE",
"606 644 LINE",
"131 644 LINE",
"-5 0 LINE"
);
},
{
closed = 1;
nodes = (
"247 -179 LINE",
"270 -70 LINE",
"152 -70 LINE",
"129 -179 LINE"
);
},
{
closed = 1;
nodes = (
"304 688 LINE",
"398 792 LINE",
"451 688 LINE",
"565 688 LINE",
"460 875 LINE",
"360 875 LINE",
"176 688 LINE"
);
}
);
width = 552;
}
);
leftKerningGroup = E;
note = Ecircumflexdotbelow;
rightKerningGroup = E;
unicode = 1EC6;
},
{
glyphname = Ecircumflexgrave;
lastChange = "2015-11-25 10:44:32 +0000";
layers = (
{
layerId = "CD587521-C2B1-4DF5-9394-E26F9987D7DC";
name = "SemiBold Italic";
paths = (
{
closed = 1;
nodes = (
"470 0 LINE",
"496 124 LINE",
"182 124 LINE",
"211 259 LINE",
"488 259 LINE",
"514 385 LINE",
"237 385 LINE",
"266 520 LINE",
"580 520 LINE",
"606 644 LINE",
"131 644 LINE",
"-5 0 LINE"
);
},
{
closed = 1;
nodes = (
"291 809 LINE",
"253 958 LINE",
"133 958 LINE",
"177 809 LINE"
);
},
{
closed = 1;
nodes = (
"316 688 LINE",
"398 768 LINE",
"446 688 LINE",
"570 688 LINE",
"466 832 LINE",
"345 832 LINE",
"181 688 LINE"
);
}
);
width = 552;
}
);
leftKerningGroup = E;
note = Ecircumflexgrave;
rightKerningGroup = E;
unicode = 1EC0;
},
{
glyphname = Ecircumflexhookabove;
lastChange = "2015-11-25 10:44:59 +0000";
layers = (
{
layerId = "CD587521-C2B1-4DF5-9394-E26F9987D7DC";
name = "SemiBold Italic";
paths = (
{
closed = 1;
nodes = (
"470 0 LINE",
"496 124 LINE",
"182 124 LINE",
"211 259 LINE",
"488 259 LINE",
"514 385 LINE",
"237 385 LINE",
"266 520 LINE",
"580 520 LINE",
"606 644 LINE",
"131 644 LINE",
"-5 0 LINE"
);
},
{
closed = 1;
nodes = (
"313 688 LINE",
"395 768 LINE",
"443 688 LINE",
"567 688 LINE",
"463 832 LINE",
"342 832 LINE",
"178 688 LINE"
);
},
{
closed = 1;
nodes = (
"623 787 LINE",
"630 820 LINE",
"683 828 OFFCURVE",
"712 857 OFFCURVE",
"721 902 CURVE SMOOTH",
"732 952 OFFCURVE",
"700 985 OFFCURVE",
"624 985 CURVE SMOOTH",
"586 985 OFFCURVE",
"556 980 OFFCURVE",
"531 973 CURVE",
"517 906 LINE",
"533 912 OFFCURVE",
"552 916 OFFCURVE",
"571 916 CURVE SMOOTH",
"599 916 OFFCURVE",
"613 909 OFFCURVE",
"609 891 CURVE SMOOTH",
"605 872 OFFCURVE",
"589 860 OFFCURVE",
"530 858 CURVE",
"515 787 LINE"
);
}
);
width = 552;
}
);
leftKerningGroup = E;
note = Ecircumflexhookabove;
rightKerningGroup = E;
unicode = 1EC2;
},
{
glyphname = Ecircumflextilde;
lastChange = "2015-11-25 10:44:59 +0000";
layers = (
{
layerId = "CD587521-C2B1-4DF5-9394-E26F9987D7DC";
name = "SemiBold Italic";
paths = (
{
closed = 1;
nodes = (
"470 0 LINE",
"496 124 LINE",
"182 124 LINE",
"211 259 LINE",
"488 259 LINE",
"514 385 LINE",
"237 385 LINE",
"266 520 LINE",
"580 520 LINE",
"606 644 LINE",
"131 644 LINE",
"-5 0 LINE"
);
},
{
closed = 1;
nodes = (
"318 688 LINE",
"400 768 LINE",
"448 688 LINE",
"572 688 LINE",
"468 832 LINE",
"347 832 LINE",
"183 688 LINE"
);
},
{
closed = 1;
nodes = (
"547 847 OFFCURVE",
"581 861 OFFCURVE",
"597 879 CURVE",
"617 971 LINE",
"595 947 OFFCURVE",
"563 932 OFFCURVE",
"524 932 CURVE SMOOTH",
"466 932 OFFCURVE",
"426 973 OFFCURVE",
"363 973 CURVE SMOOTH",
"327 973 OFFCURVE",
"289 959 OFFCURVE",
"268 941 CURVE",
"248 850 LINE",
"276 874 OFFCURVE",
"309 887 OFFCURVE",
"348 887 CURVE SMOOTH",
"400 887 OFFCURVE",
"448 847 OFFCURVE",
"509 847 CURVE SMOOTH"
);
}
);
width = 552;
}
);
leftKerningGroup = E;
note = Ecircumflextilde;
rightKerningGroup = E;
unicode = 1EC4;
},
{
glyphname = Edieresis;
lastChange = "2015-11-25 10:44:59 +0000";
layers = (
{
layerId = "CD587521-C2B1-4DF5-9394-E26F9987D7DC";
name = "SemiBold Italic";
paths = (
{
closed = 1;
nodes = (
"470 0 LINE",
"496 124 LINE",
"182 124 LINE",
"211 259 LINE",
"488 259 LINE",
"514 385 LINE",
"237 385 LINE",
"266 520 LINE",
"580 520 LINE",
"606 644 LINE",
"131 644 LINE",
"-5 0 LINE"
);
},
{
closed = 1;
nodes = (
"342 714 LINE",
"366 823 LINE",
"249 823 LINE",
"225 714 LINE"
);
},
{
closed = 1;
nodes = (
"548 714 LINE",
"572 823 LINE",
"454 823 LINE",
"430 714 LINE"
);
}
);
width = 552;
}
);
leftKerningGroup = E;
note = Edieresis;
rightKerningGroup = E;
unicode = 00CB;
},
{
glyphname = Edotaccent;
lastChange = "2015-11-25 10:44:59 +0000";
layers = (
{
layerId = "CD587521-C2B1-4DF5-9394-E26F9987D7DC";
name = "SemiBold Italic";
paths = (
{
closed = 1;
nodes = (
"470 0 LINE",
"496 124 LINE",
"182 124 LINE",
"211 259 LINE",
"488 259 LINE",
"514 385 LINE",
"237 385 LINE",
"266 520 LINE",
"580 520 LINE",
"606 644 LINE",
"131 644 LINE",
"-5 0 LINE"
);
},
{
closed = 1;
nodes = (
"440 714 LINE",
"464 823 LINE",
"347 823 LINE",
"323 714 LINE"
);
}
);
width = 552;
}
);
leftKerningGroup = E;
note = Edotaccent;
rightKerningGroup = E;
unicode = 0116;
},
{
glyphname = Edotbelow;
lastChange = "2015-11-25 10:44:59 +0000";
layers = (
{
layerId = "CD587521-C2B1-4DF5-9394-E26F9987D7DC";
name = "SemiBold Italic";
paths = (
{
closed = 1;
nodes = (
"470 0 LINE",
"496 124 LINE",
"182 124 LINE",
"211 259 LINE",
"488 259 LINE",
"514 385 LINE",
"237 385 LINE",
"266 520 LINE",
"580 520 LINE",
"606 644 LINE",
"131 644 LINE",
"-5 0 LINE"
);
},
{
closed = 1;
nodes = (
"246 -179 LINE",
"269 -70 LINE",
"151 -70 LINE",
"128 -179 LINE"
);
}
);
width = 552;
}
);
leftKerningGroup = E;
note = Edotbelow;
rightKerningGroup = E;
unicode = 1EB8;
},
{
glyphname = Egrave;
lastChange = "2015-11-25 10:44:59 +0000";
layers = (
{
layerId = "CD587521-C2B1-4DF5-9394-E26F9987D7DC";
name = "SemiBold Italic";
paths = (
{
closed = 1;
nodes = (
"470 0 LINE",
"496 124 LINE",
"182 124 LINE",
"211 259 LINE",
"488 259 LINE",
"514 385 LINE",
"237 385 LINE",
"266 520 LINE",
"580 520 LINE",
"606 644 LINE",
"131 644 LINE",
"-5 0 LINE"
);
},
{
closed = 1;
nodes = (
"456 688 LINE",
"414 884 LINE",
"282 884 LINE",
"333 688 LINE"
);
}
);
width = 552;
}
);
leftKerningGroup = E;
note = Egrave;
rightKerningGroup = E;
unicode = 00C8;
},
{
glyphname = Ehookabove;
lastChange = "2015-11-25 10:44:59 +0000";
layers = (
{
layerId = "CD587521-C2B1-4DF5-9394-E26F9987D7DC";
name = "SemiBold Italic";
paths = (
{
closed = 1;
nodes = (
"470 0 LINE",
"496 124 LINE",
"182 124 LINE",
"211 259 LINE",
"488 259 LINE",
"514 385 LINE",
"237 385 LINE",
"266 520 LINE",
"580 520 LINE",
"606 644 LINE",
"131 644 LINE",
"-5 0 LINE"
);
},
{
closed = 1;
nodes = (
"437 688 LINE",
"446 732 LINE",
"508 746 OFFCURVE",
"539 772 OFFCURVE",
"552 829 CURVE SMOOTH",
"564 888 OFFCURVE",
"525 928 OFFCURVE",
"437 928 CURVE SMOOTH",
"394 928 OFFCURVE",
"355 923 OFFCURVE",
"327 914 CURVE",
"311 842 LINE",
"328 847 OFFCURVE",
"354 851 OFFCURVE",
"373 851 CURVE SMOOTH",
"414 851 OFFCURVE",
"436 840 OFFCURVE",
"431 815 CURVE SMOOTH",
"425 788 OFFCURVE",
"404 773 OFFCURVE",
"332 769 CURVE",
"315 688 LINE"
);
}
);
width = 552;
}
);
leftKerningGroup = E;
note = Ehookabove;
rightKerningGroup = E;
unicode = 1EBA;
},
{
glyphname = Emacron;
lastChange = "2015-11-25 10:44:59 +0000";
layers = (
{
layerId = "CD587521-C2B1-4DF5-9394-E26F9987D7DC";
name = "SemiBold Italic";
paths = (
{
closed = 1;
nodes = (
"470 0 LINE",
"496 124 LINE",
"182 124 LINE",
"211 259 LINE",
"488 259 LINE",
"514 385 LINE",
"237 385 LINE",
"266 520 LINE",
"580 520 LINE",
"606 644 LINE",
"131 644 LINE",
"-5 0 LINE"
);
},
{
closed = 1;
nodes = (
"535 723 LINE",
"556 820 LINE",
"239 820 LINE",
"218 723 LINE"
);
}
);
width = 552;
}
);
leftKerningGroup = E;
note = Emacron;
rightKerningGroup = E;
unicode = 0112;
},
{
glyphname = Eogonek;
lastChange = "2015-11-25 10:44:59 +0000";
layers = (
{
layerId = "CD587521-C2B1-4DF5-9394-E26F9987D7DC";
name = "SemiBold Italic";
paths = (
{
closed = 1;
nodes = (
"359 -220 OFFCURVE",
"397 -213 OFFCURVE",
"418 -205 CURVE",
"435 -124 LINE",
"422 -131 OFFCURVE",
"400 -135 OFFCURVE",
"383 -135 CURVE SMOOTH",
"357 -135 OFFCURVE",
"342 -124 OFFCURVE",
"348 -97 CURVE SMOOTH",
"356 -61 OFFCURVE",
"388 -28 OFFCURVE",
"431 0 CURVE",
"470 0 LINE",
"496 124 LINE",
"182 124 LINE",
"211 259 LINE",
"488 259 LINE",
"514 385 LINE",
"237 385 LINE",
"266 520 LINE",
"580 520 LINE",
"606 644 LINE",
"131 644 LINE",
"-5 0 LINE",
"318 0 LINE",
"267 -30 OFFCURVE",
"229 -76 OFFCURVE",
"219 -126 CURVE SMOOTH",
"205 -191 OFFCURVE",
"254 -220 OFFCURVE",
"322 -220 CURVE SMOOTH"
);
}
);
width = 552;
}
);
leftKerningGroup = E;
note = Eogonek;
rightKerningGroup = E;
unicode = 0118;
},
{
glyphname = Etilde;
lastChange = "2015-11-25 10:44:59 +0000";
layers = (
{
layerId = "CD587521-C2B1-4DF5-9394-E26F9987D7DC";
name = "SemiBold Italic";
paths = (
{
closed = 1;
nodes = (
"470 0 LINE",
"496 124 LINE",
"182 124 LINE",
"211 259 LINE",
"488 259 LINE",
"514 385 LINE",
"237 385 LINE",
"266 520 LINE",
"580 520 LINE",
"606 644 LINE",
"131 644 LINE",
"-5 0 LINE"
);
},
{
closed = 1;
nodes = (
"511 698 OFFCURVE",
"547 712 OFFCURVE",
"564 730 CURVE",
"587 838 LINE",
"565 814 OFFCURVE",
"532 799 OFFCURVE",
"492 799 CURVE SMOOTH",
"433 799 OFFCURVE",
"394 840 OFFCURVE",
"330 840 CURVE SMOOTH",
"293 840 OFFCURVE",
"255 826 OFFCURVE",
"232 808 CURVE",
"209 701 LINE",
"238 725 OFFCURVE",
"272 739 OFFCURVE",
"311 739 CURVE SMOOTH",
"363 739 OFFCURVE",
"411 698 OFFCURVE",
"473 698 CURVE SMOOTH"
);
}
);
width = 552;
}
);
leftKerningGroup = E;
note = Etilde;
rightKerningGroup = E;
unicode = 1EBC;
},
{
glyphname = F;
lastChange = "2015-11-25 10:44:27 +0000";
layers = (
{
layerId = "CD587521-C2B1-4DF5-9394-E26F9987D7DC";
name = "SemiBold Italic";
paths = (
{
closed = 1;
nodes = (
"156 0 LINE",
"211 259 LINE",
"481 259 LINE",
"507 385 LINE",
"237 385 LINE",
"266 520 LINE",
"573 520 LINE",
"599 644 LINE",
"131 644 LINE",
"-5 0 LINE"
);
}
);
width = 530;
}
);
note = F;
unicode = 0046;
},
{
glyphname = G;
lastChange = "2015-11-25 10:44:27 +0000";
layers = (
{
layerId = "CD587521-C2B1-4DF5-9394-E26F9987D7DC";
name = "SemiBold Italic";
paths = (
{
closed = 1;
nodes = (
"432 -10 OFFCURVE",
"517 17 OFFCURVE",
"569 47 CURVE",
"637 366 LINE",
"363 366 LINE",
"342 265 LINE",
"481 265 LINE",
"455 143 LINE",
"427 133 OFFCURVE",
"382 127 OFFCURVE",
"343 127 CURVE SMOOTH",
"214 127 OFFCURVE",
"176 179 OFFCURVE",
"205 313 CURVE SMOOTH",
"235 452 OFFCURVE",
"314 516 OFFCURVE",
"451 516 CURVE SMOOTH",
"516 516 OFFCURVE",
"574 509 OFFCURVE",
"626 488 CURVE",
"656 626 LINE",
"603 645 OFFCURVE",
"544 654 OFFCURVE",
"465 654 CURVE SMOOTH",
"226 654 OFFCURVE",
"87 528 OFFCURVE",
"41 313 CURVE SMOOTH",
"-3 108 OFFCURVE",
"103 -10 OFFCURVE",
"313 -10 CURVE SMOOTH"
);
}
);
width = 647;
}
);
leftKerningGroup = G;
note = G;
unicode = 0047;
},
{
glyphname = Gbreve;
lastChange = "2015-11-25 10:44:31 +0000";
layers = (
{
layerId = "CD587521-C2B1-4DF5-9394-E26F9987D7DC";
name = "SemiBold Italic";
paths = (
{
closed = 1;
nodes = (
"432 -10 OFFCURVE",
"517 17 OFFCURVE",
"569 47 CURVE",
"637 366 LINE",
"363 366 LINE",
"342 265 LINE",
"481 265 LINE",
"455 143 LINE",
"427 133 OFFCURVE",
"382 127 OFFCURVE",
"343 127 CURVE SMOOTH",
"214 127 OFFCURVE",
"176 179 OFFCURVE",
"205 313 CURVE SMOOTH",
"235 452 OFFCURVE",
"314 516 OFFCURVE",
"451 516 CURVE SMOOTH",
"516 516 OFFCURVE",
"574 509 OFFCURVE",
"626 488 CURVE",
"656 626 LINE",
"603 645 OFFCURVE",
"544 654 OFFCURVE",
"465 654 CURVE SMOOTH",
"226 654 OFFCURVE",
"87 528 OFFCURVE",
"41 313 CURVE SMOOTH",
"-3 108 OFFCURVE",
"103 -10 OFFCURVE",
"313 -10 CURVE SMOOTH"
);
},
{
closed = 1;
nodes = (
"574 688 OFFCURVE",
"649 750 OFFCURVE",
"672 860 CURVE",
"560 860 LINE",
"551 814 OFFCURVE",
"523 778 OFFCURVE",
"474 778 CURVE SMOOTH",
"422 778 OFFCURVE",
"413 809 OFFCURVE",
"424 860 CURVE",
"325 860 LINE",
"302 750 OFFCURVE",
"359 688 OFFCURVE",
"461 688 CURVE SMOOTH"
);
}
);
width = 647;
}
);
leftKerningGroup = G;
note = Gbreve;
unicode = 011E;
},
{
glyphname = Gcaron;
lastChange = "2015-11-25 10:44:31 +0000";
layers = (
{
layerId = "CD587521-C2B1-4DF5-9394-E26F9987D7DC";
name = "SemiBold Italic";
paths = (
{
closed = 1;
nodes = (
"432 -10 OFFCURVE",
"517 17 OFFCURVE",
"569 47 CURVE",
"637 366 LINE",
"363 366 LINE",
"342 265 LINE",
"481 265 LINE",
"455 143 LINE",
"427 133 OFFCURVE",
"382 127 OFFCURVE",
"343 127 CURVE SMOOTH",
"214 127 OFFCURVE",
"176 179 OFFCURVE",
"205 313 CURVE SMOOTH",
"235 452 OFFCURVE",
"314 516 OFFCURVE",
"451 516 CURVE SMOOTH",
"516 516 OFFCURVE",
"574 509 OFFCURVE",
"626 488 CURVE",
"656 626 LINE",
"603 645 OFFCURVE",
"544 654 OFFCURVE",
"465 654 CURVE SMOOTH",
"226 654 OFFCURVE",
"87 528 OFFCURVE",
"41 313 CURVE SMOOTH",
"-3 108 OFFCURVE",
"103 -10 OFFCURVE",
"313 -10 CURVE SMOOTH"
);
},
{
closed = 1;
nodes = (
"508 688 LINE",
"693 875 LINE",
"567 875 LINE",
"470 771 LINE",
"420 875 LINE",
"304 875 LINE",
"408 688 LINE"
);
}
);
width = 647;
}
);
leftKerningGroup = G;
note = Gcaron;
unicode = 01E6;
},
{
glyphname = Gcircumflex;
lastChange = "2015-11-25 10:44:31 +0000";
layers = (
{
layerId = "CD587521-C2B1-4DF5-9394-E26F9987D7DC";
name = "SemiBold Italic";
paths = (
{
closed = 1;
nodes = (
"432 -10 OFFCURVE",
"517 17 OFFCURVE",
"569 47 CURVE",
"637 366 LINE",
"363 366 LINE",
"342 265 LINE",
"481 265 LINE",
"455 143 LINE",
"427 133 OFFCURVE",
"382 127 OFFCURVE",
"343 127 CURVE SMOOTH",
"214 127 OFFCURVE",
"176 179 OFFCURVE",
"205 313 CURVE SMOOTH",
"235 452 OFFCURVE",
"314 516 OFFCURVE",
"451 516 CURVE SMOOTH",
"516 516 OFFCURVE",
"574 509 OFFCURVE",
"626 488 CURVE",
"656 626 LINE",
"603 645 OFFCURVE",
"544 654 OFFCURVE",
"465 654 CURVE SMOOTH",
"226 654 OFFCURVE",
"87 528 OFFCURVE",
"41 313 CURVE SMOOTH",
"-3 108 OFFCURVE",
"103 -10 OFFCURVE",
"313 -10 CURVE SMOOTH"
);
},
{
closed = 1;
nodes = (
"384 687 LINE",
"478 791 LINE",
"531 687 LINE",
"645 687 LINE",
"540 874 LINE",
"440 874 LINE",
"256 687 LINE"
);
}
);
width = 647;
}
);
leftKerningGroup = G;
note = Gcircumflex;
unicode = 011C;
},
{
glyphname = Gcommaaccent;
lastChange = "2015-11-25 10:44:31 +0000";
layers = (
{
layerId = "CD587521-C2B1-4DF5-9394-E26F9987D7DC";
name = "SemiBold Italic";
paths = (
{
closed = 1;
nodes = (
"432 -10 OFFCURVE",
"517 17 OFFCURVE",
"569 47 CURVE",
"637 366 LINE",
"363 366 LINE",
"342 265 LINE",
"481 265 LINE",
"455 143 LINE",
"427 133 OFFCURVE",
"382 127 OFFCURVE",
"343 127 CURVE SMOOTH",
"214 127 OFFCURVE",
"176 179 OFFCURVE",
"205 313 CURVE SMOOTH",
"235 452 OFFCURVE",
"314 516 OFFCURVE",
"451 516 CURVE SMOOTH",
"516 516 OFFCURVE",
"574 509 OFFCURVE",
"626 488 CURVE",
"656 626 LINE",
"603 645 OFFCURVE",
"544 654 OFFCURVE",
"465 654 CURVE SMOOTH",
"226 654 OFFCURVE",
"87 528 OFFCURVE",
"41 313 CURVE SMOOTH",
"-3 108 OFFCURVE",
"103 -10 OFFCURVE",
"313 -10 CURVE SMOOTH"
);
},
{
closed = 1;
nodes = (
"285 -250 LINE",
"384 -37 LINE",
"255 -37 LINE",
"177 -250 LINE"
);
}
);
width = 647;
}
);
leftKerningGroup = G;
note = Gcommaaccent;
unicode = 0122;
},
{
glyphname = Gdotaccent;
lastChange = "2015-11-25 10:44:32 +0000";
layers = (
{
layerId = "CD587521-C2B1-4DF5-9394-E26F9987D7DC";
name = "SemiBold Italic";
paths = (
{
closed = 1;
nodes = (
"432 -10 OFFCURVE",
"517 17 OFFCURVE",
"569 47 CURVE",
"637 366 LINE",
"363 366 LINE",
"342 265 LINE",
"481 265 LINE",
"455 143 LINE",
"427 133 OFFCURVE",
"382 127 OFFCURVE",
"343 127 CURVE SMOOTH",
"214 127 OFFCURVE",
"176 179 OFFCURVE",
"205 313 CURVE SMOOTH",
"235 452 OFFCURVE",
"314 516 OFFCURVE",
"451 516 CURVE SMOOTH",
"516 516 OFFCURVE",
"574 509 OFFCURVE",
"626 488 CURVE",
"656 626 LINE",
"603 645 OFFCURVE",
"544 654 OFFCURVE",
"465 654 CURVE SMOOTH",
"226 654 OFFCURVE",
"87 528 OFFCURVE",
"41 313 CURVE SMOOTH",
"-3 108 OFFCURVE",
"103 -10 OFFCURVE",
"313 -10 CURVE SMOOTH"
);
},
{
closed = 1;
nodes = (
"532 714 LINE",
"556 823 LINE",
"439 823 LINE",
"415 714 LINE"
);
}
);
width = 647;
}
);
leftKerningGroup = G;
note = Gdotaccent;
unicode = 0120;
},
{
glyphname = Gmacron;
lastChange = "2015-11-25 10:44:32 +0000";
layers = (
{
layerId = "CD587521-C2B1-4DF5-9394-E26F9987D7DC";
name = "SemiBold Italic";
paths = (
{
closed = 1;
nodes = (
"432 -10 OFFCURVE",
"517 17 OFFCURVE",
"569 47 CURVE",
"637 366 LINE",
"363 366 LINE",
"342 265 LINE",
"481 265 LINE",
"455 143 LINE",
"427 133 OFFCURVE",
"382 127 OFFCURVE",
"343 127 CURVE SMOOTH",
"214 127 OFFCURVE",
"176 179 OFFCURVE",
"205 313 CURVE SMOOTH",
"235 452 OFFCURVE",
"314 516 OFFCURVE",
"451 516 CURVE SMOOTH",
"516 516 OFFCURVE",
"574 509 OFFCURVE",
"626 488 CURVE",
"656 626 LINE",
"603 645 OFFCURVE",
"544 654 OFFCURVE",
"465 654 CURVE SMOOTH",
"226 654 OFFCURVE",
"87 528 OFFCURVE",
"41 313 CURVE SMOOTH",
"-3 108 OFFCURVE",
"103 -10 OFFCURVE",
"313 -10 CURVE SMOOTH"
);
},
{
closed = 1;
nodes = (
"628 717 LINE",
"649 814 LINE",
"332 814 LINE",
"311 717 LINE"
);
}
);
width = 647;
}
);
leftKerningGroup = G;
note = Gmacron;
unicode = 1E20;
},
{
glyphname = H;
lastChange = "2015-11-25 10:44:27 +0000";
layers = (
{
layerId = "CD587521-C2B1-4DF5-9394-E26F9987D7DC";
name = "SemiBold Italic";
paths = (
{
closed = 1;
nodes = (
"156 0 LINE",
"210 255 LINE",
"462 255 LINE",
"408 0 LINE",
"569 0 LINE",
"705 644 LINE",
"544 644 LINE",
"490 389 LINE",
"238 389 LINE",
"292 644 LINE",
"131 644 LINE",
"-5 0 LINE"
);
}
);
width = 676;
}
);
note = H;
unicode = 0048;
},
{
glyphname = Hbar;
lastChange = "2015-11-25 10:44:32 +0000";
layers = (
{
layerId = "CD587521-C2B1-4DF5-9394-E26F9987D7DC";
name = "SemiBold Italic";
paths = (
{
closed = 1;
nodes = (
"156 0 LINE",
"210 255 LINE",
"462 255 LINE",
"408 0 LINE",
"569 0 LINE",
"665 454 LINE",
"706 454 LINE",
"730 569 LINE",
"689 569 LINE",
"705 644 LINE",
"544 644 LINE",
"528 569 LINE",
"276 569 LINE",
"292 644 LINE",
"131 644 LINE",
"115 569 LINE",
"74 569 LINE",
"50 454 LINE",
"91 454 LINE",
"-5 0 LINE"
);
},
{
closed = 1;
nodes = (
"252 454 LINE",
"504 454 LINE",
"490 389 LINE",
"238 389 LINE"
);
}
);
width = 677;
}
);
note = Hbar;
unicode = 0126;
},
{
glyphname = Hbrevebelow;
lastChange = "2015-11-25 10:44:32 +0000";
layers = (
{
layerId = "CD587521-C2B1-4DF5-9394-E26F9987D7DC";
name = "SemiBold Italic";
paths = (
{
closed = 1;
nodes = (
"156 0 LINE",
"210 255 LINE",
"462 255 LINE",
"408 0 LINE",
"569 0 LINE",
"705 644 LINE",
"544 644 LINE",
"490 389 LINE",
"238 389 LINE",
"292 644 LINE",
"131 644 LINE",
"-5 0 LINE"
);
},
{
closed = 1;
nodes = (
"345 -227 OFFCURVE",
"420 -165 OFFCURVE",
"444 -55 CURVE",
"332 -55 LINE",
"322 -101 OFFCURVE",
"295 -137 OFFCURVE",
"246 -137 CURVE SMOOTH",
"198 -137 OFFCURVE",
"182 -113 OFFCURVE",
"197 -55 CURVE",
"97 -55 LINE",
"73 -165 OFFCURVE",
"130 -227 OFFCURVE",
"233 -227 CURVE SMOOTH"
);
}
);
width = 676;
}
);
note = Hbrevebelow;
unicode = 1E2A;
},
{
glyphname = Hcircumflex;
lastChange = "2015-11-25 10:44:32 +0000";
layers = (
{
layerId = "CD587521-C2B1-4DF5-9394-E26F9987D7DC";
name = "SemiBold Italic";
paths = (
{
closed = 1;
nodes = (
"156 0 LINE",
"210 255 LINE",
"462 255 LINE",
"408 0 LINE",
"569 0 LINE",
"705 644 LINE",
"544 644 LINE",
"490 389 LINE",
"238 389 LINE",
"292 644 LINE",
"131 644 LINE",
"-5 0 LINE"
);
},
{
closed = 1;
nodes = (
"360 687 LINE",
"454 791 LINE",
"507 687 LINE",
"621 687 LINE",
"516 874 LINE",
"416 874 LINE",
"232 687 LINE"
);
}
);
width = 676;
}
);
note = Hcircumflex;
unicode = 0124;
},
{
glyphname = Hdotbelow;
lastChange = "2015-11-25 10:44:32 +0000";
layers = (
{
layerId = "CD587521-C2B1-4DF5-9394-E26F9987D7DC";
name = "SemiBold Italic";
paths = (
{
closed = 1;
nodes = (
"156 0 LINE",
"210 255 LINE",
"462 255 LINE",
"408 0 LINE",
"569 0 LINE",
"705 644 LINE",
"544 644 LINE",
"490 389 LINE",
"238 389 LINE",
"292 644 LINE",
"131 644 LINE",
"-5 0 LINE"
);
},
{
closed = 1;
nodes = (
"301 -189 LINE",
"324 -80 LINE",
"206 -80 LINE",
"183 -189 LINE"
);
}
);
width = 676;
}
);
note = Hdotbelow;
unicode = 1E24;
},
{
glyphname = I;
lastChange = "2015-11-25 10:44:27 +0000";
layers = (
{
layerId = "CD587521-C2B1-4DF5-9394-E26F9987D7DC";
name = "SemiBold Italic";
paths = (
{
closed = 1;
nodes = (
"156 0 LINE",
"292 644 LINE",
"131 644 LINE",
"-5 0 LINE"
);
}
);
width = 263;
}
);
note = I;
unicode = 0049;
},
{
glyphname = IJ;
lastChange = "2015-11-25 10:44:31 +0000";
layers = (
{
layerId = "CD587521-C2B1-4DF5-9394-E26F9987D7DC";
name = "SemiBold Italic";
paths = (
{
closed = 1;
nodes = (
"523 -10 OFFCURVE",
"606 64 OFFCURVE",
"635 199 CURVE SMOOTH",
"729 644 LINE",
"568 644 LINE",
"480 229 LINE SMOOTH",
"465 156 OFFCURVE",
"439 127 OFFCURVE",
"350 127 CURVE SMOOTH",
"309 127 OFFCURVE",
"269 134 OFFCURVE",
"240 148 CURVE",
"211 13 LINE",
"251 -3 OFFCURVE",
"299 -10 OFFCURVE",
"354 -10 CURVE SMOOTH"
);
},
{
closed = 1;
nodes = (
"156 0 LINE",
"292 644 LINE",
"131 644 LINE",
"-5 0 LINE"
);
}
);
width = 696;
}
);
note = IJ;
unicode = 0132;
},
{
glyphname = Iacute;
lastChange = "2015-11-25 10:44:31 +0000";
layers = (
{
layerId = "CD587521-C2B1-4DF5-9394-E26F9987D7DC";
name = "SemiBold Italic";
paths = (
{
closed = 1;
nodes = (
"156 0 LINE",
"292 644 LINE",
"131 644 LINE",
"-5 0 LINE"
);
},
{
closed = 1;
nodes = (
"281 688 LINE",
"415 884 LINE",
"283 884 LINE",
"157 688 LINE"
);
}
);
width = 264;
}
);
note = Iacute;
unicode = 00CD;
},
{
glyphname = Ibreve;
lastChange = "2015-11-25 10:44:32 +0000";
layers = (
{
layerId = "CD587521-C2B1-4DF5-9394-E26F9987D7DC";
name = "SemiBold Italic";
paths = (
{
closed = 1;
nodes = (
"156 0 LINE",
"292 644 LINE",
"131 644 LINE",
"-5 0 LINE"
);
},
{
closed = 1;
nodes = (
"337 705 OFFCURVE",
"412 767 OFFCURVE",
"435 877 CURVE",
"323 877 LINE",
"314 831 OFFCURVE",
"286 795 OFFCURVE",
"237 795 CURVE SMOOTH",
"185 795 OFFCURVE",
"176 826 OFFCURVE",
"187 877 CURVE",
"88 877 LINE",
"65 767 OFFCURVE",
"122 705 OFFCURVE",
"224 705 CURVE SMOOTH"
);
}
);
width = 264;
}
);
note = Ibreve;
unicode = 012C;
},
{
glyphname = Icaron;
lastChange = "2015-11-25 10:44:30 +0000";
layers = (
{
layerId = "CD587521-C2B1-4DF5-9394-E26F9987D7DC";
name = "SemiBold Italic";
paths = (
{
closed = 1;
nodes = (
"156 0 LINE",
"292 644 LINE",
"131 644 LINE",
"-5 0 LINE"
);
},
{
closed = 1;
nodes = (
"270 688 LINE",
"455 875 LINE",
"329 875 LINE",
"232 771 LINE",
"182 875 LINE",
"66 875 LINE",
"170 688 LINE"
);
}
);
width = 264;
}
);
note = Icaron;
unicode = 01CF;
},
{
glyphname = Icircumflex;
lastChange = "2015-11-25 10:44:31 +0000";
layers = (
{
layerId = "CD587521-C2B1-4DF5-9394-E26F9987D7DC";
name = "SemiBold Italic";
paths = (
{
closed = 1;
nodes = (
"156 0 LINE",
"292 644 LINE",
"131 644 LINE",
"-5 0 LINE"
);
},
{
closed = 1;
nodes = (
"154 687 LINE",
"248 791 LINE",
"301 687 LINE",
"415 687 LINE",
"310 874 LINE",
"210 874 LINE",
"26 687 LINE"
);
}
);
width = 264;
}
);
note = Icircumflex;
unicode = 00CE;
},
{
glyphname = Idieresis;
lastChange = "2015-11-25 10:44:31 +0000";
layers = (
{
layerId = "CD587521-C2B1-4DF5-9394-E26F9987D7DC";
name = "SemiBold Italic";
paths = (
{
closed = 1;
nodes = (
"156 0 LINE",
"292 644 LINE",
"131 644 LINE",
"-5 0 LINE"
);
},
{
closed = 1;
nodes = (
"184 720 LINE",
"208 829 LINE",
"91 829 LINE",
"67 720 LINE"
);
},
{
closed = 1;
nodes = (
"390 720 LINE",
"414 829 LINE",
"296 829 LINE",
"272 720 LINE"
);
}
);
width = 263;
}
);
note = Idieresis;
unicode = 00CF;
},
{
glyphname = Idotaccent;
lastChange = "2015-11-25 10:44:30 +0000";
layers = (
{
layerId = "CD587521-C2B1-4DF5-9394-E26F9987D7DC";
name = "SemiBold Italic";
paths = (
{
closed = 1;
nodes = (
"156 0 LINE",
"292 644 LINE",
"131 644 LINE",
"-5 0 LINE"
);
},
{
closed = 1;
nodes = (
"286 720 LINE",
"310 829 LINE",
"193 829 LINE",
"169 720 LINE"
);
}
);
width = 263;
}
);
note = Idotaccent;
unicode = 0130;
},
{
glyphname = Idotbelow;
lastChange = "2015-11-25 10:44:32 +0000";
layers = (
{
layerId = "CD587521-C2B1-4DF5-9394-E26F9987D7DC";
name = "SemiBold Italic";
paths = (
{
closed = 1;
nodes = (
"156 0 LINE",
"292 644 LINE",
"131 644 LINE",
"-5 0 LINE"
);
},
{
closed = 1;
nodes = (
"96 -179 LINE",
"119 -70 LINE",
"1 -70 LINE",
"-22 -179 LINE"
);
}
);
width = 263;
}
);
note = Idotbelow;
unicode = 1ECA;
},
{
glyphname = Igrave;
lastChange = "2015-11-25 10:44:30 +0000";
layers = (
{
layerId = "CD587521-C2B1-4DF5-9394-E26F9987D7DC";
name = "SemiBold Italic";
paths = (
{
closed = 1;
nodes = (
"156 0 LINE",
"292 644 LINE",
"131 644 LINE",
"-5 0 LINE"
);
},
{
closed = 1;
nodes = (
"284 688 LINE",
"242 884 LINE",
"110 884 LINE",
"161 688 LINE"
);
}
);
width = 263;
}
);
note = Igrave;
unicode = 00CC;
},
{
glyphname = Ihookabove;
lastChange = "2015-11-25 10:44:32 +0000";
layers = (
{
layerId = "CD587521-C2B1-4DF5-9394-E26F9987D7DC";
name = "SemiBold Italic";
paths = (
{
closed = 1;
nodes = (
"156 0 LINE",
"292 644 LINE",
"131 644 LINE",
"-5 0 LINE"
);
},
{
closed = 1;
nodes = (
"279 688 LINE",
"288 732 LINE",
"350 746 OFFCURVE",
"381 772 OFFCURVE",
"394 829 CURVE SMOOTH",
"406 888 OFFCURVE",
"367 928 OFFCURVE",
"279 928 CURVE SMOOTH",
"236 928 OFFCURVE",
"197 923 OFFCURVE",
"169 914 CURVE",
"153 842 LINE",
"170 847 OFFCURVE",
"196 851 OFFCURVE",
"215 851 CURVE SMOOTH",
"256 851 OFFCURVE",
"278 840 OFFCURVE",
"273 815 CURVE SMOOTH",
"267 788 OFFCURVE",
"246 773 OFFCURVE",
"174 769 CURVE",
"157 688 LINE"
);
}
);
width = 264;
}
);
note = Ihookabove;
unicode = 1EC8;
},
{
glyphname = Imacron;
lastChange = "2015-11-25 10:44:30 +0000";
layers = (
{
layerId = "CD587521-C2B1-4DF5-9394-E26F9987D7DC";
name = "SemiBold Italic";
paths = (
{
closed = 1;
nodes = (
"156 0 LINE",
"292 644 LINE",
"131 644 LINE",
"-5 0 LINE"
);
},
{
closed = 1;
nodes = (
"388 723 LINE",
"409 820 LINE",
"91 820 LINE",
"70 723 LINE"
);
}
);
width = 264;
}
);
note = Imacron;
unicode = 012A;
},
{
glyphname = Iogonek;
lastChange = "2015-11-25 10:44:27 +0000";
layers = (
{
layerId = "CD587521-C2B1-4DF5-9394-E26F9987D7DC";
name = "SemiBold Italic";
paths = (
{
closed = 1;
nodes = (
"62 -220 OFFCURVE",
"100 -213 OFFCURVE",
"121 -205 CURVE",
"138 -124 LINE",
"125 -131 OFFCURVE",
"103 -135 OFFCURVE",
"86 -135 CURVE SMOOTH",
"60 -135 OFFCURVE",
"45 -124 OFFCURVE",
"51 -97 CURVE SMOOTH",
"59 -61 OFFCURVE",
"91 -28 OFFCURVE",
"134 0 CURVE",
"156 0 LINE",
"292 644 LINE",
"131 644 LINE",
"-5 0 LINE",
"21 0 LINE",
"-30 -30 OFFCURVE",
"-68 -76 OFFCURVE",
"-78 -126 CURVE SMOOTH",
"-92 -191 OFFCURVE",
"-43 -220 OFFCURVE",
"25 -220 CURVE SMOOTH"
);
}
);
width = 264;
}
);
note = Iogonek;
unicode = 012E;
},
{
glyphname = Itilde;
lastChange = "2015-11-25 10:44:32 +0000";
layers = (
{
layerId = "CD587521-C2B1-4DF5-9394-E26F9987D7DC";
name = "SemiBold Italic";
paths = (
{
closed = 1;
nodes = (
"156 0 LINE",
"292 644 LINE",
"131 644 LINE",
"-5 0 LINE"
);
},
{
closed = 1;
nodes = (
"353 705 OFFCURVE",
"389 719 OFFCURVE",
"406 737 CURVE",
"429 845 LINE",
"407 821 OFFCURVE",
"374 806 OFFCURVE",
"334 806 CURVE SMOOTH",
"275 806 OFFCURVE",
"236 847 OFFCURVE",
"172 847 CURVE SMOOTH",
"135 847 OFFCURVE",
"97 833 OFFCURVE",
"74 815 CURVE",
"51 708 LINE",
"80 732 OFFCURVE",
"114 746 OFFCURVE",
"153 746 CURVE SMOOTH",
"205 746 OFFCURVE",
"253 705 OFFCURVE",
"315 705 CURVE SMOOTH"
);
}
);
width = 264;
}
);
note = Itilde;
unicode = 0128;
},
{
glyphname = J;
lastChange = "2015-11-25 10:44:27 +0000";
layers = (
{
layerId = "CD587521-C2B1-4DF5-9394-E26F9987D7DC";
name = "SemiBold Italic";
paths = (
{
closed = 1;
nodes = (
"269 -10 OFFCURVE",
"352 64 OFFCURVE",
"381 199 CURVE SMOOTH",
"475 644 LINE",
"314 644 LINE",
"226 229 LINE SMOOTH",
"211 156 OFFCURVE",
"185 127 OFFCURVE",
"96 127 CURVE SMOOTH",
"55 127 OFFCURVE",
"15 134 OFFCURVE",
"-14 148 CURVE",
"-43 13 LINE",
"-3 -3 OFFCURVE",
"45 -10 OFFCURVE",
"100 -10 CURVE SMOOTH"
);
}
);
width = 441;
}
);
note = J;
unicode = 004A;
},
{
glyphname = Jcircumflex;
lastChange = "2015-11-25 10:44:31 +0000";
layers = (
{
layerId = "CD587521-C2B1-4DF5-9394-E26F9987D7DC";
name = "SemiBold Italic";
paths = (
{
closed = 1;
nodes = (
"269 -10 OFFCURVE",
"352 64 OFFCURVE",
"381 199 CURVE SMOOTH",
"475 644 LINE",
"314 644 LINE",
"226 229 LINE SMOOTH",
"211 156 OFFCURVE",
"185 127 OFFCURVE",
"96 127 CURVE SMOOTH",
"55 127 OFFCURVE",
"15 134 OFFCURVE",
"-14 148 CURVE",
"-43 13 LINE",
"-3 -3 OFFCURVE",
"45 -10 OFFCURVE",
"100 -10 CURVE SMOOTH"
);
},
{
closed = 1;
nodes = (
"332 687 LINE",
"426 791 LINE",
"479 687 LINE",
"593 687 LINE",
"488 874 LINE",
"388 874 LINE",
"204 687 LINE"
);
}
);
width = 441;
}
);
note = Jcircumflex;
unicode = 0134;
},
{
glyphname = K;
lastChange = "2015-11-25 10:44:27 +0000";
layers = (
{
layerId = "CD587521-C2B1-4DF5-9394-E26F9987D7DC";
name = "SemiBold Italic";
paths = (
{
closed = 1;
nodes = (
"156 0 LINE",
"197 195 LINE",
"291 278 LINE",
"404 0 LINE",
"576 0 LINE",
"412 381 LINE",
"698 644 LINE",
"514 644 LINE",
"239 394 LINE",
"292 644 LINE",
"131 644 LINE",
"-5 0 LINE"
);
}
);
width = 663;
}
);
leftKerningGroup = K;
note = K;
rightKerningGroup = K;
unicode = 004B;
},
{
glyphname = Kcommaaccent;
lastChange = "2015-11-25 10:44:31 +0000";
layers = (
{
layerId = "CD587521-C2B1-4DF5-9394-E26F9987D7DC";
name = "SemiBold Italic";
paths = (
{
closed = 1;
nodes = (
"156 0 LINE",
"197 195 LINE",
"291 278 LINE",
"404 0 LINE",
"576 0 LINE",
"412 381 LINE",
"698 644 LINE",
"514 644 LINE",
"239 394 LINE",
"292 644 LINE",
"131 644 LINE",
"-5 0 LINE"
);
},
{
closed = 1;
nodes = (
"238 -250 LINE",
"337 -37 LINE",
"208 -37 LINE",
"130 -250 LINE"
);
}
);
width = 663;
}
);
leftKerningGroup = K;
note = Kcommaaccent;
rightKerningGroup = K;
unicode = 0136;
},
{
glyphname = L;
lastChange = "2015-11-25 10:44:27 +0000";
layers = (
{
layerId = "CD587521-C2B1-4DF5-9394-E26F9987D7DC";
name = "SemiBold Italic";
paths = (
{
closed = 1;
nodes = (
"460 0 LINE",
"486 124 LINE",
"182 124 LINE",
"292 644 LINE",
"131 644 LINE",
"-5 0 LINE"
);
}
);
width = 527;
}
);
note = L;
rightKerningGroup = L;
unicode = 004C;
},
{
glyphname = Lacute;
lastChange = "2015-11-25 10:44:31 +0000";
layers = (
{
layerId = "CD587521-C2B1-4DF5-9394-E26F9987D7DC";
name = "SemiBold Italic";
paths = (
{
closed = 1;
nodes = (
"460 0 LINE",
"486 124 LINE",
"182 124 LINE",
"292 644 LINE",
"131 644 LINE",
"-5 0 LINE"
);
},
{
closed = 1;
nodes = (
"282 688 LINE",
"416 884 LINE",
"284 884 LINE",
"158 688 LINE"
);
}
);
width = 527;
}
);
note = Lacute;
rightKerningGroup = L;
unicode = 0139;
},
{
glyphname = Lcaron;
lastChange = "2015-11-25 10:44:31 +0000";
layers = (
{
layerId = "CD587521-C2B1-4DF5-9394-E26F9987D7DC";
name = "SemiBold Italic";
paths = (
{
closed = 1;
nodes = (
"460 0 LINE",
"486 124 LINE",
"182 124 LINE",
"292 644 LINE",
"131 644 LINE",
"-5 0 LINE"
);
},
{
closed = 1;
nodes = (
"484 595 LINE",
"583 808 LINE",
"454 808 LINE",
"376 595 LINE"
);
}
);
width = 527;
}
);
note = Lcaron;
rightKerningGroup = L;
unicode = 013D;
},
{
glyphname = Lcommaaccent;
lastChange = "2015-11-25 10:44:32 +0000";
layers = (
{
layerId = "CD587521-C2B1-4DF5-9394-E26F9987D7DC";
name = "SemiBold Italic";
paths = (
{
closed = 1;
nodes = (
"460 0 LINE",
"486 124 LINE",
"182 124 LINE",
"292 644 LINE",
"131 644 LINE",
"-5 0 LINE"
);
},
{
closed = 1;
nodes = (
"201 -250 LINE",
"300 -37 LINE",
"171 -37 LINE",
"93 -250 LINE"
);
}
);
width = 527;
}
);
note = Lcommaaccent;
rightKerningGroup = L;
unicode = 013B;
},
{
glyphname = Ldot;
lastChange = "2015-11-25 10:44:31 +0000";
layers = (
{
layerId = "CD587521-C2B1-4DF5-9394-E26F9987D7DC";
name = "SemiBold Italic";
paths = (
{
closed = 1;
nodes = (
"460 0 LINE",
"486 124 LINE",
"182 124 LINE",
"292 644 LINE",
"131 644 LINE",
"-5 0 LINE"
);
},
{
closed = 1;
nodes = (
"457 284 LINE",
"481 393 LINE",
"363 393 LINE",
"339 284 LINE"
);
}
);
width = 527;
}
);
note = Ldot;
rightKerningGroup = L;
unicode = 013F;
},
{
glyphname = Ldotbelow;
lastChange = "2015-11-25 10:44:30 +0000";
layers = (
{
layerId = "CD587521-C2B1-4DF5-9394-E26F9987D7DC";
name = "SemiBold Italic";
paths = (
{
closed = 1;
nodes = (
"460 0 LINE",
"486 124 LINE",
"182 124 LINE",
"292 644 LINE",
"131 644 LINE",
"-5 0 LINE"
);
},
{
closed = 1;
nodes = (
"241 -179 LINE",
"264 -70 LINE",
"146 -70 LINE",
"123 -179 LINE"
);
}
);
width = 527;
}
);
note = Ldotbelow;
rightKerningGroup = L;
unicode = 1E36;
},
{
glyphname = Ldotbelowmacron;
lastChange = "2015-11-25 10:46:06 +0000";
layers = (
{
layerId = "CD587521-C2B1-4DF5-9394-E26F9987D7DC";
name = "SemiBold Italic";
paths = (
{
closed = 1;
nodes = (
"460 0 LINE",
"486 124 LINE",
"182 124 LINE",
"292 644 LINE",
"131 644 LINE",
"-5 0 LINE"
);
},
{
closed = 1;
nodes = (
"241 -179 LINE",
"264 -70 LINE",
"146 -70 LINE",
"123 -179 LINE"
);
},
{
closed = 1;
nodes = (
"403 717 LINE",
"424 814 LINE",
"107 814 LINE",
"86 717 LINE"
);
}
);
width = 527;
}
);
note = Ldotbelowmacron;
rightKerningGroup = L;
unicode = 1E38;
},
{
glyphname = Llinebelow;
lastChange = "2015-11-25 10:44:31 +0000";
layers = (
{
layerId = "CD587521-C2B1-4DF5-9394-E26F9987D7DC";
name = "SemiBold Italic";
paths = (
{
closed = 1;
nodes = (
"460 0 LINE",
"486 124 LINE",
"182 124 LINE",
"292 644 LINE",
"131 644 LINE",
"-5 0 LINE"
);
},
{
closed = 1;
nodes = (
"345 -168 LINE",
"366 -70 LINE",
"49 -70 LINE",
"28 -168 LINE"
);
}
);
width = 527;
}
);
note = Llinebelow;
rightKerningGroup = L;
unicode = 1E3A;
},
{
glyphname = Lslash;
lastChange = "2015-11-25 10:44:27 +0000";
layers = (
{
layerId = "CD587521-C2B1-4DF5-9394-E26F9987D7DC";
name = "SemiBold Italic";
paths = (
{
closed = 1;
nodes = (
"460 0 LINE",
"486 124 LINE",
"182 124 LINE",
"223 320 LINE",
"339 366 LINE",
"364 481 LINE",
"247 434 LINE",
"292 644 LINE",
"131 644 LINE",
"71 364 LINE",
"-13 330 LINE",
"-38 215 LINE",
"47 249 LINE",
"-5 0 LINE"
);
}
);
width = 527;
}
);
note = Lslash;
rightKerningGroup = L;
unicode = 0141;
},
{
glyphname = M;
lastChange = "2015-11-25 10:44:27 +0000";
layers = (
{
layerId = "CD587521-C2B1-4DF5-9394-E26F9987D7DC";
name = "SemiBold Italic";
paths = (
{
closed = 1;
nodes = (
"156 0 LINE",
"234 370 LINE",
"307 110 LINE",
"396 110 LINE",
"578 370 LINE",
"500 0 LINE",
"661 0 LINE",
"797 644 LINE",
"633 644 LINE",
"384 287 LINE",
"284 644 LINE",
"131 644 LINE",
"-5 0 LINE"
);
}
);
width = 768;
}
);
note = M;
unicode = 004D;
},
{
glyphname = Mdotbelow;
lastChange = "2015-11-25 10:44:32 +0000";
layers = (
{
layerId = "CD587521-C2B1-4DF5-9394-E26F9987D7DC";
name = "SemiBold Italic";
paths = (
{
closed = 1;
nodes = (
"156 0 LINE",
"234 370 LINE",
"307 110 LINE",
"396 110 LINE",
"578 370 LINE",
"500 0 LINE",
"661 0 LINE",
"797 644 LINE",
"633 644 LINE",
"384 287 LINE",
"284 644 LINE",
"131 644 LINE",
"-5 0 LINE"
);
},
{
closed = 1;
nodes = (
"356 -179 LINE",
"379 -70 LINE",
"261 -70 LINE",
"238 -179 LINE"
);
}
);
width = 768;
}
);
note = Mdotbelow;
unicode = 1E42;
},
{
glyphname = N;
lastChange = "2015-11-25 10:44:27 +0000";
layers = (
{
layerId = "CD587521-C2B1-4DF5-9394-E26F9987D7DC";
name = "SemiBold Italic";
paths = (
{
closed = 1;
nodes = (
"156 0 LINE",
"237 384 LINE",
"430 0 LINE",
"569 0 LINE",
"705 644 LINE",
"543 644 LINE",
"462 259 LINE",
"269 644 LINE",
"131 644 LINE",
"-5 0 LINE"
);
}
);
width = 676;
}
);
note = N;
unicode = 004E;
},
{
glyphname = Nacute;
lastChange = "2015-11-25 10:44:30 +0000";
layers = (
{
layerId = "CD587521-C2B1-4DF5-9394-E26F9987D7DC";
name = "SemiBold Italic";
paths = (
{
closed = 1;
nodes = (
"156 0 LINE",
"237 384 LINE",
"430 0 LINE",
"569 0 LINE",
"705 644 LINE",
"543 644 LINE",
"462 259 LINE",
"269 644 LINE",
"131 644 LINE",
"-5 0 LINE"
);
},
{
closed = 1;
nodes = (
"473 688 LINE",
"607 884 LINE",
"475 884 LINE",
"349 688 LINE"
);
}
);
width = 676;
}
);
note = Nacute;
unicode = 0143;
},
{
glyphname = Ncaron;
lastChange = "2015-11-25 10:44:31 +0000";
layers = (
{
layerId = "CD587521-C2B1-4DF5-9394-E26F9987D7DC";
name = "SemiBold Italic";
paths = (
{
closed = 1;
nodes = (
"156 0 LINE",
"237 384 LINE",
"430 0 LINE",
"569 0 LINE",
"705 644 LINE",
"543 644 LINE",
"462 259 LINE",
"269 644 LINE",
"131 644 LINE",
"-5 0 LINE"
);
},
{
closed = 1;
nodes = (
"477 687 LINE",
"662 874 LINE",
"536 874 LINE",
"439 770 LINE",
"389 874 LINE",
"273 874 LINE",
"377 687 LINE"
);
}
);
width = 676;
}
);
note = Ncaron;
unicode = 0147;
},
{
glyphname = Ncommaaccent;
lastChange = "2015-11-25 10:44:31 +0000";
layers = (
{
layerId = "CD587521-C2B1-4DF5-9394-E26F9987D7DC";
name = "SemiBold Italic";
paths = (
{
closed = 1;
nodes = (
"156 0 LINE",
"237 384 LINE",
"430 0 LINE",
"569 0 LINE",
"705 644 LINE",
"543 644 LINE",
"462 259 LINE",
"269 644 LINE",
"131 644 LINE",
"-5 0 LINE"
);
},
{
closed = 1;
nodes = (
"249 -250 LINE",
"348 -37 LINE",
"219 -37 LINE",
"141 -250 LINE"
);
}
);
width = 676;
}
);
note = Ncommaaccent;
unicode = 0145;
},
{
glyphname = Ndotaccent;
lastChange = "2015-11-25 10:44:32 +0000";
layers = (
{
layerId = "CD587521-C2B1-4DF5-9394-E26F9987D7DC";
name = "SemiBold Italic";
paths = (
{
closed = 1;
nodes = (
"156 0 LINE",
"237 384 LINE",
"430 0 LINE",
"569 0 LINE",
"705 644 LINE",
"543 644 LINE",
"462 259 LINE",
"269 644 LINE",
"131 644 LINE",
"-5 0 LINE"
);
},
{
closed = 1;
nodes = (
"493 714 LINE",
"517 823 LINE",
"400 823 LINE",
"376 714 LINE"
);
}
);
width = 676;
}
);
note = Ndotaccent;
unicode = 1E44;
},
{
glyphname = Ndotbelow;
lastChange = "2015-11-25 10:44:30 +0000";
layers = (
{
layerId = "CD587521-C2B1-4DF5-9394-E26F9987D7DC";
name = "SemiBold Italic";
paths = (
{
closed = 1;
nodes = (
"156 0 LINE",
"237 384 LINE",
"430 0 LINE",
"569 0 LINE",
"705 644 LINE",
"543 644 LINE",
"462 259 LINE",
"269 644 LINE",
"131 644 LINE",
"-5 0 LINE"
);
},
{
closed = 1;
nodes = (
"304 -179 LINE",
"327 -70 LINE",
"209 -70 LINE",
"186 -179 LINE"
);
}
);
width = 676;
}
);
note = Ndotbelow;
unicode = 1E46;
},
{
glyphname = Eng;
lastChange = "2015-11-25 10:44:27 +0000";
layers = (
{
layerId = "CD587521-C2B1-4DF5-9394-E26F9987D7DC";
name = "SemiBold Italic";
paths = (
{
closed = 1;
nodes = (
"464 -234 OFFCURVE",
"533 -167 OFFCURVE",
"554 -69 CURVE SMOOTH",
"705 644 LINE",
"543 644 LINE",
"462 259 LINE",
"269 644 LINE",
"131 644 LINE",
"-5 0 LINE",
"156 0 LINE",
"237 384 LINE",
"413 32 LINE",
"395 -55 LINE SMOOTH",
"386 -97 OFFCURVE",
"361 -117 OFFCURVE",
"312 -117 CURVE SMOOTH",
"294 -117 OFFCURVE",
"273 -114 OFFCURVE",
"254 -107 CURVE",
"231 -214 LINE",
"261 -228 OFFCURVE",
"298 -234 OFFCURVE",
"345 -234 CURVE SMOOTH"
);
}
);
width = 676;
}
);
note = Eng;
unicode = 014A;
},
{
glyphname = Nlinebelow;
lastChange = "2015-11-25 10:44:31 +0000";
layers = (
{
layerId = "CD587521-C2B1-4DF5-9394-E26F9987D7DC";
name = "SemiBold Italic";
paths = (
{
closed = 1;
nodes = (
"156 0 LINE",
"237 384 LINE",
"430 0 LINE",
"569 0 LINE",
"705 644 LINE",
"543 644 LINE",
"462 259 LINE",
"269 644 LINE",
"131 644 LINE",
"-5 0 LINE"
);
},
{
closed = 1;
nodes = (
"409 -166 LINE",
"430 -68 LINE",
"113 -68 LINE",
"92 -166 LINE"
);
}
);
width = 676;
}
);
note = Nlinebelow;
unicode = 1E48;
},
{
glyphname = Ntilde;
lastChange = "2015-11-25 10:44:31 +0000";
layers = (
{
layerId = "CD587521-C2B1-4DF5-9394-E26F9987D7DC";
name = "SemiBold Italic";
paths = (
{
closed = 1;
nodes = (
"156 0 LINE",
"237 384 LINE",
"430 0 LINE",
"569 0 LINE",
"705 644 LINE",
"543 644 LINE",
"462 259 LINE",
"269 644 LINE",
"131 644 LINE",
"-5 0 LINE"
);
},
{
closed = 1;
nodes = (
"567 698 OFFCURVE",
"603 712 OFFCURVE",
"620 730 CURVE",
"643 838 LINE",
"621 814 OFFCURVE",
"588 799 OFFCURVE",
"548 799 CURVE SMOOTH",
"489 799 OFFCURVE",
"450 840 OFFCURVE",
"386 840 CURVE SMOOTH",
"349 840 OFFCURVE",
"311 826 OFFCURVE",
"288 808 CURVE",
"265 701 LINE",
"294 725 OFFCURVE",
"328 739 OFFCURVE",
"367 739 CURVE SMOOTH",
"419 739 OFFCURVE",
"467 698 OFFCURVE",
"529 698 CURVE SMOOTH"
);
}
);
width = 676;
}
);
note = Ntilde;
unicode = 00D1;
},
{
glyphname = O;
lastChange = "2015-11-25 10:44:30 +0000";
layers = (
{
layerId = "CD587521-C2B1-4DF5-9394-E26F9987D7DC";
name = "SemiBold Italic";
paths = (
{
closed = 1;
nodes = (
"512 -10 OFFCURVE",
"636 93 OFFCURVE",
"684 319 CURVE SMOOTH",
"733 550 OFFCURVE",
"627 654 OFFCURVE",
"435 654 CURVE SMOOTH",
"215 654 OFFCURVE",
"93 557 OFFCURVE",
"42 319 CURVE SMOOTH",
"-6 97 OFFCURVE",
"101 -10 OFFCURVE",
"293 -10 CURVE SMOOTH"
);
},
{
closed = 1;
nodes = (
"201 127 OFFCURVE",
"178 180 OFFCURVE",
"206 319 CURVE SMOOTH",
"237 463 OFFCURVE",
"296 516 OFFCURVE",
"405 516 CURVE SMOOTH",
"523 516 OFFCURVE",
"551 469 OFFCURVE",
"519 319 CURVE SMOOTH",
"491 187 OFFCURVE",
"430 127 OFFCURVE",
"322 127 CURVE SMOOTH"
);
}
);
width = 704;
}
);
leftKerningGroup = O;
note = O;
rightKerningGroup = O;
unicode = 004F;
},
{
glyphname = Oacute;
lastChange = "2015-11-25 10:44:32 +0000";
layers = (
{
layerId = "CD587521-C2B1-4DF5-9394-E26F9987D7DC";
name = "SemiBold Italic";
paths = (
{
closed = 1;
nodes = (
"512 -10 OFFCURVE",
"636 93 OFFCURVE",
"684 319 CURVE SMOOTH",
"733 550 OFFCURVE",
"627 654 OFFCURVE",
"435 654 CURVE SMOOTH",
"215 654 OFFCURVE",
"93 557 OFFCURVE",
"42 319 CURVE SMOOTH",
"-6 97 OFFCURVE",
"101 -10 OFFCURVE",
"293 -10 CURVE SMOOTH"
);
},
{
closed = 1;
nodes = (
"201 127 OFFCURVE",
"178 180 OFFCURVE",
"206 319 CURVE SMOOTH",
"237 463 OFFCURVE",
"296 516 OFFCURVE",
"405 516 CURVE SMOOTH",
"523 516 OFFCURVE",
"551 469 OFFCURVE",
"519 319 CURVE SMOOTH",
"491 187 OFFCURVE",
"430 127 OFFCURVE",
"322 127 CURVE SMOOTH"
);
},
{
closed = 1;
nodes = (
"493 688 LINE",
"627 884 LINE",
"495 884 LINE",
"369 688 LINE"
);
}
);
width = 704;
}
);
leftKerningGroup = O;
note = Oacute;
rightKerningGroup = O;
unicode = 00D3;
},
{
glyphname = Obreve;
lastChange = "2015-11-25 10:44:31 +0000";
layers = (
{
layerId = "CD587521-C2B1-4DF5-9394-E26F9987D7DC";
name = "SemiBold Italic";
paths = (
{
closed = 1;
nodes = (
"512 -10 OFFCURVE",
"636 93 OFFCURVE",
"684 319 CURVE SMOOTH",
"733 550 OFFCURVE",
"627 654 OFFCURVE",
"435 654 CURVE SMOOTH",
"215 654 OFFCURVE",
"93 557 OFFCURVE",
"42 319 CURVE SMOOTH",
"-6 97 OFFCURVE",
"101 -10 OFFCURVE",
"293 -10 CURVE SMOOTH"
);
},
{
closed = 1;
nodes = (
"201 127 OFFCURVE",
"178 180 OFFCURVE",
"206 319 CURVE SMOOTH",
"237 463 OFFCURVE",
"296 516 OFFCURVE",
"405 516 CURVE SMOOTH",
"523 516 OFFCURVE",
"551 469 OFFCURVE",
"519 319 CURVE SMOOTH",
"491 187 OFFCURVE",
"430 127 OFFCURVE",
"322 127 CURVE SMOOTH"
);
},
{
closed = 1;
nodes = (
"553 688 OFFCURVE",
"628 750 OFFCURVE",
"651 860 CURVE",
"539 860 LINE",
"530 814 OFFCURVE",
"502 778 OFFCURVE",
"453 778 CURVE SMOOTH",
"401 778 OFFCURVE",
"392 809 OFFCURVE",
"403 860 CURVE",
"304 860 LINE",
"281 750 OFFCURVE",
"338 688 OFFCURVE",
"440 688 CURVE SMOOTH"
);
}
);
width = 704;
}
);
leftKerningGroup = O;
note = Obreve;
rightKerningGroup = O;
unicode = 014E;
},
{
glyphname = Ocaron;
lastChange = "2015-11-25 10:44:32 +0000";
layers = (
{
layerId = "CD587521-C2B1-4DF5-9394-E26F9987D7DC";
name = "SemiBold Italic";
paths = (
{
closed = 1;
nodes = (
"512 -10 OFFCURVE",
"636 93 OFFCURVE",
"684 319 CURVE SMOOTH",
"733 550 OFFCURVE",
"627 654 OFFCURVE",
"435 654 CURVE SMOOTH",
"215 654 OFFCURVE",
"93 557 OFFCURVE",
"42 319 CURVE SMOOTH",
"-6 97 OFFCURVE",
"101 -10 OFFCURVE",
"293 -10 CURVE SMOOTH"
);
},
{
closed = 1;
nodes = (
"201 127 OFFCURVE",
"178 180 OFFCURVE",
"206 319 CURVE SMOOTH",
"237 463 OFFCURVE",
"296 516 OFFCURVE",
"405 516 CURVE SMOOTH",
"523 516 OFFCURVE",
"551 469 OFFCURVE",
"519 319 CURVE SMOOTH",
"491 187 OFFCURVE",
"430 127 OFFCURVE",
"322 127 CURVE SMOOTH"
);
},
{
closed = 1;
nodes = (
"490 688 LINE",
"675 875 LINE",
"549 875 LINE",
"452 771 LINE",
"402 875 LINE",
"286 875 LINE",
"390 688 LINE"
);
}
);
width = 704;
}
);
leftKerningGroup = O;
note = Ocaron;
rightKerningGroup = O;
unicode = 01D1;
},
{
glyphname = Ocircumflex;
lastChange = "2015-11-25 10:44:32 +0000";
layers = (
{
layerId = "CD587521-C2B1-4DF5-9394-E26F9987D7DC";
name = "SemiBold Italic";
paths = (
{
closed = 1;
nodes = (
"512 -10 OFFCURVE",
"636 93 OFFCURVE",
"684 319 CURVE SMOOTH",
"733 550 OFFCURVE",
"627 654 OFFCURVE",
"435 654 CURVE SMOOTH",
"215 654 OFFCURVE",
"93 557 OFFCURVE",
"42 319 CURVE SMOOTH",
"-6 97 OFFCURVE",
"101 -10 OFFCURVE",
"293 -10 CURVE SMOOTH"
);
},
{
closed = 1;
nodes = (
"201 127 OFFCURVE",
"178 180 OFFCURVE",
"206 319 CURVE SMOOTH",
"237 463 OFFCURVE",
"296 516 OFFCURVE",
"405 516 CURVE SMOOTH",
"523 516 OFFCURVE",
"551 469 OFFCURVE",
"519 319 CURVE SMOOTH",
"491 187 OFFCURVE",
"430 127 OFFCURVE",
"322 127 CURVE SMOOTH"
);
},
{
closed = 1;
nodes = (
"375 687 LINE",
"469 791 LINE",
"522 687 LINE",
"636 687 LINE",
"531 874 LINE",
"431 874 LINE",
"247 687 LINE"
);
}
);
width = 704;
}
);
leftKerningGroup = O;
note = Ocircumflex;
rightKerningGroup = O;
unicode = 00D4;
},
{
glyphname = Ocircumflexacute;
lastChange = "2015-11-25 10:44:31 +0000";
layers = (
{
layerId = "CD587521-C2B1-4DF5-9394-E26F9987D7DC";
name = "SemiBold Italic";
paths = (
{
closed = 1;
nodes = (
"512 -10 OFFCURVE",
"636 93 OFFCURVE",
"684 319 CURVE SMOOTH",
"733 550 OFFCURVE",
"627 654 OFFCURVE",
"435 654 CURVE SMOOTH",
"215 654 OFFCURVE",
"93 557 OFFCURVE",
"42 319 CURVE SMOOTH",
"-6 97 OFFCURVE",
"101 -10 OFFCURVE",
"293 -10 CURVE SMOOTH"
);
},
{
closed = 1;
nodes = (
"201 127 OFFCURVE",
"178 180 OFFCURVE",
"206 319 CURVE SMOOTH",
"237 463 OFFCURVE",
"296 516 OFFCURVE",
"405 516 CURVE SMOOTH",
"523 516 OFFCURVE",
"551 469 OFFCURVE",
"519 319 CURVE SMOOTH",
"491 187 OFFCURVE",
"430 127 OFFCURVE",
"322 127 CURVE SMOOTH"
);
},
{
closed = 1;
nodes = (
"381 688 LINE",
"463 768 LINE",
"511 688 LINE",
"635 688 LINE",
"531 832 LINE",
"410 832 LINE",
"246 688 LINE"
);
},
{
closed = 1;
nodes = (
"691 809 LINE",
"797 958 LINE",
"677 958 LINE",
"578 809 LINE"
);
}
);
width = 704;
}
);
leftKerningGroup = O;
note = Ocircumflexacute;
rightKerningGroup = O;
unicode = 1ED0;
},
{
glyphname = Ocircumflexdotbelow;
lastChange = "2015-11-25 10:46:24 +0000";
layers = (
{
layerId = "CD587521-C2B1-4DF5-9394-E26F9987D7DC";
name = "SemiBold Italic";
paths = (
{
closed = 1;
nodes = (
"512 -10 OFFCURVE",
"636 93 OFFCURVE",
"684 319 CURVE SMOOTH",
"733 550 OFFCURVE",
"627 654 OFFCURVE",
"435 654 CURVE SMOOTH",
"215 654 OFFCURVE",
"93 557 OFFCURVE",
"42 319 CURVE SMOOTH",
"-6 97 OFFCURVE",
"101 -10 OFFCURVE",
"293 -10 CURVE SMOOTH"
);
},
{
closed = 1;
nodes = (
"201 127 OFFCURVE",
"178 180 OFFCURVE",
"206 319 CURVE SMOOTH",
"237 463 OFFCURVE",
"296 516 OFFCURVE",
"405 516 CURVE SMOOTH",
"523 516 OFFCURVE",
"551 469 OFFCURVE",
"519 319 CURVE SMOOTH",
"491 187 OFFCURVE",
"430 127 OFFCURVE",
"322 127 CURVE SMOOTH"
);
},
{
closed = 1;
nodes = (
"316 -179 LINE",
"339 -70 LINE",
"221 -70 LINE",
"198 -179 LINE"
);
},
{
closed = 1;
nodes = (
"375 689 LINE",
"469 793 LINE",
"522 689 LINE",
"636 689 LINE",
"531 876 LINE",
"431 876 LINE",
"247 689 LINE"
);
}
);
width = 704;
}
);
leftKerningGroup = O;
note = Ocircumflexdotbelow;
rightKerningGroup = O;
unicode = 1ED8;
},
{
glyphname = Ocircumflexgrave;
lastChange = "2015-11-25 10:44:31 +0000";
layers = (
{
layerId = "CD587521-C2B1-4DF5-9394-E26F9987D7DC";
name = "SemiBold Italic";
paths = (
{
closed = 1;
nodes = (
"512 -10 OFFCURVE",
"636 93 OFFCURVE",
"684 319 CURVE SMOOTH",
"733 550 OFFCURVE",
"627 654 OFFCURVE",
"435 654 CURVE SMOOTH",
"215 654 OFFCURVE",
"93 557 OFFCURVE",
"42 319 CURVE SMOOTH",
"-6 97 OFFCURVE",
"101 -10 OFFCURVE",
"293 -10 CURVE SMOOTH"
);
},
{
closed = 1;
nodes = (
"201 127 OFFCURVE",
"178 180 OFFCURVE",
"206 319 CURVE SMOOTH",
"237 463 OFFCURVE",
"296 516 OFFCURVE",
"405 516 CURVE SMOOTH",
"523 516 OFFCURVE",
"551 469 OFFCURVE",
"519 319 CURVE SMOOTH",
"491 187 OFFCURVE",
"430 127 OFFCURVE",
"322 127 CURVE SMOOTH"
);
},
{
closed = 1;
nodes = (
"356 809 LINE",
"318 958 LINE",
"198 958 LINE",
"242 809 LINE"
);
},
{
closed = 1;
nodes = (
"381 688 LINE",
"463 768 LINE",
"511 688 LINE",
"635 688 LINE",
"531 832 LINE",
"410 832 LINE",
"246 688 LINE"
);
}
);
width = 704;
}
);
leftKerningGroup = O;
note = Ocircumflexgrave;
rightKerningGroup = O;
unicode = 1ED2;
},
{
glyphname = Ocircumflexhookabove;
lastChange = "2015-11-25 10:44:32 +0000";
layers = (
{
layerId = "CD587521-C2B1-4DF5-9394-E26F9987D7DC";
name = "SemiBold Italic";
paths = (
{
closed = 1;
nodes = (
"512 -10 OFFCURVE",
"636 93 OFFCURVE",
"684 319 CURVE SMOOTH",
"733 550 OFFCURVE",
"627 654 OFFCURVE",
"435 654 CURVE SMOOTH",
"215 654 OFFCURVE",
"93 557 OFFCURVE",
"42 319 CURVE SMOOTH",
"-6 97 OFFCURVE",
"101 -10 OFFCURVE",
"293 -10 CURVE SMOOTH"
);
},
{
closed = 1;
nodes = (
"201 127 OFFCURVE",
"178 180 OFFCURVE",
"206 319 CURVE SMOOTH",
"237 463 OFFCURVE",
"296 516 OFFCURVE",
"405 516 CURVE SMOOTH",
"523 516 OFFCURVE",
"551 469 OFFCURVE",
"519 319 CURVE SMOOTH",
"491 187 OFFCURVE",
"430 127 OFFCURVE",
"322 127 CURVE SMOOTH"
);
},
{
closed = 1;
nodes = (
"381 688 LINE",
"463 768 LINE",
"511 688 LINE",
"635 688 LINE",
"531 832 LINE",
"410 832 LINE",
"246 688 LINE"
);
},
{
closed = 1;
nodes = (
"691 787 LINE",
"698 820 LINE",
"751 828 OFFCURVE",
"780 857 OFFCURVE",
"789 902 CURVE SMOOTH",
"800 952 OFFCURVE",
"768 985 OFFCURVE",
"692 985 CURVE SMOOTH",
"654 985 OFFCURVE",
"624 980 OFFCURVE",
"599 973 CURVE",
"585 906 LINE",
"601 912 OFFCURVE",
"620 916 OFFCURVE",
"639 916 CURVE SMOOTH",
"667 916 OFFCURVE",
"681 909 OFFCURVE",
"677 891 CURVE SMOOTH",
"673 872 OFFCURVE",
"657 860 OFFCURVE",
"598 858 CURVE",
"583 787 LINE"
);
}
);
width = 704;
}
);
leftKerningGroup = O;
note = Ocircumflexhookabove;
rightKerningGroup = O;
unicode = 1ED4;
},
{
glyphname = Ocircumflextilde;
lastChange = "2015-11-25 10:44:31 +0000";
layers = (
{
layerId = "CD587521-C2B1-4DF5-9394-E26F9987D7DC";
name = "SemiBold Italic";
paths = (
{
closed = 1;
nodes = (
"512 -10 OFFCURVE",
"636 93 OFFCURVE",
"684 319 CURVE SMOOTH",
"733 550 OFFCURVE",
"627 654 OFFCURVE",
"435 654 CURVE SMOOTH",
"215 654 OFFCURVE",
"93 557 OFFCURVE",
"42 319 CURVE SMOOTH",
"-6 97 OFFCURVE",
"101 -10 OFFCURVE",
"293 -10 CURVE SMOOTH"
);
},
{
closed = 1;
nodes = (
"201 127 OFFCURVE",
"178 180 OFFCURVE",
"206 319 CURVE SMOOTH",
"237 463 OFFCURVE",
"296 516 OFFCURVE",
"405 516 CURVE SMOOTH",
"523 516 OFFCURVE",
"551 469 OFFCURVE",
"519 319 CURVE SMOOTH",
"491 187 OFFCURVE",
"430 127 OFFCURVE",
"322 127 CURVE SMOOTH"
);
},
{
closed = 1;
nodes = (
"552 688 OFFCURVE",
"625 736 OFFCURVE",
"649 852 CURVE",
"553 852 LINE",
"542 800 OFFCURVE",
"507 769 OFFCURVE",
"456 769 CURVE SMOOTH",
"393 769 OFFCURVE",
"381 795 OFFCURVE",
"392 852 CURVE",
"303 852 LINE",
"279 736 OFFCURVE",
"341 688 OFFCURVE",
"442 688 CURVE SMOOTH"
);
},
{
closed = 1;
nodes = (
"608 870 OFFCURVE",
"643 884 OFFCURVE",
"660 902 CURVE",
"678 994 LINE",
"657 970 OFFCURVE",
"624 955 OFFCURVE",
"585 955 CURVE SMOOTH",
"527 955 OFFCURVE",
"488 996 OFFCURVE",
"425 996 CURVE SMOOTH",
"389 996 OFFCURVE",
"351 982 OFFCURVE",
"329 964 CURVE",
"310 873 LINE",
"338 897 OFFCURVE",
"371 910 OFFCURVE",
"410 910 CURVE SMOOTH",
"462 910 OFFCURVE",
"509 870 OFFCURVE",
"570 870 CURVE SMOOTH"
);
}
);
width = 704;
}
);
leftKerningGroup = O;
note = Ocircumflextilde;
rightKerningGroup = O;
unicode = 1ED6;
},
{
glyphname = Odieresis;
lastChange = "2015-11-25 10:44:31 +0000";
layers = (
{
layerId = "CD587521-C2B1-4DF5-9394-E26F9987D7DC";
name = "SemiBold Italic";
paths = (
{
closed = 1;
nodes = (
"512 -10 OFFCURVE",
"636 93 OFFCURVE",
"684 319 CURVE SMOOTH",
"733 550 OFFCURVE",
"627 654 OFFCURVE",
"435 654 CURVE SMOOTH",
"215 654 OFFCURVE",
"93 557 OFFCURVE",
"42 319 CURVE SMOOTH",
"-6 97 OFFCURVE",
"101 -10 OFFCURVE",
"293 -10 CURVE SMOOTH"
);
},
{
closed = 1;
nodes = (
"201 127 OFFCURVE",
"178 180 OFFCURVE",
"206 319 CURVE SMOOTH",
"237 463 OFFCURVE",
"296 516 OFFCURVE",
"405 516 CURVE SMOOTH",
"523 516 OFFCURVE",
"551 469 OFFCURVE",
"519 319 CURVE SMOOTH",
"491 187 OFFCURVE",
"430 127 OFFCURVE",
"322 127 CURVE SMOOTH"
);
},
{
closed = 1;
nodes = (
"402 714 LINE",
"426 823 LINE",
"309 823 LINE",
"285 714 LINE"
);
},
{
closed = 1;
nodes = (
"608 714 LINE",
"632 823 LINE",
"514 823 LINE",
"490 714 LINE"
);
}
);
width = 704;
}
);
leftKerningGroup = O;
note = Odieresis;
rightKerningGroup = O;
unicode = 00D6;
},
{
glyphname = Odotbelow;
lastChange = "2015-11-25 10:46:32 +0000";
layers = (
{
layerId = "CD587521-C2B1-4DF5-9394-E26F9987D7DC";
name = "SemiBold Italic";
paths = (
{
closed = 1;
nodes = (
"512 -10 OFFCURVE",
"636 93 OFFCURVE",
"684 319 CURVE SMOOTH",
"733 550 OFFCURVE",
"627 654 OFFCURVE",
"435 654 CURVE SMOOTH",
"215 654 OFFCURVE",
"93 557 OFFCURVE",
"42 319 CURVE SMOOTH",
"-6 97 OFFCURVE",
"101 -10 OFFCURVE",
"293 -10 CURVE SMOOTH"
);
},
{
closed = 1;
nodes = (
"201 127 OFFCURVE",
"178 180 OFFCURVE",
"206 319 CURVE SMOOTH",
"237 463 OFFCURVE",
"296 516 OFFCURVE",
"405 516 CURVE SMOOTH",
"523 516 OFFCURVE",
"551 469 OFFCURVE",
"519 319 CURVE SMOOTH",
"491 187 OFFCURVE",
"430 127 OFFCURVE",
"322 127 CURVE SMOOTH"
);
},
{
closed = 1;
nodes = (
"317 -179 LINE",
"340 -70 LINE",
"222 -70 LINE",
"199 -179 LINE"
);
}
);
width = 704;
}
);
leftKerningGroup = O;
note = Odotbelow;
rightKerningGroup = O;
unicode = 1ECC;
},
{
glyphname = Ograve;
lastChange = "2015-11-25 10:44:30 +0000";
layers = (
{
layerId = "CD587521-C2B1-4DF5-9394-E26F9987D7DC";
name = "SemiBold Italic";
paths = (
{
closed = 1;
nodes = (
"512 -10 OFFCURVE",
"636 93 OFFCURVE",
"684 319 CURVE SMOOTH",
"733 550 OFFCURVE",
"627 654 OFFCURVE",
"435 654 CURVE SMOOTH",
"215 654 OFFCURVE",
"93 557 OFFCURVE",
"42 319 CURVE SMOOTH",
"-6 97 OFFCURVE",
"101 -10 OFFCURVE",
"293 -10 CURVE SMOOTH"
);
},
{
closed = 1;
nodes = (
"201 127 OFFCURVE",
"178 180 OFFCURVE",
"206 319 CURVE SMOOTH",
"237 463 OFFCURVE",
"296 516 OFFCURVE",
"405 516 CURVE SMOOTH",
"523 516 OFFCURVE",
"551 469 OFFCURVE",
"519 319 CURVE SMOOTH",
"491 187 OFFCURVE",
"430 127 OFFCURVE",
"322 127 CURVE SMOOTH"
);
},
{
closed = 1;
nodes = (
"509 688 LINE",
"467 884 LINE",
"335 884 LINE",
"386 688 LINE"
);
}
);
width = 704;
}
);
leftKerningGroup = O;
note = Ograve;
rightKerningGroup = O;
unicode = 00D2;
},
{
glyphname = Ohookabove;
lastChange = "2015-11-25 10:44:31 +0000";
layers = (
{
layerId = "CD587521-C2B1-4DF5-9394-E26F9987D7DC";
name = "SemiBold Italic";
paths = (
{
closed = 1;
nodes = (
"512 -10 OFFCURVE",
"636 93 OFFCURVE",
"684 319 CURVE SMOOTH",
"733 550 OFFCURVE",
"627 654 OFFCURVE",
"435 654 CURVE SMOOTH",
"215 654 OFFCURVE",
"93 557 OFFCURVE",
"42 319 CURVE SMOOTH",
"-6 97 OFFCURVE",
"101 -10 OFFCURVE",
"293 -10 CURVE SMOOTH"
);
},
{
closed = 1;
nodes = (
"201 127 OFFCURVE",
"178 180 OFFCURVE",
"206 319 CURVE SMOOTH",
"237 463 OFFCURVE",
"296 516 OFFCURVE",
"405 516 CURVE SMOOTH",
"523 516 OFFCURVE",
"551 469 OFFCURVE",
"519 319 CURVE SMOOTH",
"491 187 OFFCURVE",
"430 127 OFFCURVE",
"322 127 CURVE SMOOTH"
);
},
{
closed = 1;
nodes = (
"501 688 LINE",
"510 732 LINE",
"572 746 OFFCURVE",
"603 772 OFFCURVE",
"616 829 CURVE SMOOTH",
"628 888 OFFCURVE",
"589 928 OFFCURVE",
"501 928 CURVE SMOOTH",
"458 928 OFFCURVE",
"419 923 OFFCURVE",
"391 914 CURVE",
"375 842 LINE",
"392 847 OFFCURVE",
"418 851 OFFCURVE",
"437 851 CURVE SMOOTH",
"478 851 OFFCURVE",
"500 840 OFFCURVE",
"495 815 CURVE SMOOTH",
"489 788 OFFCURVE",
"468 773 OFFCURVE",
"396 769 CURVE",
"379 688 LINE"
);
}
);
width = 704;
}
);
leftKerningGroup = O;
note = Ohookabove;
rightKerningGroup = O;
unicode = 1ECE;
},
{
glyphname = Ohorn;
lastChange = "2015-11-25 10:44:31 +0000";
layers = (
{
layerId = "CD587521-C2B1-4DF5-9394-E26F9987D7DC";
name = "SemiBold Italic";
paths = (
{
closed = 1;
nodes = (
"512 -10 OFFCURVE",
"636 93 OFFCURVE",
"684 319 CURVE SMOOTH",
"698 385 OFFCURVE",
"699 440 OFFCURVE",
"689 486 CURVE",
"785 505 OFFCURVE",
"843 559 OFFCURVE",
"871 688 CURVE",
"756 688 LINE",
"740 612 OFFCURVE",
"711 585 OFFCURVE",
"639 585 CURVE",
"594 631 OFFCURVE",
"523 654 OFFCURVE",
"435 654 CURVE SMOOTH",
"215 654 OFFCURVE",
"93 557 OFFCURVE",
"42 319 CURVE SMOOTH",
"-6 97 OFFCURVE",
"101 -10 OFFCURVE",
"293 -10 CURVE SMOOTH"
);
},
{
closed = 1;
nodes = (
"201 127 OFFCURVE",
"178 180 OFFCURVE",
"206 319 CURVE SMOOTH",
"237 463 OFFCURVE",
"296 516 OFFCURVE",
"405 516 CURVE SMOOTH",
"523 516 OFFCURVE",
"551 469 OFFCURVE",
"519 319 CURVE SMOOTH",
"491 187 OFFCURVE",
"430 127 OFFCURVE",
"322 127 CURVE SMOOTH"
);
}
);
width = 785;
}
);
leftKerningGroup = O;
note = Ohorn;
rightKerningGroup = O;
unicode = 01A0;
},
{
glyphname = Ohornacute;
lastChange = "2015-11-25 10:44:32 +0000";
layers = (
{
layerId = "CD587521-C2B1-4DF5-9394-E26F9987D7DC";
name = "SemiBold Italic";
paths = (
{
closed = 1;
nodes = (
"512 -10 OFFCURVE",
"636 93 OFFCURVE",
"684 319 CURVE SMOOTH",
"698 385 OFFCURVE",
"699 440 OFFCURVE",
"689 486 CURVE",
"785 505 OFFCURVE",
"843 559 OFFCURVE",
"871 688 CURVE",
"756 688 LINE",
"740 612 OFFCURVE",
"711 585 OFFCURVE",
"639 585 CURVE",
"594 631 OFFCURVE",
"523 654 OFFCURVE",
"435 654 CURVE SMOOTH",
"215 654 OFFCURVE",
"93 557 OFFCURVE",
"42 319 CURVE SMOOTH",
"-6 97 OFFCURVE",
"101 -10 OFFCURVE",
"293 -10 CURVE SMOOTH"
);
},
{
closed = 1;
nodes = (
"201 127 OFFCURVE",
"178 180 OFFCURVE",
"206 319 CURVE SMOOTH",
"237 463 OFFCURVE",
"296 516 OFFCURVE",
"405 516 CURVE SMOOTH",
"523 516 OFFCURVE",
"551 469 OFFCURVE",
"519 319 CURVE SMOOTH",
"491 187 OFFCURVE",
"430 127 OFFCURVE",
"322 127 CURVE SMOOTH"
);
},
{
closed = 1;
nodes = (
"505 688 LINE",
"639 884 LINE",
"507 884 LINE",
"381 688 LINE"
);
}
);
width = 785;
}
);
leftKerningGroup = O;
note = Ohornacute;
rightKerningGroup = O;
unicode = 1EDA;
},
{
glyphname = Ohorndotbelow;
lastChange = "2015-11-25 10:46:37 +0000";
layers = (
{
layerId = "CD587521-C2B1-4DF5-9394-E26F9987D7DC";
name = "SemiBold Italic";
paths = (
{
closed = 1;
nodes = (
"512 -10 OFFCURVE",
"636 93 OFFCURVE",
"684 319 CURVE SMOOTH",
"698 385 OFFCURVE",
"699 440 OFFCURVE",
"689 486 CURVE",
"785 505 OFFCURVE",
"843 559 OFFCURVE",
"871 688 CURVE",
"756 688 LINE",
"740 612 OFFCURVE",
"711 585 OFFCURVE",
"639 585 CURVE",
"594 631 OFFCURVE",
"523 654 OFFCURVE",
"435 654 CURVE SMOOTH",
"215 654 OFFCURVE",
"93 557 OFFCURVE",
"42 319 CURVE SMOOTH",
"-6 97 OFFCURVE",
"101 -10 OFFCURVE",
"293 -10 CURVE SMOOTH"
);
},
{
closed = 1;
nodes = (
"201 127 OFFCURVE",
"178 180 OFFCURVE",
"206 319 CURVE SMOOTH",
"237 463 OFFCURVE",
"296 516 OFFCURVE",
"405 516 CURVE SMOOTH",
"523 516 OFFCURVE",
"551 469 OFFCURVE",
"519 319 CURVE SMOOTH",
"491 187 OFFCURVE",
"430 127 OFFCURVE",
"322 127 CURVE SMOOTH"
);
},
{
closed = 1;
nodes = (
"318 -179 LINE",
"341 -70 LINE",
"223 -70 LINE",
"200 -179 LINE"
);
}
);
width = 785;
}
);
leftKerningGroup = O;
note = Ohorndotbelow;
rightKerningGroup = O;
unicode = 1EE2;
},
{
glyphname = Ohorngrave;
lastChange = "2015-11-25 10:44:31 +0000";
layers = (
{
layerId = "CD587521-C2B1-4DF5-9394-E26F9987D7DC";
name = "SemiBold Italic";
paths = (
{
closed = 1;
nodes = (
"512 -10 OFFCURVE",
"636 93 OFFCURVE",
"684 319 CURVE SMOOTH",
"698 385 OFFCURVE",
"699 440 OFFCURVE",
"689 486 CURVE",
"785 505 OFFCURVE",
"843 559 OFFCURVE",
"871 688 CURVE",
"756 688 LINE",
"740 612 OFFCURVE",
"711 585 OFFCURVE",
"639 585 CURVE",
"594 631 OFFCURVE",
"523 654 OFFCURVE",
"435 654 CURVE SMOOTH",
"215 654 OFFCURVE",
"93 557 OFFCURVE",
"42 319 CURVE SMOOTH",
"-6 97 OFFCURVE",
"101 -10 OFFCURVE",
"293 -10 CURVE SMOOTH"
);
},
{
closed = 1;
nodes = (
"201 127 OFFCURVE",
"178 180 OFFCURVE",
"206 319 CURVE SMOOTH",
"237 463 OFFCURVE",
"296 516 OFFCURVE",
"405 516 CURVE SMOOTH",
"523 516 OFFCURVE",
"551 469 OFFCURVE",
"519 319 CURVE SMOOTH",
"491 187 OFFCURVE",
"430 127 OFFCURVE",
"322 127 CURVE SMOOTH"
);
},
{
closed = 1;
nodes = (
"520 688 LINE",
"478 884 LINE",
"346 884 LINE",
"397 688 LINE"
);
}
);
width = 785;
}
);
leftKerningGroup = O;
note = Ohorngrave;
rightKerningGroup = O;
unicode = 1EDC;
},
{
glyphname = Ohornhookabove;
lastChange = "2015-11-25 10:44:31 +0000";
layers = (
{
layerId = "CD587521-C2B1-4DF5-9394-E26F9987D7DC";
name = "SemiBold Italic";
paths = (
{
closed = 1;
nodes = (
"512 -10 OFFCURVE",
"636 93 OFFCURVE",
"684 319 CURVE SMOOTH",
"698 385 OFFCURVE",
"699 440 OFFCURVE",
"689 486 CURVE",
"785 505 OFFCURVE",
"843 559 OFFCURVE",
"871 688 CURVE",
"756 688 LINE",
"740 612 OFFCURVE",
"711 585 OFFCURVE",
"639 585 CURVE",
"594 631 OFFCURVE",
"523 654 OFFCURVE",
"435 654 CURVE SMOOTH",
"215 654 OFFCURVE",
"93 557 OFFCURVE",
"42 319 CURVE SMOOTH",
"-6 97 OFFCURVE",
"101 -10 OFFCURVE",
"293 -10 CURVE SMOOTH"
);
},
{
closed = 1;
nodes = (
"201 127 OFFCURVE",
"178 180 OFFCURVE",
"206 319 CURVE SMOOTH",
"237 463 OFFCURVE",
"296 516 OFFCURVE",
"405 516 CURVE SMOOTH",
"523 516 OFFCURVE",
"551 469 OFFCURVE",
"519 319 CURVE SMOOTH",
"491 187 OFFCURVE",
"430 127 OFFCURVE",
"322 127 CURVE SMOOTH"
);
},
{
closed = 1;
nodes = (
"504 688 LINE",
"513 732 LINE",
"575 746 OFFCURVE",
"606 772 OFFCURVE",
"619 829 CURVE SMOOTH",
"631 888 OFFCURVE",
"592 928 OFFCURVE",
"504 928 CURVE SMOOTH",
"461 928 OFFCURVE",
"422 923 OFFCURVE",
"394 914 CURVE",
"378 842 LINE",
"395 847 OFFCURVE",
"421 851 OFFCURVE",
"440 851 CURVE SMOOTH",
"481 851 OFFCURVE",
"503 840 OFFCURVE",
"498 815 CURVE SMOOTH",
"492 788 OFFCURVE",
"471 773 OFFCURVE",
"399 769 CURVE",
"382 688 LINE"
);
}
);
width = 785;
}
);
leftKerningGroup = O;
note = Ohornhookabove;
rightKerningGroup = O;
unicode = 1EDE;
},
{
glyphname = Ohorntilde;
lastChange = "2015-11-25 10:44:32 +0000";
layers = (
{
layerId = "CD587521-C2B1-4DF5-9394-E26F9987D7DC";
name = "SemiBold Italic";
paths = (
{
closed = 1;
nodes = (
"512 -10 OFFCURVE",
"636 93 OFFCURVE",
"684 319 CURVE SMOOTH",
"698 385 OFFCURVE",
"699 440 OFFCURVE",
"689 486 CURVE",
"785 505 OFFCURVE",
"843 559 OFFCURVE",
"871 688 CURVE",
"756 688 LINE",
"740 612 OFFCURVE",
"711 585 OFFCURVE",
"639 585 CURVE",
"594 631 OFFCURVE",
"523 654 OFFCURVE",
"435 654 CURVE SMOOTH",
"215 654 OFFCURVE",
"93 557 OFFCURVE",
"42 319 CURVE SMOOTH",
"-6 97 OFFCURVE",
"101 -10 OFFCURVE",
"293 -10 CURVE SMOOTH"
);
},
{
closed = 1;
nodes = (
"201 127 OFFCURVE",
"178 180 OFFCURVE",
"206 319 CURVE SMOOTH",
"237 463 OFFCURVE",
"296 516 OFFCURVE",
"405 516 CURVE SMOOTH",
"523 516 OFFCURVE",
"551 469 OFFCURVE",
"519 319 CURVE SMOOTH",
"491 187 OFFCURVE",
"430 127 OFFCURVE",
"322 127 CURVE SMOOTH"
);
},
{
closed = 1;
nodes = (
"578 694 OFFCURVE",
"614 708 OFFCURVE",
"631 726 CURVE",
"654 834 LINE",
"632 810 OFFCURVE",
"599 795 OFFCURVE",
"559 795 CURVE SMOOTH",
"500 795 OFFCURVE",
"461 836 OFFCURVE",
"397 836 CURVE SMOOTH",
"360 836 OFFCURVE",
"322 822 OFFCURVE",
"299 804 CURVE",
"276 697 LINE",
"305 721 OFFCURVE",
"339 735 OFFCURVE",
"378 735 CURVE SMOOTH",
"430 735 OFFCURVE",
"478 694 OFFCURVE",
"540 694 CURVE SMOOTH"
);
}
);
width = 785;
}
);
leftKerningGroup = O;
note = Ohorntilde;
rightKerningGroup = O;
unicode = 1EE0;
},
{
glyphname = Ohungarumlaut;
lastChange = "2015-11-25 10:44:30 +0000";
layers = (
{
layerId = "CD587521-C2B1-4DF5-9394-E26F9987D7DC";
name = "SemiBold Italic";
paths = (
{
closed = 1;
nodes = (
"512 -10 OFFCURVE",
"636 93 OFFCURVE",
"684 319 CURVE SMOOTH",
"733 550 OFFCURVE",
"627 654 OFFCURVE",
"435 654 CURVE SMOOTH",
"215 654 OFFCURVE",
"93 557 OFFCURVE",
"42 319 CURVE SMOOTH",
"-6 97 OFFCURVE",
"101 -10 OFFCURVE",
"293 -10 CURVE SMOOTH"
);
},
{
closed = 1;
nodes = (
"201 127 OFFCURVE",
"178 180 OFFCURVE",
"206 319 CURVE SMOOTH",
"237 463 OFFCURVE",
"296 516 OFFCURVE",
"405 516 CURVE SMOOTH",
"523 516 OFFCURVE",
"551 469 OFFCURVE",
"519 319 CURVE SMOOTH",
"491 187 OFFCURVE",
"430 127 OFFCURVE",
"322 127 CURVE SMOOTH"
);
},
{
closed = 1;
nodes = (
"362 688 LINE",
"496 868 LINE",
"358 868 LINE",
"238 688 LINE"
);
},
{
closed = 1;
nodes = (
"592 688 LINE",
"727 868 LINE",
"588 868 LINE",
"468 688 LINE"
);
}
);
width = 704;
}
);
leftKerningGroup = O;
note = Ohungarumlaut;
rightKerningGroup = O;
unicode = 0150;
},
{
glyphname = Omacron;
lastChange = "2015-11-25 10:44:31 +0000";
layers = (
{
layerId = "CD587521-C2B1-4DF5-9394-E26F9987D7DC";
name = "SemiBold Italic";
paths = (
{
closed = 1;
nodes = (
"512 -10 OFFCURVE",
"636 93 OFFCURVE",
"684 319 CURVE SMOOTH",
"733 550 OFFCURVE",
"627 654 OFFCURVE",
"435 654 CURVE SMOOTH",
"215 654 OFFCURVE",
"93 557 OFFCURVE",
"42 319 CURVE SMOOTH",
"-6 97 OFFCURVE",
"101 -10 OFFCURVE",
"293 -10 CURVE SMOOTH"
);
},
{
closed = 1;
nodes = (
"201 127 OFFCURVE",
"178 180 OFFCURVE",
"206 319 CURVE SMOOTH",
"237 463 OFFCURVE",
"296 516 OFFCURVE",
"405 516 CURVE SMOOTH",
"523 516 OFFCURVE",
"551 469 OFFCURVE",
"519 319 CURVE SMOOTH",
"491 187 OFFCURVE",
"430 127 OFFCURVE",
"322 127 CURVE SMOOTH"
);
},
{
closed = 1;
nodes = (
"605 724 LINE",
"626 821 LINE",
"309 821 LINE",
"288 724 LINE"
);
}
);
width = 704;
}
);
leftKerningGroup = O;
note = Omacron;
rightKerningGroup = O;
unicode = 014C;
},
{
glyphname = Oslash;
lastChange = "2015-11-25 10:44:31 +0000";
layers = (
{
layerId = "CD587521-C2B1-4DF5-9394-E26F9987D7DC";
name = "SemiBold Italic";
paths = (
{
closed = 1;
nodes = (
"177 -53 LINE",
"207 -2 LINE",
"233 -7 OFFCURVE",
"262 -10 OFFCURVE",
"293 -10 CURVE SMOOTH",
"512 -10 OFFCURVE",
"636 93 OFFCURVE",
"684 319 CURVE SMOOTH",
"718 480 OFFCURVE",
"677 579 OFFCURVE",
"584 624 CURVE",
"625 693 LINE",
"536 693 LINE",
"509 648 LINE",
"486 652 OFFCURVE",
"461 654 OFFCURVE",
"435 654 CURVE SMOOTH",
"215 654 OFFCURVE",
"93 557 OFFCURVE",
"42 319 CURVE SMOOTH",
"9 169 OFFCURVE",
"47 72 OFFCURVE",
"134 24 CURVE",
"88 -53 LINE"
);
},
{
closed = 1;
nodes = (
"190 189 OFFCURVE",
"190 240 OFFCURVE",
"206 319 CURVE SMOOTH",
"237 463 OFFCURVE",
"296 516 OFFCURVE",
"405 516 CURVE SMOOTH",
"413 516 OFFCURVE",
"421 515 OFFCURVE",
"429 515 CURVE",
"216 160 LINE"
);
},
{
closed = 1;
nodes = (
"309 127 OFFCURVE",
"297 127 OFFCURVE",
"286 129 CURVE",
"504 491 LINE",
"536 464 OFFCURVE",
"538 410 OFFCURVE",
"519 319 CURVE SMOOTH",
"491 187 OFFCURVE",
"430 127 OFFCURVE",
"322 127 CURVE SMOOTH"
);
}
);
width = 704;
}
);
leftKerningGroup = O;
note = Oslash;
rightKerningGroup = O;
unicode = 00D8;
},
{
glyphname = Oslashacute;
lastChange = "2015-11-25 10:44:31 +0000";
layers = (
{
layerId = "CD587521-C2B1-4DF5-9394-E26F9987D7DC";
name = "SemiBold Italic";
paths = (
{
closed = 1;
nodes = (
"177 -53 LINE",
"207 -2 LINE",
"233 -7 OFFCURVE",
"262 -10 OFFCURVE",
"293 -10 CURVE SMOOTH",
"512 -10 OFFCURVE",
"636 93 OFFCURVE",
"684 319 CURVE SMOOTH",
"718 480 OFFCURVE",
"677 579 OFFCURVE",
"584 624 CURVE",
"625 693 LINE",
"536 693 LINE",
"509 648 LINE",
"486 652 OFFCURVE",
"461 654 OFFCURVE",
"435 654 CURVE SMOOTH",
"215 654 OFFCURVE",
"93 557 OFFCURVE",
"42 319 CURVE SMOOTH",
"9 169 OFFCURVE",
"47 72 OFFCURVE",
"134 24 CURVE",
"88 -53 LINE"
);
},
{
closed = 1;
nodes = (
"190 189 OFFCURVE",
"190 240 OFFCURVE",
"206 319 CURVE SMOOTH",
"237 463 OFFCURVE",
"296 516 OFFCURVE",
"405 516 CURVE SMOOTH",
"413 516 OFFCURVE",
"421 515 OFFCURVE",
"429 515 CURVE",
"216 160 LINE"
);
},
{
closed = 1;
nodes = (
"309 127 OFFCURVE",
"297 127 OFFCURVE",
"286 129 CURVE",
"504 491 LINE",
"536 464 OFFCURVE",
"538 410 OFFCURVE",
"519 319 CURVE SMOOTH",
"491 187 OFFCURVE",
"430 127 OFFCURVE",
"322 127 CURVE SMOOTH"
);
},
{
closed = 1;
nodes = (
"471 688 LINE",
"605 884 LINE",
"473 884 LINE",
"347 688 LINE"
);
}
);
width = 704;
}
);
leftKerningGroup = O;
note = Oslashacute;
rightKerningGroup = O;
unicode = 01FE;
},
{
glyphname = Otilde;
lastChange = "2015-11-25 10:44:32 +0000";
layers = (
{
layerId = "CD587521-C2B1-4DF5-9394-E26F9987D7DC";
name = "SemiBold Italic";
paths = (
{
closed = 1;
nodes = (
"512 -10 OFFCURVE",
"636 93 OFFCURVE",
"684 319 CURVE SMOOTH",
"733 550 OFFCURVE",
"627 654 OFFCURVE",
"435 654 CURVE SMOOTH",
"215 654 OFFCURVE",
"93 557 OFFCURVE",
"42 319 CURVE SMOOTH",
"-6 97 OFFCURVE",
"101 -10 OFFCURVE",
"293 -10 CURVE SMOOTH"
);
},
{
closed = 1;
nodes = (
"201 127 OFFCURVE",
"178 180 OFFCURVE",
"206 319 CURVE SMOOTH",
"237 463 OFFCURVE",
"296 516 OFFCURVE",
"405 516 CURVE SMOOTH",
"523 516 OFFCURVE",
"551 469 OFFCURVE",
"519 319 CURVE SMOOTH",
"491 187 OFFCURVE",
"430 127 OFFCURVE",
"322 127 CURVE SMOOTH"
);
},
{
closed = 1;
nodes = (
"576 710 OFFCURVE",
"612 724 OFFCURVE",
"629 742 CURVE",
"652 850 LINE",
"630 826 OFFCURVE",
"597 811 OFFCURVE",
"557 811 CURVE SMOOTH",
"498 811 OFFCURVE",
"459 852 OFFCURVE",
"395 852 CURVE SMOOTH",
"358 852 OFFCURVE",
"320 838 OFFCURVE",
"297 820 CURVE",
"274 713 LINE",
"303 737 OFFCURVE",
"337 751 OFFCURVE",
"376 751 CURVE SMOOTH",
"428 751 OFFCURVE",
"476 710 OFFCURVE",
"538 710 CURVE SMOOTH"
);
}
);
width = 704;
}
);
leftKerningGroup = O;
note = Otilde;
rightKerningGroup = O;
unicode = 00D5;
},
{
glyphname = OE;
lastChange = "2015-11-25 10:44:31 +0000";
layers = (
{
layerId = "CD587521-C2B1-4DF5-9394-E26F9987D7DC";
name = "SemiBold Italic";
paths = (
{
closed = 1;
nodes = (
"355 -10 OFFCURVE",
"417 3 OFFCURVE",
"458 23 CURVE",
"453 0 LINE",
"928 0 LINE",
"954 124 LINE",
"640 124 LINE",
"669 259 LINE",
"946 259 LINE",
"972 385 LINE",
"695 385 LINE",
"724 520 LINE",
"1038 520 LINE",
"1064 644 LINE",
"589 644 LINE",
"584 618 LINE",
"543 641 OFFCURVE",
"494 654 OFFCURVE",
"435 654 CURVE SMOOTH",
"215 654 OFFCURVE",
"93 557 OFFCURVE",
"42 319 CURVE SMOOTH",
"-6 97 OFFCURVE",
"101 -10 OFFCURVE",
"293 -10 CURVE SMOOTH"
);
},
{
closed = 1;
nodes = (
"201 127 OFFCURVE",
"178 180 OFFCURVE",
"206 319 CURVE SMOOTH",
"237 463 OFFCURVE",
"296 516 OFFCURVE",
"405 516 CURVE SMOOTH",
"523 516 OFFCURVE",
"551 469 OFFCURVE",
"519 319 CURVE SMOOTH",
"491 187 OFFCURVE",
"430 127 OFFCURVE",
"322 127 CURVE SMOOTH"
);
}
);
width = 1015;
}
);
leftKerningGroup = O;
note = OE;
rightKerningGroup = E;
unicode = 0152;
},
{
glyphname = P;
lastChange = "2015-11-25 10:44:31 +0000";
layers = (
{
layerId = "CD587521-C2B1-4DF5-9394-E26F9987D7DC";
name = "SemiBold Italic";
paths = (
{
closed = 1;
nodes = (
"156 0 LINE",
"196 189 LINE",
"353 189 LINE SMOOTH",
"507 189 OFFCURVE",
"598 275 OFFCURVE",
"625 414 CURVE SMOOTH",
"650 541 OFFCURVE",
"588 644 OFFCURVE",
"439 644 CURVE SMOOTH",
"131 644 LINE",
"-5 0 LINE"
);
},
{
closed = 1;
nodes = (
"266 520 LINE",
"387 520 LINE SMOOTH",
"460 520 OFFCURVE",
"477 489 OFFCURVE",
"462 415 CURVE SMOOTH",
"450 354 OFFCURVE",
"417 313 OFFCURVE",
"338 313 CURVE SMOOTH",
"222 313 LINE"
);
}
);
width = 606;
}
);
note = P;
unicode = 0050;
},
{
glyphname = Thorn;
lastChange = "2015-11-25 10:46:55 +0000";
layers = (
{
layerId = "CD587521-C2B1-4DF5-9394-E26F9987D7DC";
name = "SemiBold Italic";
paths = (
{
closed = 1;
nodes = (
"156 0 LINE",
"176 95 LINE",
"328 95 LINE SMOOTH",
"482 95 OFFCURVE",
"577 187 OFFCURVE",
"606 320 CURVE SMOOTH",
"633 450 OFFCURVE",
"569 547 OFFCURVE",
"428 547 CURVE SMOOTH",
"272 547 LINE",
"292 644 LINE",
"131 644 LINE",
"-5 0 LINE"
);
},
{
closed = 1;
nodes = (
"245 423 LINE",
"366 423 LINE SMOOTH",
"443 423 OFFCURVE",
"456 386 OFFCURVE",
"442 320 CURVE SMOOTH",
"429 259 OFFCURVE",
"394 219 OFFCURVE",
"318 219 CURVE SMOOTH",
"202 219 LINE"
);
}
);
width = 606;
}
);
note = Thorn;
unicode = 00DE;
},
{
glyphname = Q;
lastChange = "2015-11-25 10:44:31 +0000";
layers = (
{
layerId = "CD587521-C2B1-4DF5-9394-E26F9987D7DC";
name = "SemiBold Italic";
paths = (
{
closed = 1;
nodes = (
"391 -172 OFFCURVE",
"431 -168 OFFCURVE",
"452 -162 CURVE",
"475 -53 LINE",
"454 -58 OFFCURVE",
"431 -61 OFFCURVE",
"411 -61 CURVE SMOOTH",
"372 -61 OFFCURVE",
"360 -50 OFFCURVE",
"371 -5 CURVE",
"542 18 OFFCURVE",
"642 121 OFFCURVE",
"684 319 CURVE SMOOTH",
"733 550 OFFCURVE",
"627 654 OFFCURVE",
"435 654 CURVE SMOOTH",
"215 654 OFFCURVE",
"93 557 OFFCURVE",
"42 319 CURVE SMOOTH",
"-1 123 OFFCURVE",
"78 17 OFFCURVE",
"228 -5 CURVE",
"206 -117 OFFCURVE",
"246 -172 OFFCURVE",
"369 -172 CURVE SMOOTH"
);
},
{
closed = 1;
nodes = (
"201 127 OFFCURVE",
"178 180 OFFCURVE",
"206 319 CURVE SMOOTH",
"237 463 OFFCURVE",
"296 516 OFFCURVE",
"405 516 CURVE SMOOTH",
"523 516 OFFCURVE",
"551 469 OFFCURVE",
"519 319 CURVE SMOOTH",
"491 187 OFFCURVE",
"430 127 OFFCURVE",
"322 127 CURVE SMOOTH"
);
}
);
width = 704;
}
);
leftKerningGroup = O;
note = Q;
rightKerningGroup = O;
unicode = 0051;
},
{
glyphname = R;
lastChange = "2015-11-25 10:44:31 +0000";
layers = (
{
layerId = "CD587521-C2B1-4DF5-9394-E26F9987D7DC";
name = "SemiBold Italic";
paths = (
{
closed = 1;
nodes = (
"156 0 LINE",
"199 204 LINE",
"273 204 LINE SMOOTH",
"308 204 OFFCURVE",
"320 195 OFFCURVE",
"327 164 CURVE SMOOTH",
"365 0 LINE",
"533 0 LINE",
"493 174 LINE SMOOTH",
"486 206 OFFCURVE",
"480 221 OFFCURVE",
"466 236 CURVE",
"548 268 OFFCURVE",
"610 336 OFFCURVE",
"628 423 CURVE SMOOTH",
"657 557 OFFCURVE",
"580 644 OFFCURVE",
"453 644 CURVE SMOOTH",
"131 644 LINE",
"-5 0 LINE"
);
},
{
closed = 1;
nodes = (
"266 520 LINE",
"392 520 LINE SMOOTH",
"469 520 OFFCURVE",
"478 487 OFFCURVE",
"464 423 CURVE SMOOTH",
"451 359 OFFCURVE",
"407 328 OFFCURVE",
"344 328 CURVE SMOOTH",
"225 328 LINE"
);
}
);
width = 626;
}
);
note = R;
rightKerningGroup = R;
unicode = 0052;
},
{
glyphname = Racute;
lastChange = "2015-11-25 10:44:32 +0000";
layers = (
{
layerId = "CD587521-C2B1-4DF5-9394-E26F9987D7DC";
name = "SemiBold Italic";
paths = (
{
closed = 1;
nodes = (
"156 0 LINE",
"199 204 LINE",
"273 204 LINE SMOOTH",
"308 204 OFFCURVE",
"320 195 OFFCURVE",
"327 164 CURVE SMOOTH",
"365 0 LINE",
"533 0 LINE",
"493 174 LINE SMOOTH",
"486 206 OFFCURVE",
"480 221 OFFCURVE",
"466 236 CURVE",
"548 268 OFFCURVE",
"610 336 OFFCURVE",
"628 423 CURVE SMOOTH",
"657 557 OFFCURVE",
"580 644 OFFCURVE",
"453 644 CURVE SMOOTH",
"131 644 LINE",
"-5 0 LINE"
);
},
{
closed = 1;
nodes = (
"266 520 LINE",
"392 520 LINE SMOOTH",
"469 520 OFFCURVE",
"478 487 OFFCURVE",
"464 423 CURVE SMOOTH",
"451 359 OFFCURVE",
"407 328 OFFCURVE",
"344 328 CURVE SMOOTH",
"225 328 LINE"
);
},
{
closed = 1;
nodes = (
"421 688 LINE",
"555 884 LINE",
"423 884 LINE",
"297 688 LINE"
);
}
);
width = 626;
}
);
note = Racute;
rightKerningGroup = R;
unicode = 0154;
},
{
glyphname = Rcaron;
lastChange = "2015-11-25 10:44:32 +0000";
layers = (
{
layerId = "CD587521-C2B1-4DF5-9394-E26F9987D7DC";
name = "SemiBold Italic";
paths = (
{
closed = 1;
nodes = (
"156 0 LINE",
"199 204 LINE",
"273 204 LINE SMOOTH",
"308 204 OFFCURVE",
"320 195 OFFCURVE",
"327 164 CURVE SMOOTH",
"365 0 LINE",
"533 0 LINE",
"493 174 LINE SMOOTH",
"486 206 OFFCURVE",
"480 221 OFFCURVE",
"466 236 CURVE",
"548 268 OFFCURVE",
"610 336 OFFCURVE",
"628 423 CURVE SMOOTH",
"657 557 OFFCURVE",
"580 644 OFFCURVE",
"453 644 CURVE SMOOTH",
"131 644 LINE",
"-5 0 LINE"
);
},
{
closed = 1;
nodes = (
"266 520 LINE",
"392 520 LINE SMOOTH",
"469 520 OFFCURVE",
"478 487 OFFCURVE",
"464 423 CURVE SMOOTH",
"451 359 OFFCURVE",
"407 328 OFFCURVE",
"344 328 CURVE SMOOTH",
"225 328 LINE"
);
},
{
closed = 1;
nodes = (
"422 688 LINE",
"607 875 LINE",
"481 875 LINE",
"384 771 LINE",
"334 875 LINE",
"218 875 LINE",
"322 688 LINE"
);
}
);
width = 626;
}
);
note = Rcaron;
rightKerningGroup = R;
unicode = 0158;
},
{
glyphname = Rcommaaccent;
lastChange = "2015-11-25 10:47:02 +0000";
layers = (
{
layerId = "CD587521-C2B1-4DF5-9394-E26F9987D7DC";
name = "SemiBold Italic";
paths = (
{
closed = 1;
nodes = (
"156 0 LINE",
"199 204 LINE",
"273 204 LINE SMOOTH",
"308 204 OFFCURVE",
"320 195 OFFCURVE",
"327 164 CURVE SMOOTH",
"365 0 LINE",
"533 0 LINE",
"493 174 LINE SMOOTH",
"486 206 OFFCURVE",
"480 221 OFFCURVE",
"466 236 CURVE",
"548 268 OFFCURVE",
"610 336 OFFCURVE",
"628 423 CURVE SMOOTH",
"657 557 OFFCURVE",
"580 644 OFFCURVE",
"453 644 CURVE SMOOTH",
"131 644 LINE",
"-5 0 LINE"
);
},
{
closed = 1;
nodes = (
"266 520 LINE",
"392 520 LINE SMOOTH",
"469 520 OFFCURVE",
"478 487 OFFCURVE",
"464 423 CURVE SMOOTH",
"451 359 OFFCURVE",
"407 328 OFFCURVE",
"344 328 CURVE SMOOTH",
"225 328 LINE"
);
},
{
closed = 1;
nodes = (
"206 -250 LINE",
"305 -37 LINE",
"176 -37 LINE",
"98 -250 LINE"
);
}
);
width = 626;
}
);
note = Rcommaaccent;
rightKerningGroup = R;
unicode = 0156;
},
{
glyphname = Rdotbelow;
lastChange = "2015-11-25 10:47:05 +0000";
layers = (
{
layerId = "CD587521-C2B1-4DF5-9394-E26F9987D7DC";
name = "SemiBold Italic";
paths = (
{
closed = 1;
nodes = (
"156 0 LINE",
"199 204 LINE",
"273 204 LINE SMOOTH",
"308 204 OFFCURVE",
"320 195 OFFCURVE",
"327 164 CURVE SMOOTH",
"365 0 LINE",
"533 0 LINE",
"493 174 LINE SMOOTH",
"486 206 OFFCURVE",
"480 221 OFFCURVE",
"466 236 CURVE",
"548 268 OFFCURVE",
"610 336 OFFCURVE",
"628 423 CURVE SMOOTH",
"657 557 OFFCURVE",
"580 644 OFFCURVE",
"453 644 CURVE SMOOTH",
"131 644 LINE",
"-5 0 LINE"
);
},
{
closed = 1;
nodes = (
"266 520 LINE",
"392 520 LINE SMOOTH",
"469 520 OFFCURVE",
"478 487 OFFCURVE",
"464 423 CURVE SMOOTH",
"451 359 OFFCURVE",
"407 328 OFFCURVE",
"344 328 CURVE SMOOTH",
"225 328 LINE"
);
},
{
closed = 1;
nodes = (
"269 -179 LINE",
"292 -70 LINE",
"174 -70 LINE",
"151 -179 LINE"
);
}
);
width = 626;
}
);
note = Rdotbelow;
rightKerningGroup = R;
unicode = 1E5A;
},
{
glyphname = Rdotbelowmacron;
lastChange = "2015-11-25 10:47:12 +0000";
layers = (
{
layerId = "CD587521-C2B1-4DF5-9394-E26F9987D7DC";
name = "SemiBold Italic";
paths = (
{
closed = 1;
nodes = (
"156 0 LINE",
"199 204 LINE",
"273 204 LINE SMOOTH",
"308 204 OFFCURVE",
"320 195 OFFCURVE",
"327 164 CURVE SMOOTH",
"365 0 LINE",
"533 0 LINE",
"493 174 LINE SMOOTH",
"486 206 OFFCURVE",
"480 221 OFFCURVE",
"466 236 CURVE",
"548 268 OFFCURVE",
"610 336 OFFCURVE",
"628 423 CURVE SMOOTH",
"657 557 OFFCURVE",
"580 644 OFFCURVE",
"453 644 CURVE SMOOTH",
"131 644 LINE",
"-5 0 LINE"
);
},
{
closed = 1;
nodes = (
"266 520 LINE",
"392 520 LINE SMOOTH",
"469 520 OFFCURVE",
"478 487 OFFCURVE",
"464 423 CURVE SMOOTH",
"451 359 OFFCURVE",
"407 328 OFFCURVE",
"344 328 CURVE SMOOTH",
"225 328 LINE"
);
},
{
closed = 1;
nodes = (
"269 -179 LINE",
"292 -70 LINE",
"174 -70 LINE",
"151 -179 LINE"
);
},
{
closed = 1;
nodes = (
"532 717 LINE",
"553 814 LINE",
"236 814 LINE",
"215 717 LINE"
);
}
);
width = 626;
}
);
note = Rdotbelowmacron;
rightKerningGroup = R;
unicode = 1E5C;
},
{
glyphname = Rlinebelow;
lastChange = "2015-11-25 10:47:16 +0000";
layers = (
{
layerId = "CD587521-C2B1-4DF5-9394-E26F9987D7DC";
name = "SemiBold Italic";
paths = (
{
closed = 1;
nodes = (
"156 0 LINE",
"199 204 LINE",
"273 204 LINE SMOOTH",
"308 204 OFFCURVE",
"320 195 OFFCURVE",
"327 164 CURVE SMOOTH",
"365 0 LINE",
"533 0 LINE",
"493 174 LINE SMOOTH",
"486 206 OFFCURVE",
"480 221 OFFCURVE",
"466 236 CURVE",
"548 268 OFFCURVE",
"610 336 OFFCURVE",
"628 423 CURVE SMOOTH",
"657 557 OFFCURVE",
"580 644 OFFCURVE",
"453 644 CURVE SMOOTH",
"131 644 LINE",
"-5 0 LINE"
);
},
{
closed = 1;
nodes = (
"266 520 LINE",
"392 520 LINE SMOOTH",
"469 520 OFFCURVE",
"478 487 OFFCURVE",
"464 423 CURVE SMOOTH",
"451 359 OFFCURVE",
"407 328 OFFCURVE",
"344 328 CURVE SMOOTH",
"225 328 LINE"
);
},
{
closed = 1;
nodes = (
"365 -166 LINE",
"386 -68 LINE",
"69 -68 LINE",
"48 -166 LINE"
);
}
);
width = 626;
}
);
note = Rlinebelow;
rightKerningGroup = R;
unicode = 1E5E;
},
{
glyphname = S;
lastChange = "2015-11-25 10:44:27 +0000";
layers = (
{
layerId = "CD587521-C2B1-4DF5-9394-E26F9987D7DC";
name = "SemiBold Italic";
paths = (
{
closed = 1;
nodes = (
"378 -10 OFFCURVE",
"482 66 OFFCURVE",
"506 180 CURVE SMOOTH",
"526 276 OFFCURVE",
"503 342 OFFCURVE",
"354 385 CURVE SMOOTH",
"257 412 OFFCURVE",
"228 423 OFFCURVE",
"237 465 CURVE SMOOTH",
"248 513 OFFCURVE",
"298 521 OFFCURVE",
"370 521 CURVE SMOOTH",
"424 521 OFFCURVE",
"481 511 OFFCURVE",
"534 488 CURVE",
"564 626 LINE",
"523 641 OFFCURVE",
"449 654 OFFCURVE",
"375 654 CURVE SMOOTH",
"203 654 OFFCURVE",
"99 587 OFFCURVE",
"73 464 CURVE SMOOTH",
"51 362 OFFCURVE",
"87 313 OFFCURVE",
"211 274 CURVE SMOOTH",
"315 242 OFFCURVE",
"351 230 OFFCURVE",
"341 180 CURVE SMOOTH",
"330 130 OFFCURVE",
"289 121 OFFCURVE",
"209 121 CURVE SMOOTH",
"145 121 OFFCURVE",
"73 138 OFFCURVE",
"19 164 CURVE",
"-10 27 LINE",
"38 3 OFFCURVE",
"112 -10 OFFCURVE",
"197 -10 CURVE SMOOTH"
);
}
);
width = 555;
}
);
leftKerningGroup = S;
note = S;
rightKerningGroup = S;
unicode = 0053;
},
{
glyphname = Sacute;
lastChange = "2015-11-25 10:44:31 +0000";
layers = (
{
layerId = "CD587521-C2B1-4DF5-9394-E26F9987D7DC";
name = "SemiBold Italic";
paths = (
{
closed = 1;
nodes = (
"378 -10 OFFCURVE",
"482 66 OFFCURVE",
"506 180 CURVE SMOOTH",
"526 276 OFFCURVE",
"503 342 OFFCURVE",
"354 385 CURVE SMOOTH",
"257 412 OFFCURVE",
"228 423 OFFCURVE",
"237 465 CURVE SMOOTH",
"248 513 OFFCURVE",
"298 521 OFFCURVE",
"370 521 CURVE SMOOTH",
"424 521 OFFCURVE",
"481 511 OFFCURVE",
"534 488 CURVE",
"564 626 LINE",
"523 641 OFFCURVE",
"449 654 OFFCURVE",
"375 654 CURVE SMOOTH",
"203 654 OFFCURVE",
"99 587 OFFCURVE",
"73 464 CURVE SMOOTH",
"51 362 OFFCURVE",
"87 313 OFFCURVE",
"211 274 CURVE SMOOTH",
"315 242 OFFCURVE",
"351 230 OFFCURVE",
"341 180 CURVE SMOOTH",
"330 130 OFFCURVE",
"289 121 OFFCURVE",
"209 121 CURVE SMOOTH",
"145 121 OFFCURVE",
"73 138 OFFCURVE",
"19 164 CURVE",
"-10 27 LINE",
"38 3 OFFCURVE",
"112 -10 OFFCURVE",
"197 -10 CURVE SMOOTH"
);
},
{
closed = 1;
nodes = (
"416 689 LINE",
"550 885 LINE",
"418 885 LINE",
"292 689 LINE"
);
}
);
width = 555;
}
);
leftKerningGroup = S;
note = Sacute;
rightKerningGroup = S;
unicode = 015A;
},
{
glyphname = Scaron;
lastChange = "2015-11-25 10:44:32 +0000";
layers = (
{
layerId = "CD587521-C2B1-4DF5-9394-E26F9987D7DC";
name = "SemiBold Italic";
paths = (
{
closed = 1;
nodes = (
"378 -10 OFFCURVE",
"482 66 OFFCURVE",
"506 180 CURVE SMOOTH",
"526 276 OFFCURVE",
"503 342 OFFCURVE",
"354 385 CURVE SMOOTH",
"257 412 OFFCURVE",
"228 423 OFFCURVE",
"237 465 CURVE SMOOTH",
"248 513 OFFCURVE",
"298 521 OFFCURVE",
"370 521 CURVE SMOOTH",
"424 521 OFFCURVE",
"481 511 OFFCURVE",
"534 488 CURVE",
"564 626 LINE",
"523 641 OFFCURVE",
"449 654 OFFCURVE",
"375 654 CURVE SMOOTH",
"203 654 OFFCURVE",
"99 587 OFFCURVE",
"73 464 CURVE SMOOTH",
"51 362 OFFCURVE",
"87 313 OFFCURVE",
"211 274 CURVE SMOOTH",
"315 242 OFFCURVE",
"351 230 OFFCURVE",
"341 180 CURVE SMOOTH",
"330 130 OFFCURVE",
"289 121 OFFCURVE",
"209 121 CURVE SMOOTH",
"145 121 OFFCURVE",
"73 138 OFFCURVE",
"19 164 CURVE",
"-10 27 LINE",
"38 3 OFFCURVE",
"112 -10 OFFCURVE",
"197 -10 CURVE SMOOTH"
);
},
{
closed = 1;
nodes = (
"415 688 LINE",
"600 875 LINE",
"474 875 LINE",
"377 771 LINE",
"327 875 LINE",
"211 875 LINE",
"315 688 LINE"
);
}
);
width = 555;
}
);
leftKerningGroup = S;
note = Scaron;
rightKerningGroup = S;
unicode = 0160;
},
{
glyphname = Scedilla;
lastChange = "2015-11-25 10:44:27 +0000";
layers = (
{
layerId = "CD587521-C2B1-4DF5-9394-E26F9987D7DC";
name = "SemiBold Italic";
paths = (
{
closed = 1;
nodes = (
"252 -240 OFFCURVE",
"311 -202 OFFCURVE",
"325 -136 CURVE SMOOTH",
"336 -80 OFFCURVE",
"310 -43 OFFCURVE",
"235 -43 CURVE",
"256 -7 LINE",
"401 8 OFFCURVE",
"484 79 OFFCURVE",
"506 180 CURVE SMOOTH",
"526 276 OFFCURVE",
"503 342 OFFCURVE",
"354 385 CURVE SMOOTH",
"257 412 OFFCURVE",
"228 423 OFFCURVE",
"237 465 CURVE SMOOTH",
"248 513 OFFCURVE",
"298 521 OFFCURVE",
"370 521 CURVE SMOOTH",
"424 521 OFFCURVE",
"481 511 OFFCURVE",
"534 488 CURVE",
"564 626 LINE",
"523 641 OFFCURVE",
"449 654 OFFCURVE",
"375 654 CURVE SMOOTH",
"203 654 OFFCURVE",
"99 587 OFFCURVE",
"73 464 CURVE SMOOTH",
"51 362 OFFCURVE",
"87 313 OFFCURVE",
"211 274 CURVE SMOOTH",
"315 242 OFFCURVE",
"351 230 OFFCURVE",
"341 180 CURVE SMOOTH",
"330 130 OFFCURVE",
"289 121 OFFCURVE",
"209 121 CURVE SMOOTH",
"145 121 OFFCURVE",
"73 138 OFFCURVE",
"19 164 CURVE",
"-10 27 LINE",
"31 6 OFFCURVE",
"90 -5 OFFCURVE",
"159 -9 CURVE",
"114 -100 LINE",
"168 -100 LINE SMOOTH",
"207 -100 OFFCURVE",
"233 -103 OFFCURVE",
"226 -134 CURVE SMOOTH",
"220 -163 OFFCURVE",
"198 -169 OFFCURVE",
"143 -169 CURVE SMOOTH",
"123 -169 OFFCURVE",
"101 -166 OFFCURVE",
"84 -161 CURVE",
"69 -232 LINE",
"83 -236 OFFCURVE",
"123 -240 OFFCURVE",
"146 -240 CURVE SMOOTH"
);
}
);
width = 555;
}
);
leftKerningGroup = S;
note = Scedilla;
rightKerningGroup = S;
unicode = 015E;
},
{
glyphname = Scircumflex;
lastChange = "2015-11-25 10:44:30 +0000";
layers = (
{
layerId = "CD587521-C2B1-4DF5-9394-E26F9987D7DC";
name = "SemiBold Italic";
paths = (
{
closed = 1;
nodes = (
"378 -10 OFFCURVE",
"482 66 OFFCURVE",
"506 180 CURVE SMOOTH",
"526 276 OFFCURVE",
"503 342 OFFCURVE",
"354 385 CURVE SMOOTH",
"257 412 OFFCURVE",
"228 423 OFFCURVE",
"237 465 CURVE SMOOTH",
"248 513 OFFCURVE",
"298 521 OFFCURVE",
"370 521 CURVE SMOOTH",
"424 521 OFFCURVE",
"481 511 OFFCURVE",
"534 488 CURVE",
"564 626 LINE",
"523 641 OFFCURVE",
"449 654 OFFCURVE",
"375 654 CURVE SMOOTH",
"203 654 OFFCURVE",
"99 587 OFFCURVE",
"73 464 CURVE SMOOTH",
"51 362 OFFCURVE",
"87 313 OFFCURVE",
"211 274 CURVE SMOOTH",
"315 242 OFFCURVE",
"351 230 OFFCURVE",
"341 180 CURVE SMOOTH",
"330 130 OFFCURVE",
"289 121 OFFCURVE",
"209 121 CURVE SMOOTH",
"145 121 OFFCURVE",
"73 138 OFFCURVE",
"19 164 CURVE",
"-10 27 LINE",
"38 3 OFFCURVE",
"112 -10 OFFCURVE",
"197 -10 CURVE SMOOTH"
);
},
{
closed = 1;
nodes = (
"290 689 LINE",
"384 793 LINE",
"437 689 LINE",
"551 689 LINE",
"446 876 LINE",
"346 876 LINE",
"162 689 LINE"
);
}
);
width = 555;
}
);
leftKerningGroup = S;
note = Scircumflex;
rightKerningGroup = S;
unicode = 015C;
},
{
glyphname = Scommaaccent;
lastChange = "2015-11-25 10:44:32 +0000";
layers = (
{
layerId = "CD587521-C2B1-4DF5-9394-E26F9987D7DC";
name = "SemiBold Italic";
paths = (
{
closed = 1;
nodes = (
"378 -10 OFFCURVE",
"482 66 OFFCURVE",
"506 180 CURVE SMOOTH",
"526 276 OFFCURVE",
"503 342 OFFCURVE",
"354 385 CURVE SMOOTH",
"257 412 OFFCURVE",
"228 423 OFFCURVE",
"237 465 CURVE SMOOTH",
"248 513 OFFCURVE",
"298 521 OFFCURVE",
"370 521 CURVE SMOOTH",
"424 521 OFFCURVE",
"481 511 OFFCURVE",
"534 488 CURVE",
"564 626 LINE",
"523 641 OFFCURVE",
"449 654 OFFCURVE",
"375 654 CURVE SMOOTH",
"203 654 OFFCURVE",
"99 587 OFFCURVE",
"73 464 CURVE SMOOTH",
"51 362 OFFCURVE",
"87 313 OFFCURVE",
"211 274 CURVE SMOOTH",
"315 242 OFFCURVE",
"351 230 OFFCURVE",
"341 180 CURVE SMOOTH",
"330 130 OFFCURVE",
"289 121 OFFCURVE",
"209 121 CURVE SMOOTH",
"145 121 OFFCURVE",
"73 138 OFFCURVE",
"19 164 CURVE",
"-10 27 LINE",
"38 3 OFFCURVE",
"112 -10 OFFCURVE",
"197 -10 CURVE SMOOTH"
);
},
{
closed = 1;
nodes = (
"200 -231 LINE",
"284 -45 LINE",
"152 -45 LINE",
"82 -231 LINE"
);
}
);
width = 555;
}
);
leftKerningGroup = S;
note = Scommaaccent;
rightKerningGroup = S;
unicode = 0218;
},
{
glyphname = Sdotaccent;
lastChange = "2015-11-25 10:44:30 +0000";
layers = (
{
layerId = "CD587521-C2B1-4DF5-9394-E26F9987D7DC";
name = "SemiBold Italic";
paths = (
{
closed = 1;
nodes = (
"378 -10 OFFCURVE",
"482 66 OFFCURVE",
"506 180 CURVE SMOOTH",
"526 276 OFFCURVE",
"503 342 OFFCURVE",
"354 385 CURVE SMOOTH",
"257 412 OFFCURVE",
"228 423 OFFCURVE",
"237 465 CURVE SMOOTH",
"248 513 OFFCURVE",
"298 521 OFFCURVE",
"370 521 CURVE SMOOTH",
"424 521 OFFCURVE",
"481 511 OFFCURVE",
"534 488 CURVE",
"564 626 LINE",
"523 641 OFFCURVE",
"449 654 OFFCURVE",
"375 654 CURVE SMOOTH",
"203 654 OFFCURVE",
"99 587 OFFCURVE",
"73 464 CURVE SMOOTH",
"51 362 OFFCURVE",
"87 313 OFFCURVE",
"211 274 CURVE SMOOTH",
"315 242 OFFCURVE",
"351 230 OFFCURVE",
"341 180 CURVE SMOOTH",
"330 130 OFFCURVE",
"289 121 OFFCURVE",
"209 121 CURVE SMOOTH",
"145 121 OFFCURVE",
"73 138 OFFCURVE",
"19 164 CURVE",
"-10 27 LINE",
"38 3 OFFCURVE",
"112 -10 OFFCURVE",
"197 -10 CURVE SMOOTH"
);
},
{
closed = 1;
nodes = (
"424 714 LINE",
"448 823 LINE",
"331 823 LINE",
"307 714 LINE"
);
}
);
width = 555;
}
);
leftKerningGroup = S;
note = Sdotaccent;
rightKerningGroup = S;
unicode = 1E60;
},
{
glyphname = Sdotbelow;
lastChange = "2015-11-25 10:44:31 +0000";
layers = (
{
layerId = "CD587521-C2B1-4DF5-9394-E26F9987D7DC";
name = "SemiBold Italic";
paths = (
{
closed = 1;
nodes = (
"378 -10 OFFCURVE",
"482 66 OFFCURVE",
"506 180 CURVE SMOOTH",
"526 276 OFFCURVE",
"503 342 OFFCURVE",
"354 385 CURVE SMOOTH",
"257 412 OFFCURVE",
"228 423 OFFCURVE",
"237 465 CURVE SMOOTH",
"248 513 OFFCURVE",
"298 521 OFFCURVE",
"370 521 CURVE SMOOTH",
"424 521 OFFCURVE",
"481 511 OFFCURVE",
"534 488 CURVE",
"564 626 LINE",
"523 641 OFFCURVE",
"449 654 OFFCURVE",
"375 654 CURVE SMOOTH",
"203 654 OFFCURVE",
"99 587 OFFCURVE",
"73 464 CURVE SMOOTH",
"51 362 OFFCURVE",
"87 313 OFFCURVE",
"211 274 CURVE SMOOTH",
"315 242 OFFCURVE",
"351 230 OFFCURVE",
"341 180 CURVE SMOOTH",
"330 130 OFFCURVE",
"289 121 OFFCURVE",
"209 121 CURVE SMOOTH",
"145 121 OFFCURVE",
"73 138 OFFCURVE",
"19 164 CURVE",
"-10 27 LINE",
"38 3 OFFCURVE",
"112 -10 OFFCURVE",
"197 -10 CURVE SMOOTH"
);
},
{
closed = 1;
nodes = (
"237 -179 LINE",
"260 -70 LINE",
"142 -70 LINE",
"119 -179 LINE"
);
}
);
width = 555;
}
);
leftKerningGroup = S;
note = Sdotbelow;
rightKerningGroup = S;
unicode = 1E62;
},
{
glyphname = Germandbls;
lastChange = "2015-11-25 10:44:27 +0000";
layers = (
{
layerId = "CD587521-C2B1-4DF5-9394-E26F9987D7DC";
name = "SemiBold Italic";
paths = (
{
closed = 1;
nodes = (
"465 -10 OFFCURVE",
"559 67 OFFCURVE",
"584 180 CURVE SMOOTH",
"603 265 OFFCURVE",
"555 330 OFFCURVE",
"471 330 CURVE SMOOTH",
"449 330 LINE",
"614 427 LINE",
"641 551 OFFCURVE",
"585 654 OFFCURVE",
"399 654 CURVE SMOOTH",
"217 654 OFFCURVE",
"109 562 OFFCURVE",
"77 413 CURVE SMOOTH",
"-10 0 LINE",
"142 0 LINE",
"229 412 LINE SMOOTH",
"244 481 OFFCURVE",
"277 518 OFFCURVE",
"370 518 CURVE SMOOTH",
"447 518 OFFCURVE",
"477 491 OFFCURVE",
"469 455 CURVE",
"298 354 LINE",
"275 245 LINE",
"358 245 LINE SMOOTH",
"409 245 OFFCURVE",
"435 229 OFFCURVE",
"426 186 CURVE SMOOTH",
"416 140 OFFCURVE",
"391 117 OFFCURVE",
"327 117 CURVE SMOOTH",
"293 117 OFFCURVE",
"255 124 OFFCURVE",
"229 136 CURVE",
"203 12 LINE",
"237 -2 OFFCURVE",
"284 -10 OFFCURVE",
"338 -10 CURVE SMOOTH"
);
}
);
width = 633;
}
);
note = uni1E9E;
unicode = 1E9E;
},
{
glyphname = Schwa;
lastChange = "2015-11-25 10:44:32 +0000";
layers = (
{
layerId = "CD587521-C2B1-4DF5-9394-E26F9987D7DC";
name = "SemiBold Italic";
paths = (
{
closed = 1;
nodes = (
"516 -10 OFFCURVE",
"621 115 OFFCURVE",
"663 313 CURVE SMOOTH",
"709 529 OFFCURVE",
"598 654 OFFCURVE",
"390 654 CURVE SMOOTH",
"299 654 OFFCURVE",
"205 634 OFFCURVE",
"139 611 CURVE",
"115 497 LINE",
"170 519 OFFCURVE",
"268 537 OFFCURVE",
"330 537 CURVE SMOOTH",
"500 537 OFFCURVE",
"543 504 OFFCURVE",
"528 389 CURVE",
"57 389 LINE",
"32 271 LINE SMOOTH",
"-5 98 OFFCURVE",
"91 -10 OFFCURVE",
"274 -10 CURVE SMOOTH"
);
},
{
closed = 1;
nodes = (
"175 100 OFFCURVE",
"149 151 OFFCURVE",
"166 235 CURVE SMOOTH",
"175 275 LINE",
"504 275 LINE",
"479 159 OFFCURVE",
"415 100 OFFCURVE",
"298 100 CURVE SMOOTH"
);
}
);
width = 684;
}
);
note = uni018F;
unicode = 018F;
},
{
glyphname = T;
lastChange = "2015-11-25 10:44:27 +0000";
layers = (
{
layerId = "CD587521-C2B1-4DF5-9394-E26F9987D7DC";
name = "SemiBold Italic";
paths = (
{
closed = 1;
nodes = (
"305 0 LINE",
"415 520 LINE",
"604 520 LINE",
"630 644 LINE",
"91 644 LINE",
"65 520 LINE",
"254 520 LINE",
"144 0 LINE"
);
}
);
width = 561;
}
);
leftKerningGroup = T;
note = T;
rightKerningGroup = T;
unicode = 0054;
},
{
glyphname = Tbar;
lastChange = "2015-11-25 10:44:27 +0000";
layers = (
{
layerId = "CD587521-C2B1-4DF5-9394-E26F9987D7DC";
name = "SemiBold Italic";
paths = (
{
closed = 1;
nodes = (
"305 0 LINE",
"364 279 LINE",
"473 279 LINE",
"497 392 LINE",
"388 392 LINE",
"415 520 LINE",
"604 520 LINE",
"630 644 LINE",
"91 644 LINE",
"65 520 LINE",
"254 520 LINE",
"227 392 LINE",
"121 392 LINE",
"97 279 LINE",
"203 279 LINE",
"144 0 LINE"
);
}
);
width = 562;
}
);
leftKerningGroup = T;
note = Tbar;
rightKerningGroup = T;
unicode = 0166;
},
{
glyphname = Tcaron;
lastChange = "2015-11-25 10:47:32 +0000";
layers = (
{
layerId = "CD587521-C2B1-4DF5-9394-E26F9987D7DC";
name = "SemiBold Italic";
paths = (
{
closed = 1;
nodes = (
"305 0 LINE",
"415 520 LINE",
"604 520 LINE",
"630 644 LINE",
"91 644 LINE",
"65 520 LINE",
"254 520 LINE",
"144 0 LINE"
);
},
{
closed = 1;
nodes = (
"419 688 LINE",
"604 875 LINE",
"478 875 LINE",
"381 771 LINE",
"331 875 LINE",
"215 875 LINE",
"319 688 LINE"
);
}
);
width = 562;
}
);
leftKerningGroup = T;
note = Tcaron;
rightKerningGroup = T;
unicode = 0164;
},
{
glyphname = Tcedilla;
lastChange = "2015-11-25 10:47:37 +0000";
layers = (
{
layerId = "CD587521-C2B1-4DF5-9394-E26F9987D7DC";
name = "SemiBold Italic";
paths = (
{
closed = 1;
nodes = (
"263 -240 OFFCURVE",
"322 -202 OFFCURVE",
"336 -136 CURVE SMOOTH",
"347 -80 OFFCURVE",
"321 -43 OFFCURVE",
"246 -43 CURVE",
"271 0 LINE",
"305 0 LINE",
"415 520 LINE",
"604 520 LINE",
"630 644 LINE",
"91 644 LINE",
"65 520 LINE",
"254 520 LINE",
"144 0 LINE",
"175 0 LINE",
"125 -100 LINE",
"179 -100 LINE SMOOTH",
"218 -100 OFFCURVE",
"244 -103 OFFCURVE",
"237 -134 CURVE SMOOTH",
"231 -163 OFFCURVE",
"209 -169 OFFCURVE",
"154 -169 CURVE SMOOTH",
"134 -169 OFFCURVE",
"112 -166 OFFCURVE",
"95 -161 CURVE",
"80 -232 LINE",
"94 -236 OFFCURVE",
"134 -240 OFFCURVE",
"157 -240 CURVE SMOOTH"
);
}
);
width = 562;
}
);
leftKerningGroup = T;
note = Tcedilla;
rightKerningGroup = T;
unicode = 0162;
},
{
glyphname = Tcommaaccent;
lastChange = "2015-11-25 10:47:44 +0000";
layers = (
{
layerId = "CD587521-C2B1-4DF5-9394-E26F9987D7DC";
name = "SemiBold Italic";
paths = (
{
closed = 1;
nodes = (
"305 0 LINE",
"415 520 LINE",
"604 520 LINE",
"630 644 LINE",
"91 644 LINE",
"65 520 LINE",
"254 520 LINE",
"144 0 LINE"
);
},
{
closed = 1;
nodes = (
"184 -258 LINE",
"283 -45 LINE",
"154 -45 LINE",
"76 -258 LINE"
);
}
);
width = 562;
}
);
leftKerningGroup = T;
note = Tcommaaccent;
rightKerningGroup = T;
unicode = 021A;
},
{
glyphname = Tdotbelow;
lastChange = "2015-11-25 10:48:02 +0000";
layers = (
{
layerId = "CD587521-C2B1-4DF5-9394-E26F9987D7DC";
name = "SemiBold Italic";
paths = (
{
closed = 1;
nodes = (
"305 0 LINE",
"415 520 LINE",
"604 520 LINE",
"630 644 LINE",
"91 644 LINE",
"65 520 LINE",
"254 520 LINE",
"144 0 LINE"
);
},
{
closed = 1;
nodes = (
"244 -174 LINE",
"267 -65 LINE",
"149 -65 LINE",
"126 -174 LINE"
);
}
);
width = 562;
}
);
leftKerningGroup = T;
note = Tdotbelow;
rightKerningGroup = T;
unicode = 1E6C;
},
{
glyphname = Tlinebelow;
lastChange = "2015-11-25 10:48:05 +0000";
layers = (
{
layerId = "CD587521-C2B1-4DF5-9394-E26F9987D7DC";
name = "SemiBold Italic";
paths = (
{
closed = 1;
nodes = (
"305 0 LINE",
"415 520 LINE",
"604 520 LINE",
"630 644 LINE",
"91 644 LINE",
"65 520 LINE",
"254 520 LINE",
"144 0 LINE"
);
},
{
closed = 1;
nodes = (
"347 -161 LINE",
"368 -63 LINE",
"51 -63 LINE",
"30 -161 LINE"
);
}
);
width = 562;
}
);
leftKerningGroup = T;
note = Tlinebelow;
rightKerningGroup = T;
unicode = 1E6E;
},
{
glyphname = U;
lastChange = "2015-11-25 10:44:27 +0000";
layers = (
{
layerId = "CD587521-C2B1-4DF5-9394-E26F9987D7DC";
name = "SemiBold Italic";
paths = (
{
closed = 1;
nodes = (
"474 -10 OFFCURVE",
"597 71 OFFCURVE",
"634 245 CURVE SMOOTH",
"718 644 LINE",
"557 644 LINE",
"476 260 LINE SMOOTH",
"457 170 OFFCURVE",
"411 127 OFFCURVE",
"312 127 CURVE SMOOTH",
"214 127 OFFCURVE",
"187 170 OFFCURVE",
"206 260 CURVE SMOOTH",
"287 644 LINE",
"126 644 LINE",
"42 245 LINE SMOOTH",
"9 90 OFFCURVE",
"119 -10 OFFCURVE",
"283 -10 CURVE SMOOTH"
);
}
);
width = 684;
}
);
leftKerningGroup = U;
note = U;
rightKerningGroup = U;
unicode = 0055;
},
{
glyphname = Uacute;
lastChange = "2015-11-25 10:44:30 +0000";
layers = (
{
layerId = "CD587521-C2B1-4DF5-9394-E26F9987D7DC";
name = "SemiBold Italic";
paths = (
{
closed = 1;
nodes = (
"474 -10 OFFCURVE",
"597 71 OFFCURVE",
"634 245 CURVE SMOOTH",
"718 644 LINE",
"557 644 LINE",
"476 260 LINE SMOOTH",
"457 170 OFFCURVE",
"411 127 OFFCURVE",
"312 127 CURVE SMOOTH",
"214 127 OFFCURVE",
"187 170 OFFCURVE",
"206 260 CURVE SMOOTH",
"287 644 LINE",
"126 644 LINE",
"42 245 LINE SMOOTH",
"9 90 OFFCURVE",
"119 -10 OFFCURVE",
"283 -10 CURVE SMOOTH"
);
},
{
closed = 1;
nodes = (
"491 688 LINE",
"625 884 LINE",
"493 884 LINE",
"367 688 LINE"
);
}
);
width = 684;
}
);
leftKerningGroup = U;
note = Uacute;
rightKerningGroup = U;
unicode = 00DA;
},
{
glyphname = Ubreve;
lastChange = "2015-11-25 10:44:31 +0000";
layers = (
{
layerId = "CD587521-C2B1-4DF5-9394-E26F9987D7DC";
name = "SemiBold Italic";
paths = (
{
closed = 1;
nodes = (
"474 -10 OFFCURVE",
"597 71 OFFCURVE",
"634 245 CURVE SMOOTH",
"718 644 LINE",
"557 644 LINE",
"476 260 LINE SMOOTH",
"457 170 OFFCURVE",
"411 127 OFFCURVE",
"312 127 CURVE SMOOTH",
"214 127 OFFCURVE",
"187 170 OFFCURVE",
"206 260 CURVE SMOOTH",
"287 644 LINE",
"126 644 LINE",
"42 245 LINE SMOOTH",
"9 90 OFFCURVE",
"119 -10 OFFCURVE",
"283 -10 CURVE SMOOTH"
);
},
{
closed = 1;
nodes = (
"540 688 OFFCURVE",
"615 750 OFFCURVE",
"638 860 CURVE",
"526 860 LINE",
"517 814 OFFCURVE",
"489 778 OFFCURVE",
"440 778 CURVE SMOOTH",
"388 778 OFFCURVE",
"379 809 OFFCURVE",
"390 860 CURVE",
"291 860 LINE",
"268 750 OFFCURVE",
"325 688 OFFCURVE",
"427 688 CURVE SMOOTH"
);
}
);
width = 684;
}
);
leftKerningGroup = U;
note = Ubreve;
rightKerningGroup = U;
unicode = 016C;
},
{
glyphname = Ucaron;
lastChange = "2015-11-25 10:44:32 +0000";
layers = (
{
layerId = "CD587521-C2B1-4DF5-9394-E26F9987D7DC";
name = "SemiBold Italic";
paths = (
{
closed = 1;
nodes = (
"474 -10 OFFCURVE",
"597 71 OFFCURVE",
"634 245 CURVE SMOOTH",
"718 644 LINE",
"557 644 LINE",
"476 260 LINE SMOOTH",
"457 170 OFFCURVE",
"411 127 OFFCURVE",
"312 127 CURVE SMOOTH",
"214 127 OFFCURVE",
"187 170 OFFCURVE",
"206 260 CURVE SMOOTH",
"287 644 LINE",
"126 644 LINE",
"42 245 LINE SMOOTH",
"9 90 OFFCURVE",
"119 -10 OFFCURVE",
"283 -10 CURVE SMOOTH"
);
},
{
closed = 1;
nodes = (
"480 688 LINE",
"665 875 LINE",
"539 875 LINE",
"442 771 LINE",
"392 875 LINE",
"276 875 LINE",
"380 688 LINE"
);
}
);
width = 684;
}
);
leftKerningGroup = U;
note = Ucaron;
rightKerningGroup = U;
unicode = 01D3;
},
{
glyphname = Ucircumflex;
lastChange = "2015-11-25 10:44:30 +0000";
layers = (
{
layerId = "CD587521-C2B1-4DF5-9394-E26F9987D7DC";
name = "SemiBold Italic";
paths = (
{
closed = 1;
nodes = (
"474 -10 OFFCURVE",
"597 71 OFFCURVE",
"634 245 CURVE SMOOTH",
"718 644 LINE",
"557 644 LINE",
"476 260 LINE SMOOTH",
"457 170 OFFCURVE",
"411 127 OFFCURVE",
"312 127 CURVE SMOOTH",
"214 127 OFFCURVE",
"187 170 OFFCURVE",
"206 260 CURVE SMOOTH",
"287 644 LINE",
"126 644 LINE",
"42 245 LINE SMOOTH",
"9 90 OFFCURVE",
"119 -10 OFFCURVE",
"283 -10 CURVE SMOOTH"
);
},
{
closed = 1;
nodes = (
"365 687 LINE",
"459 791 LINE",
"512 687 LINE",
"626 687 LINE",
"521 874 LINE",
"421 874 LINE",
"237 687 LINE"
);
}
);
width = 684;
}
);
leftKerningGroup = U;
note = Ucircumflex;
rightKerningGroup = U;
unicode = 00DB;
},
{
glyphname = Udieresis;
lastChange = "2015-11-25 10:44:31 +0000";
layers = (
{
layerId = "CD587521-C2B1-4DF5-9394-E26F9987D7DC";
name = "SemiBold Italic";
paths = (
{
closed = 1;
nodes = (
"474 -10 OFFCURVE",
"597 71 OFFCURVE",
"634 245 CURVE SMOOTH",
"718 644 LINE",
"557 644 LINE",
"476 260 LINE SMOOTH",
"457 170 OFFCURVE",
"411 127 OFFCURVE",
"312 127 CURVE SMOOTH",
"214 127 OFFCURVE",
"187 170 OFFCURVE",
"206 260 CURVE SMOOTH",
"287 644 LINE",
"126 644 LINE",
"42 245 LINE SMOOTH",
"9 90 OFFCURVE",
"119 -10 OFFCURVE",
"283 -10 CURVE SMOOTH"
);
},
{
closed = 1;
nodes = (
"392 714 LINE",
"416 823 LINE",
"299 823 LINE",
"275 714 LINE"
);
},
{
closed = 1;
nodes = (
"598 714 LINE",
"622 823 LINE",
"504 823 LINE",
"480 714 LINE"
);
}
);
width = 684;
}
);
leftKerningGroup = U;
note = Udieresis;
rightKerningGroup = U;
unicode = 00DC;
},
{
glyphname = Udieresisacute;
lastChange = "2015-11-25 10:44:31 +0000";
layers = (
{
layerId = "CD587521-C2B1-4DF5-9394-E26F9987D7DC";
name = "SemiBold Italic";
paths = (
{
closed = 1;
nodes = (
"474 -10 OFFCURVE",
"597 71 OFFCURVE",
"634 245 CURVE SMOOTH",
"718 644 LINE",
"557 644 LINE",
"476 260 LINE SMOOTH",
"457 170 OFFCURVE",
"411 127 OFFCURVE",
"312 127 CURVE SMOOTH",
"214 127 OFFCURVE",
"187 170 OFFCURVE",
"206 260 CURVE SMOOTH",
"287 644 LINE",
"126 644 LINE",
"42 245 LINE SMOOTH",
"9 90 OFFCURVE",
"119 -10 OFFCURVE",
"283 -10 CURVE SMOOTH"
);
},
{
closed = 1;
nodes = (
"385 689 LINE",
"407 792 LINE",
"293 792 LINE",
"271 689 LINE"
);
},
{
closed = 1;
nodes = (
"593 689 LINE",
"615 792 LINE",
"501 792 LINE",
"479 689 LINE"
);
},
{
closed = 1;
nodes = (
"511 815 LINE",
"608 948 LINE",
"487 948 LINE",
"400 815 LINE"
);
}
);
width = 684;
}
);
leftKerningGroup = U;
note = Udieresisacute;
rightKerningGroup = U;
unicode = 01D7;
},
{
glyphname = Udieresiscaron;
lastChange = "2015-11-25 10:44:31 +0000";
layers = (
{
layerId = "CD587521-C2B1-4DF5-9394-E26F9987D7DC";
name = "SemiBold Italic";
paths = (
{
closed = 1;
nodes = (
"474 -10 OFFCURVE",
"597 71 OFFCURVE",
"634 245 CURVE SMOOTH",
"718 644 LINE",
"557 644 LINE",
"476 260 LINE SMOOTH",
"457 170 OFFCURVE",
"411 127 OFFCURVE",
"312 127 CURVE SMOOTH",
"214 127 OFFCURVE",
"187 170 OFFCURVE",
"206 260 CURVE SMOOTH",
"287 644 LINE",
"126 644 LINE",
"42 245 LINE SMOOTH",
"9 90 OFFCURVE",
"119 -10 OFFCURVE",
"283 -10 CURVE SMOOTH"
);
},
{
closed = 1;
nodes = (
"385 688 LINE",
"407 791 LINE",
"293 791 LINE",
"271 688 LINE"
);
},
{
closed = 1;
nodes = (
"592 688 LINE",
"614 791 LINE",
"501 791 LINE",
"479 688 LINE"
);
},
{
closed = 1;
nodes = (
"515 812 LINE",
"660 939 LINE",
"538 939 LINE",
"466 866 LINE",
"424 939 LINE",
"311 939 LINE",
"404 812 LINE"
);
}
);
width = 684;
}
);
leftKerningGroup = U;
note = Udieresiscaron;
rightKerningGroup = U;
unicode = 01D9;
},
{
glyphname = Udieresisgrave;
lastChange = "2015-11-25 10:44:30 +0000";
layers = (
{
layerId = "CD587521-C2B1-4DF5-9394-E26F9987D7DC";
name = "SemiBold Italic";
paths = (
{
closed = 1;
nodes = (
"474 -10 OFFCURVE",
"597 71 OFFCURVE",
"634 245 CURVE SMOOTH",
"718 644 LINE",
"557 644 LINE",
"476 260 LINE SMOOTH",
"457 170 OFFCURVE",
"411 127 OFFCURVE",
"312 127 CURVE SMOOTH",
"214 127 OFFCURVE",
"187 170 OFFCURVE",
"206 260 CURVE SMOOTH",
"287 644 LINE",
"126 644 LINE",
"42 245 LINE SMOOTH",
"9 90 OFFCURVE",
"119 -10 OFFCURVE",
"283 -10 CURVE SMOOTH"
);
},
{
closed = 1;
nodes = (
"385 688 LINE",
"407 791 LINE",
"293 791 LINE",
"271 688 LINE"
);
},
{
closed = 1;
nodes = (
"593 688 LINE",
"615 791 LINE",
"501 791 LINE",
"479 688 LINE"
);
},
{
closed = 1;
nodes = (
"516 814 LINE",
"487 947 LINE",
"366 947 LINE",
"405 814 LINE"
);
}
);
width = 684;
}
);
leftKerningGroup = U;
note = Udieresisgrave;
rightKerningGroup = U;
unicode = 01DB;
},
{
glyphname = Udieresismacron;
lastChange = "2015-11-25 10:44:31 +0000";
layers = (
{
layerId = "CD587521-C2B1-4DF5-9394-E26F9987D7DC";
name = "SemiBold Italic";
paths = (
{
closed = 1;
nodes = (
"474 -10 OFFCURVE",
"597 71 OFFCURVE",
"634 245 CURVE SMOOTH",
"718 644 LINE",
"557 644 LINE",
"476 260 LINE SMOOTH",
"457 170 OFFCURVE",
"411 127 OFFCURVE",
"312 127 CURVE SMOOTH",
"214 127 OFFCURVE",
"187 170 OFFCURVE",
"206 260 CURVE SMOOTH",
"287 644 LINE",
"126 644 LINE",
"42 245 LINE SMOOTH",
"9 90 OFFCURVE",
"119 -10 OFFCURVE",
"283 -10 CURVE SMOOTH"
);
},
{
closed = 1;
nodes = (
"387 688 LINE",
"411 797 LINE",
"294 797 LINE",
"270 688 LINE"
);
},
{
closed = 1;
nodes = (
"593 688 LINE",
"617 797 LINE",
"499 797 LINE",
"475 688 LINE"
);
},
{
closed = 1;
nodes = (
"624 854 LINE",
"645 951 LINE",
"328 951 LINE",
"307 854 LINE"
);
}
);
width = 684;
}
);
leftKerningGroup = U;
note = Udieresismacron;
rightKerningGroup = U;
unicode = 01D5;
},
{
glyphname = Udotbelow;
lastChange = "2015-11-25 10:44:31 +0000";
layers = (
{
layerId = "CD587521-C2B1-4DF5-9394-E26F9987D7DC";
name = "SemiBold Italic";
paths = (
{
closed = 1;
nodes = (
"474 -10 OFFCURVE",
"597 71 OFFCURVE",
"634 245 CURVE SMOOTH",
"718 644 LINE",
"557 644 LINE",
"476 260 LINE SMOOTH",
"457 170 OFFCURVE",
"411 127 OFFCURVE",
"312 127 CURVE SMOOTH",
"214 127 OFFCURVE",
"187 170 OFFCURVE",
"206 260 CURVE SMOOTH",
"287 644 LINE",
"126 644 LINE",
"42 245 LINE SMOOTH",
"9 90 OFFCURVE",
"119 -10 OFFCURVE",
"283 -10 CURVE SMOOTH"
);
},
{
closed = 1;
nodes = (
"306 -179 LINE",
"329 -70 LINE",
"211 -70 LINE",
"188 -179 LINE"
);
}
);
width = 684;
}
);
leftKerningGroup = U;
note = Udotbelow;
rightKerningGroup = U;
unicode = 1EE4;
},
{
glyphname = Ugrave;
lastChange = "2015-11-25 10:44:31 +0000";
layers = (
{
layerId = "CD587521-C2B1-4DF5-9394-E26F9987D7DC";
name = "SemiBold Italic";
paths = (
{
closed = 1;
nodes = (
"474 -10 OFFCURVE",
"597 71 OFFCURVE",
"634 245 CURVE SMOOTH",
"718 644 LINE",
"557 644 LINE",
"476 260 LINE SMOOTH",
"457 170 OFFCURVE",
"411 127 OFFCURVE",
"312 127 CURVE SMOOTH",
"214 127 OFFCURVE",
"187 170 OFFCURVE",
"206 260 CURVE SMOOTH",
"287 644 LINE",
"126 644 LINE",
"42 245 LINE SMOOTH",
"9 90 OFFCURVE",
"119 -10 OFFCURVE",
"283 -10 CURVE SMOOTH"
);
},
{
closed = 1;
nodes = (
"502 688 LINE",
"460 884 LINE",
"328 884 LINE",
"379 688 LINE"
);
}
);
width = 684;
}
);
leftKerningGroup = U;
note = Ugrave;
rightKerningGroup = U;
unicode = 00D9;
},
{
glyphname = Uhookabove;
lastChange = "2015-11-25 10:44:31 +0000";
layers = (
{
layerId = "CD587521-C2B1-4DF5-9394-E26F9987D7DC";
name = "SemiBold Italic";
paths = (
{
closed = 1;
nodes = (
"474 -10 OFFCURVE",
"597 71 OFFCURVE",
"634 245 CURVE SMOOTH",
"718 644 LINE",
"557 644 LINE",
"476 260 LINE SMOOTH",
"457 170 OFFCURVE",
"411 127 OFFCURVE",
"312 127 CURVE SMOOTH",
"214 127 OFFCURVE",
"187 170 OFFCURVE",
"206 260 CURVE SMOOTH",
"287 644 LINE",
"126 644 LINE",
"42 245 LINE SMOOTH",
"9 90 OFFCURVE",
"119 -10 OFFCURVE",
"283 -10 CURVE SMOOTH"
);
},
{
closed = 1;
nodes = (
"492 688 LINE",
"501 732 LINE",
"563 746 OFFCURVE",
"594 772 OFFCURVE",
"607 829 CURVE SMOOTH",
"619 888 OFFCURVE",
"580 928 OFFCURVE",
"492 928 CURVE SMOOTH",
"449 928 OFFCURVE",
"410 923 OFFCURVE",
"382 914 CURVE",
"366 842 LINE",
"383 847 OFFCURVE",
"409 851 OFFCURVE",
"428 851 CURVE SMOOTH",
"469 851 OFFCURVE",
"491 840 OFFCURVE",
"486 815 CURVE SMOOTH",
"480 788 OFFCURVE",
"459 773 OFFCURVE",
"387 769 CURVE",
"370 688 LINE"
);
}
);
width = 684;
}
);
leftKerningGroup = U;
note = Uhookabove;
rightKerningGroup = U;
unicode = 1EE6;
},
{
glyphname = Uhorn;
lastChange = "2015-11-25 10:44:27 +0000";
layers = (
{
layerId = "CD587521-C2B1-4DF5-9394-E26F9987D7DC";
name = "SemiBold Italic";
paths = (
{
closed = 1;
nodes = (
"474 -10 OFFCURVE",
"597 71 OFFCURVE",
"634 245 CURVE SMOOTH",
"683 479 LINE",
"830 481 OFFCURVE",
"900 532 OFFCURVE",
"933 688 CURVE",
"818 688 LINE",
"802 612 OFFCURVE",
"770 587 OFFCURVE",
"705 585 CURVE",
"718 644 LINE",
"557 644 LINE",
"476 260 LINE SMOOTH",
"457 170 OFFCURVE",
"411 127 OFFCURVE",
"312 127 CURVE SMOOTH",
"214 127 OFFCURVE",
"187 170 OFFCURVE",
"206 260 CURVE SMOOTH",
"287 644 LINE",
"126 644 LINE",
"42 245 LINE SMOOTH",
"9 90 OFFCURVE",
"119 -10 OFFCURVE",
"283 -10 CURVE SMOOTH"
);
}
);
width = 854;
}
);
leftKerningGroup = U;
note = Uhorn;
rightKerningGroup = U;
unicode = 01AF;
},
{
glyphname = Uhornacute;
lastChange = "2015-11-25 10:48:30 +0000";
layers = (
{
layerId = "CD587521-C2B1-4DF5-9394-E26F9987D7DC";
name = "SemiBold Italic";
paths = (
{
closed = 1;
nodes = (
"474 -10 OFFCURVE",
"597 71 OFFCURVE",
"634 245 CURVE SMOOTH",
"683 479 LINE",
"830 481 OFFCURVE",
"900 532 OFFCURVE",
"933 688 CURVE",
"818 688 LINE",
"802 612 OFFCURVE",
"770 587 OFFCURVE",
"705 585 CURVE",
"718 644 LINE",
"557 644 LINE",
"476 260 LINE SMOOTH",
"457 170 OFFCURVE",
"411 127 OFFCURVE",
"312 127 CURVE SMOOTH",
"214 127 OFFCURVE",
"187 170 OFFCURVE",
"206 260 CURVE SMOOTH",
"287 644 LINE",
"126 644 LINE",
"42 245 LINE SMOOTH",
"9 90 OFFCURVE",
"119 -10 OFFCURVE",
"283 -10 CURVE SMOOTH"
);
},
{
closed = 1;
nodes = (
"492 688 LINE",
"626 884 LINE",
"494 884 LINE",
"368 688 LINE"
);
}
);
width = 854;
}
);
leftKerningGroup = U;
note = Uhornacute;
rightKerningGroup = U;
unicode = 1EE8;
},
{
glyphname = Uhorndotbelow;
lastChange = "2015-11-25 10:44:31 +0000";
layers = (
{
layerId = "CD587521-C2B1-4DF5-9394-E26F9987D7DC";
name = "SemiBold Italic";
paths = (
{
closed = 1;
nodes = (
"474 -10 OFFCURVE",
"597 71 OFFCURVE",
"634 245 CURVE SMOOTH",
"683 479 LINE",
"830 481 OFFCURVE",
"900 532 OFFCURVE",
"933 688 CURVE",
"818 688 LINE",
"802 612 OFFCURVE",
"770 587 OFFCURVE",
"705 585 CURVE",
"718 644 LINE",
"557 644 LINE",
"476 260 LINE SMOOTH",
"457 170 OFFCURVE",
"411 127 OFFCURVE",
"312 127 CURVE SMOOTH",
"214 127 OFFCURVE",
"187 170 OFFCURVE",
"206 260 CURVE SMOOTH",
"287 644 LINE",
"126 644 LINE",
"42 245 LINE SMOOTH",
"9 90 OFFCURVE",
"119 -10 OFFCURVE",
"283 -10 CURVE SMOOTH"
);
},
{
closed = 1;
nodes = (
"308 -179 LINE",
"331 -70 LINE",
"213 -70 LINE",
"190 -179 LINE"
);
}
);
width = 854;
}
);
leftKerningGroup = U;
note = Uhorndotbelow;
rightKerningGroup = U;
unicode = 1EF0;
},
{
glyphname = Uhorngrave;
lastChange = "2015-11-25 10:48:30 +0000";
layers = (
{
layerId = "CD587521-C2B1-4DF5-9394-E26F9987D7DC";
name = "SemiBold Italic";
paths = (
{
closed = 1;
nodes = (
"474 -10 OFFCURVE",
"597 71 OFFCURVE",
"634 245 CURVE SMOOTH",
"683 479 LINE",
"830 481 OFFCURVE",
"900 532 OFFCURVE",
"933 688 CURVE",
"818 688 LINE",
"802 612 OFFCURVE",
"770 587 OFFCURVE",
"705 585 CURVE",
"718 644 LINE",
"557 644 LINE",
"476 260 LINE SMOOTH",
"457 170 OFFCURVE",
"411 127 OFFCURVE",
"312 127 CURVE SMOOTH",
"214 127 OFFCURVE",
"187 170 OFFCURVE",
"206 260 CURVE SMOOTH",
"287 644 LINE",
"126 644 LINE",
"42 245 LINE SMOOTH",
"9 90 OFFCURVE",
"119 -10 OFFCURVE",
"283 -10 CURVE SMOOTH"
);
},
{
closed = 1;
nodes = (
"501 688 LINE",
"459 884 LINE",
"327 884 LINE",
"378 688 LINE"
);
}
);
width = 854;
}
);
leftKerningGroup = U;
note = Uhorngrave;
rightKerningGroup = U;
unicode = 1EEA;
},
{
glyphname = Uhornhookabove;
lastChange = "2015-11-25 10:48:30 +0000";
layers = (
{
layerId = "CD587521-C2B1-4DF5-9394-E26F9987D7DC";
name = "SemiBold Italic";
paths = (
{
closed = 1;
nodes = (
"474 -10 OFFCURVE",
"597 71 OFFCURVE",
"634 245 CURVE SMOOTH",
"683 479 LINE",
"830 481 OFFCURVE",
"900 532 OFFCURVE",
"933 688 CURVE",
"818 688 LINE",
"802 612 OFFCURVE",
"770 587 OFFCURVE",
"705 585 CURVE",
"718 644 LINE",
"557 644 LINE",
"476 260 LINE SMOOTH",
"457 170 OFFCURVE",
"411 127 OFFCURVE",
"312 127 CURVE SMOOTH",
"214 127 OFFCURVE",
"187 170 OFFCURVE",
"206 260 CURVE SMOOTH",
"287 644 LINE",
"126 644 LINE",
"42 245 LINE SMOOTH",
"9 90 OFFCURVE",
"119 -10 OFFCURVE",
"283 -10 CURVE SMOOTH"
);
},
{
closed = 1;
nodes = (
"481 688 LINE",
"490 732 LINE",
"552 746 OFFCURVE",
"583 772 OFFCURVE",
"596 829 CURVE SMOOTH",
"608 888 OFFCURVE",
"569 928 OFFCURVE",
"481 928 CURVE SMOOTH",
"438 928 OFFCURVE",
"399 923 OFFCURVE",
"371 914 CURVE",
"355 842 LINE",
"372 847 OFFCURVE",
"398 851 OFFCURVE",
"417 851 CURVE SMOOTH",
"458 851 OFFCURVE",
"480 840 OFFCURVE",
"475 815 CURVE SMOOTH",
"469 788 OFFCURVE",
"448 773 OFFCURVE",
"376 769 CURVE",
"359 688 LINE"
);
}
);
width = 854;
}
);
leftKerningGroup = U;
note = Uhornhookabove;
rightKerningGroup = U;
unicode = 1EEC;
},
{
glyphname = Uhorntilde;
lastChange = "2015-11-25 10:44:31 +0000";
layers = (
{
layerId = "CD587521-C2B1-4DF5-9394-E26F9987D7DC";
name = "SemiBold Italic";
paths = (
{
closed = 1;
nodes = (
"474 -10 OFFCURVE",
"597 71 OFFCURVE",
"634 245 CURVE SMOOTH",
"683 479 LINE",
"830 481 OFFCURVE",
"900 532 OFFCURVE",
"933 688 CURVE",
"818 688 LINE",
"802 612 OFFCURVE",
"770 587 OFFCURVE",
"705 585 CURVE",
"718 644 LINE",
"557 644 LINE",
"476 260 LINE SMOOTH",
"457 170 OFFCURVE",
"411 127 OFFCURVE",
"312 127 CURVE SMOOTH",
"214 127 OFFCURVE",
"187 170 OFFCURVE",
"206 260 CURVE SMOOTH",
"287 644 LINE",
"126 644 LINE",
"42 245 LINE SMOOTH",
"9 90 OFFCURVE",
"119 -10 OFFCURVE",
"283 -10 CURVE SMOOTH"
);
},
{
closed = 1;
nodes = (
"564 694 OFFCURVE",
"600 708 OFFCURVE",
"617 726 CURVE",
"640 834 LINE",
"618 810 OFFCURVE",
"585 795 OFFCURVE",
"545 795 CURVE SMOOTH",
"486 795 OFFCURVE",
"447 836 OFFCURVE",
"383 836 CURVE SMOOTH",
"346 836 OFFCURVE",
"308 822 OFFCURVE",
"285 804 CURVE",
"262 697 LINE",
"291 721 OFFCURVE",
"325 735 OFFCURVE",
"364 735 CURVE SMOOTH",
"416 735 OFFCURVE",
"464 694 OFFCURVE",
"526 694 CURVE SMOOTH"
);
}
);
width = 854;
}
);
leftKerningGroup = U;
note = Uhorntilde;
rightKerningGroup = U;
unicode = 1EEE;
},
{
glyphname = Uhungarumlaut;
lastChange = "2015-11-25 10:44:32 +0000";
layers = (
{
layerId = "CD587521-C2B1-4DF5-9394-E26F9987D7DC";
name = "SemiBold Italic";
paths = (
{
closed = 1;
nodes = (
"474 -10 OFFCURVE",
"597 71 OFFCURVE",
"634 245 CURVE SMOOTH",
"718 644 LINE",
"557 644 LINE",
"476 260 LINE SMOOTH",
"457 170 OFFCURVE",
"411 127 OFFCURVE",
"312 127 CURVE SMOOTH",
"214 127 OFFCURVE",
"187 170 OFFCURVE",
"206 260 CURVE SMOOTH",
"287 644 LINE",
"126 644 LINE",
"42 245 LINE SMOOTH",
"9 90 OFFCURVE",
"119 -10 OFFCURVE",
"283 -10 CURVE SMOOTH"
);
},
{
closed = 1;
nodes = (
"356 687 LINE",
"490 867 LINE",
"352 867 LINE",
"232 687 LINE"
);
},
{
closed = 1;
nodes = (
"586 687 LINE",
"721 867 LINE",
"582 867 LINE",
"462 687 LINE"
);
}
);
width = 684;
}
);
leftKerningGroup = U;
note = Uhungarumlaut;
rightKerningGroup = U;
unicode = 0170;
},
{
glyphname = Umacron;
lastChange = "2015-11-25 10:44:31 +0000";
layers = (
{
layerId = "CD587521-C2B1-4DF5-9394-E26F9987D7DC";
name = "SemiBold Italic";
paths = (
{
closed = 1;
nodes = (
"474 -10 OFFCURVE",
"597 71 OFFCURVE",
"634 245 CURVE SMOOTH",
"718 644 LINE",
"557 644 LINE",
"476 260 LINE SMOOTH",
"457 170 OFFCURVE",
"411 127 OFFCURVE",
"312 127 CURVE SMOOTH",
"214 127 OFFCURVE",
"187 170 OFFCURVE",
"206 260 CURVE SMOOTH",
"287 644 LINE",
"126 644 LINE",
"42 245 LINE SMOOTH",
"9 90 OFFCURVE",
"119 -10 OFFCURVE",
"283 -10 CURVE SMOOTH"
);
},
{
closed = 1;
nodes = (
"596 723 LINE",
"617 820 LINE",
"300 820 LINE",
"279 723 LINE"
);
}
);
width = 684;
}
);
leftKerningGroup = U;
note = Umacron;
rightKerningGroup = U;
unicode = 016A;
},
{
glyphname = Uogonek;
lastChange = "2015-11-25 10:44:27 +0000";
layers = (
{
layerId = "CD587521-C2B1-4DF5-9394-E26F9987D7DC";
name = "SemiBold Italic";
paths = (
{
closed = 1;
nodes = (
"300 -220 OFFCURVE",
"338 -213 OFFCURVE",
"359 -205 CURVE",
"376 -124 LINE",
"363 -131 OFFCURVE",
"341 -135 OFFCURVE",
"324 -135 CURVE SMOOTH",
"298 -135 OFFCURVE",
"283 -124 OFFCURVE",
"289 -97 CURVE SMOOTH",
"296 -63 OFFCURVE",
"325 -31 OFFCURVE",
"365 -4 CURVE",
"509 16 OFFCURVE",
"602 97 OFFCURVE",
"634 245 CURVE SMOOTH",
"718 644 LINE",
"557 644 LINE",
"476 260 LINE SMOOTH",
"457 170 OFFCURVE",
"411 127 OFFCURVE",
"312 127 CURVE SMOOTH",
"214 127 OFFCURVE",
"187 170 OFFCURVE",
"206 260 CURVE SMOOTH",
"287 644 LINE",
"126 644 LINE",
"42 245 LINE SMOOTH",
"11 102 OFFCURVE",
"102 5 OFFCURVE",
"245 -8 CURVE",
"201 -38 OFFCURVE",
"169 -80 OFFCURVE",
"160 -126 CURVE SMOOTH",
"146 -191 OFFCURVE",
"195 -220 OFFCURVE",
"263 -220 CURVE SMOOTH"
);
}
);
width = 684;
}
);
leftKerningGroup = U;
note = Uogonek;
rightKerningGroup = U;
unicode = 0172;
},
{
glyphname = Uring;
lastChange = "2015-11-25 10:44:31 +0000";
layers = (
{
layerId = "CD587521-C2B1-4DF5-9394-E26F9987D7DC";
name = "SemiBold Italic";
paths = (
{
closed = 1;
nodes = (
"474 -10 OFFCURVE",
"597 71 OFFCURVE",
"634 245 CURVE SMOOTH",
"718 644 LINE",
"557 644 LINE",
"476 260 LINE SMOOTH",
"457 170 OFFCURVE",
"411 127 OFFCURVE",
"312 127 CURVE SMOOTH",
"214 127 OFFCURVE",
"187 170 OFFCURVE",
"206 260 CURVE SMOOTH",
"287 644 LINE",
"126 644 LINE",
"42 245 LINE SMOOTH",
"9 90 OFFCURVE",
"119 -10 OFFCURVE",
"283 -10 CURVE SMOOTH"
);
},
{
closed = 1;
nodes = (
"519 687 OFFCURVE",
"573 742 OFFCURVE",
"588 812 CURVE SMOOTH",
"603 883 OFFCURVE",
"567 938 OFFCURVE",
"483 938 CURVE SMOOTH",
"397 938 OFFCURVE",
"341 883 OFFCURVE",
"326 812 CURVE SMOOTH",
"311 742 OFFCURVE",
"349 687 OFFCURVE",
"430 687 CURVE SMOOTH"
);
},
{
closed = 1;
nodes = (
"404 757 OFFCURVE",
"393 781 OFFCURVE",
"399 812 CURVE SMOOTH",
"406 843 OFFCURVE",
"433 868 OFFCURVE",
"468 868 CURVE SMOOTH",
"512 868 OFFCURVE",
"521 843 OFFCURVE",
"514 812 CURVE SMOOTH",
"508 781 OFFCURVE",
"482 757 OFFCURVE",
"445 757 CURVE SMOOTH"
);
}
);
width = 684;
}
);
leftKerningGroup = U;
note = Uring;
rightKerningGroup = U;
unicode = 016E;
},
{
glyphname = Utilde;
lastChange = "2015-11-25 10:44:31 +0000";
layers = (
{
layerId = "CD587521-C2B1-4DF5-9394-E26F9987D7DC";
name = "SemiBold Italic";
paths = (
{
closed = 1;
nodes = (
"474 -10 OFFCURVE",
"597 71 OFFCURVE",
"634 245 CURVE SMOOTH",
"718 644 LINE",
"557 644 LINE",
"476 260 LINE SMOOTH",
"457 170 OFFCURVE",
"411 127 OFFCURVE",
"312 127 CURVE SMOOTH",
"214 127 OFFCURVE",
"187 170 OFFCURVE",
"206 260 CURVE SMOOTH",
"287 644 LINE",
"126 644 LINE",
"42 245 LINE SMOOTH",
"9 90 OFFCURVE",
"119 -10 OFFCURVE",
"283 -10 CURVE SMOOTH"
);
},
{
closed = 1;
nodes = (
"562 698 OFFCURVE",
"598 712 OFFCURVE",
"615 730 CURVE",
"638 838 LINE",
"616 814 OFFCURVE",
"583 799 OFFCURVE",
"543 799 CURVE SMOOTH",
"484 799 OFFCURVE",
"445 840 OFFCURVE",
"381 840 CURVE SMOOTH",
"344 840 OFFCURVE",
"306 826 OFFCURVE",
"283 808 CURVE",
"260 701 LINE",
"289 725 OFFCURVE",
"323 739 OFFCURVE",
"362 739 CURVE SMOOTH",
"414 739 OFFCURVE",
"462 698 OFFCURVE",
"524 698 CURVE SMOOTH"
);
}
);
width = 684;
}
);
leftKerningGroup = U;
note = Utilde;
rightKerningGroup = U;
unicode = 0168;
},
{
glyphname = V;
lastChange = "2015-11-25 10:44:27 +0000";
layers = (
{
layerId = "CD587521-C2B1-4DF5-9394-E26F9987D7DC";
name = "SemiBold Italic";
paths = (
{
closed = 1;
nodes = (
"395 0 LINE",
"777 644 LINE",
"602 644 LINE",
"340 184 LINE",
"273 644 LINE",
"111 644 LINE",
"221 0 LINE"
);
}
);
width = 728;
}
);
note = V;
unicode = 0056;
},
{
glyphname = W;
lastChange = "2015-11-25 10:44:27 +0000";
layers = (
{
layerId = "CD587521-C2B1-4DF5-9394-E26F9987D7DC";
name = "SemiBold Italic";
paths = (
{
closed = 1;
nodes = (
"278 0 LINE",
"473 372 LINE",
"502 0 LINE",
"647 0 LINE",
"932 644 LINE",
"774 644 LINE",
"603 255 LINE",
"574 644 LINE",
"442 644 LINE",
"423 553 LINE",
"272 256 LINE",
"269 644 LINE",
"111 644 LINE",
"125 0 LINE"
);
}
);
width = 883;
}
);
leftKerningGroup = W;
note = W;
rightKerningGroup = W;
unicode = 0057;
},
{
glyphname = Wacute;
lastChange = "2015-11-25 10:44:32 +0000";
layers = (
{
layerId = "CD587521-C2B1-4DF5-9394-E26F9987D7DC";
name = "SemiBold Italic";
paths = (
{
closed = 1;
nodes = (
"278 0 LINE",
"473 372 LINE",
"502 0 LINE",
"647 0 LINE",
"932 644 LINE",
"774 644 LINE",
"603 255 LINE",
"574 644 LINE",
"442 644 LINE",
"423 553 LINE",
"272 256 LINE",
"269 644 LINE",
"111 644 LINE",
"125 0 LINE"
);
},
{
closed = 1;
nodes = (
"579 688 LINE",
"713 884 LINE",
"581 884 LINE",
"455 688 LINE"
);
}
);
width = 883;
}
);
leftKerningGroup = W;
note = Wacute;
rightKerningGroup = W;
unicode = 1E82;
},
{
glyphname = Wcircumflex;
lastChange = "2015-11-25 10:44:30 +0000";
layers = (
{
layerId = "CD587521-C2B1-4DF5-9394-E26F9987D7DC";
name = "SemiBold Italic";
paths = (
{
closed = 1;
nodes = (
"278 0 LINE",
"473 372 LINE",
"502 0 LINE",
"647 0 LINE",
"932 644 LINE",
"774 644 LINE",
"603 255 LINE",
"574 644 LINE",
"442 644 LINE",
"423 553 LINE",
"272 256 LINE",
"269 644 LINE",
"111 644 LINE",
"125 0 LINE"
);
},
{
closed = 1;
nodes = (
"469 688 LINE",
"563 792 LINE",
"616 688 LINE",
"730 688 LINE",
"625 875 LINE",
"525 875 LINE",
"341 688 LINE"
);
}
);
width = 883;
}
);
leftKerningGroup = W;
note = Wcircumflex;
rightKerningGroup = W;
unicode = 0174;
},
{
glyphname = Wdieresis;
lastChange = "2015-11-25 10:44:31 +0000";
layers = (
{
layerId = "CD587521-C2B1-4DF5-9394-E26F9987D7DC";
name = "SemiBold Italic";
paths = (
{
closed = 1;
nodes = (
"278 0 LINE",
"473 372 LINE",
"502 0 LINE",
"647 0 LINE",
"932 644 LINE",
"774 644 LINE",
"603 255 LINE",
"574 644 LINE",
"442 644 LINE",
"423 553 LINE",
"272 256 LINE",
"269 644 LINE",
"111 644 LINE",
"125 0 LINE"
);
},
{
closed = 1;
nodes = (
"496 714 LINE",
"520 823 LINE",
"403 823 LINE",
"379 714 LINE"
);
},
{
closed = 1;
nodes = (
"702 714 LINE",
"726 823 LINE",
"608 823 LINE",
"584 714 LINE"
);
}
);
width = 883;
}
);
leftKerningGroup = W;
note = Wdieresis;
rightKerningGroup = W;
unicode = 1E84;
},
{
glyphname = Wgrave;
lastChange = "2015-11-25 10:44:32 +0000";
layers = (
{
layerId = "CD587521-C2B1-4DF5-9394-E26F9987D7DC";
name = "SemiBold Italic";
paths = (
{
closed = 1;
nodes = (
"278 0 LINE",
"473 372 LINE",
"502 0 LINE",
"647 0 LINE",
"932 644 LINE",
"774 644 LINE",
"603 255 LINE",
"574 644 LINE",
"442 644 LINE",
"423 553 LINE",
"272 256 LINE",
"269 644 LINE",
"111 644 LINE",
"125 0 LINE"
);
},
{
closed = 1;
nodes = (
"583 688 LINE",
"541 884 LINE",
"409 884 LINE",
"460 688 LINE"
);
}
);
width = 883;
}
);
leftKerningGroup = W;
note = Wgrave;
rightKerningGroup = W;
unicode = 1E80;
},
{
glyphname = X;
lastChange = "2015-11-25 10:44:27 +0000";
layers = (
{
layerId = "CD587521-C2B1-4DF5-9394-E26F9987D7DC";
name = "SemiBold Italic";
paths = (
{
closed = 1;
nodes = (
"169 0 LINE",
"348 195 LINE",
"446 0 LINE",
"640 0 LINE",
"473 324 LINE",
"769 644 LINE",
"577 644 LINE",
"403 452 LINE",
"310 644 LINE",
"118 644 LINE",
"278 324 LINE",
"-25 0 LINE"
);
}
);
width = 727;
}
);
note = X;
unicode = 0058;
},
{
glyphname = Y;
lastChange = "2015-11-25 10:44:27 +0000";
layers = (
{
layerId = "CD587521-C2B1-4DF5-9394-E26F9987D7DC";
name = "SemiBold Italic";
paths = (
{
closed = 1;
nodes = (
"368 0 LINE",
"418 237 LINE",
"735 644 LINE",
"561 644 LINE",
"361 377 LINE",
"273 644 LINE",
"111 644 LINE",
"256 237 LINE",
"206 0 LINE"
);
}
);
width = 686;
}
);
leftKerningGroup = Y;
note = Y;
rightKerningGroup = Y;
unicode = 0059;
},
{
glyphname = Yacute;
lastChange = "2015-11-25 10:44:31 +0000";
layers = (
{
layerId = "CD587521-C2B1-4DF5-9394-E26F9987D7DC";
name = "SemiBold Italic";
paths = (
{
closed = 1;
nodes = (
"368 0 LINE",
"418 237 LINE",
"735 644 LINE",
"561 644 LINE",
"361 377 LINE",
"273 644 LINE",
"111 644 LINE",
"256 237 LINE",
"206 0 LINE"
);
},
{
closed = 1;
nodes = (
"489 688 LINE",
"623 884 LINE",
"491 884 LINE",
"365 688 LINE"
);
}
);
width = 686;
}
);
leftKerningGroup = Y;
note = Yacute;
rightKerningGroup = Y;
unicode = 00DD;
},
{
glyphname = Ycircumflex;
lastChange = "2015-11-25 10:44:30 +0000";
layers = (
{
layerId = "CD587521-C2B1-4DF5-9394-E26F9987D7DC";
name = "SemiBold Italic";
paths = (
{
closed = 1;
nodes = (
"368 0 LINE",
"418 237 LINE",
"735 644 LINE",
"561 644 LINE",
"361 377 LINE",
"273 644 LINE",
"111 644 LINE",
"256 237 LINE",
"206 0 LINE"
);
},
{
closed = 1;
nodes = (
"366 688 LINE",
"460 792 LINE",
"513 688 LINE",
"627 688 LINE",
"522 875 LINE",
"422 875 LINE",
"238 688 LINE"
);
}
);
width = 686;
}
);
leftKerningGroup = Y;
note = Ycircumflex;
rightKerningGroup = Y;
unicode = 0176;
},
{
glyphname = Ydieresis;
lastChange = "2015-11-25 10:44:31 +0000";
layers = (
{
layerId = "CD587521-C2B1-4DF5-9394-E26F9987D7DC";
name = "SemiBold Italic";
paths = (
{
closed = 1;
nodes = (
"368 0 LINE",
"418 237 LINE",
"735 644 LINE",
"561 644 LINE",
"361 377 LINE",
"273 644 LINE",
"111 644 LINE",
"256 237 LINE",
"206 0 LINE"
);
},
{
closed = 1;
nodes = (
"394 714 LINE",
"418 823 LINE",
"301 823 LINE",
"277 714 LINE"
);
},
{
closed = 1;
nodes = (
"600 714 LINE",
"624 823 LINE",
"506 823 LINE",
"482 714 LINE"
);
}
);
width = 686;
}
);
leftKerningGroup = Y;
note = Ydieresis;
rightKerningGroup = Y;
unicode = 0178;
},
{
glyphname = Ydotaccent;
lastChange = "2015-11-25 10:44:31 +0000";
layers = (
{
layerId = "CD587521-C2B1-4DF5-9394-E26F9987D7DC";
name = "SemiBold Italic";
paths = (
{
closed = 1;
nodes = (
"368 0 LINE",
"418 237 LINE",
"735 644 LINE",
"561 644 LINE",
"361 377 LINE",
"273 644 LINE",
"111 644 LINE",
"256 237 LINE",
"206 0 LINE"
);
},
{
closed = 1;
nodes = (
"495 714 LINE",
"519 823 LINE",
"402 823 LINE",
"378 714 LINE"
);
}
);
width = 686;
}
);
leftKerningGroup = Y;
note = Ydotaccent;
rightKerningGroup = Y;
unicode = 1E8E;
},
{
glyphname = Ydotbelow;
lastChange = "2015-11-25 10:44:32 +0000";
layers = (
{
layerId = "CD587521-C2B1-4DF5-9394-E26F9987D7DC";
name = "SemiBold Italic";
paths = (
{
closed = 1;
nodes = (
"368 0 LINE",
"418 237 LINE",
"735 644 LINE",
"561 644 LINE",
"361 377 LINE",
"273 644 LINE",
"111 644 LINE",
"256 237 LINE",
"206 0 LINE"
);
},
{
closed = 1;
nodes = (
"309 -173 LINE",
"332 -64 LINE",
"214 -64 LINE",
"191 -173 LINE"
);
}
);
width = 686;
}
);
leftKerningGroup = Y;
note = Ydotbelow;
rightKerningGroup = Y;
unicode = 1EF4;
},
{
glyphname = Ygrave;
lastChange = "2015-11-25 10:44:31 +0000";
layers = (
{
layerId = "CD587521-C2B1-4DF5-9394-E26F9987D7DC";
name = "SemiBold Italic";
paths = (
{
closed = 1;
nodes = (
"368 0 LINE",
"418 237 LINE",
"735 644 LINE",
"561 644 LINE",
"361 377 LINE",
"273 644 LINE",
"111 644 LINE",
"256 237 LINE",
"206 0 LINE"
);
},
{
closed = 1;
nodes = (
"496 688 LINE",
"454 884 LINE",
"322 884 LINE",
"373 688 LINE"
);
}
);
width = 686;
}
);
leftKerningGroup = Y;
note = Ygrave;
rightKerningGroup = Y;
unicode = 1EF2;
},
{
glyphname = Yhookabove;
lastChange = "2015-11-25 10:44:31 +0000";
layers = (
{
layerId = "CD587521-C2B1-4DF5-9394-E26F9987D7DC";
name = "SemiBold Italic";
paths = (
{
closed = 1;
nodes = (
"368 0 LINE",
"418 237 LINE",
"735 644 LINE",
"561 644 LINE",
"361 377 LINE",
"273 644 LINE",
"111 644 LINE",
"256 237 LINE",
"206 0 LINE"
);
},
{
closed = 1;
nodes = (
"490 688 LINE",
"499 732 LINE",
"561 746 OFFCURVE",
"592 772 OFFCURVE",
"605 829 CURVE SMOOTH",
"617 888 OFFCURVE",
"578 928 OFFCURVE",
"490 928 CURVE SMOOTH",
"447 928 OFFCURVE",
"408 923 OFFCURVE",
"380 914 CURVE",
"364 842 LINE",
"381 847 OFFCURVE",
"407 851 OFFCURVE",
"426 851 CURVE SMOOTH",
"467 851 OFFCURVE",
"489 840 OFFCURVE",
"484 815 CURVE SMOOTH",
"478 788 OFFCURVE",
"457 773 OFFCURVE",
"385 769 CURVE",
"368 688 LINE"
);
}
);
width = 686;
}
);
leftKerningGroup = Y;
note = Yhookabove;
rightKerningGroup = Y;
unicode = 1EF6;
},
{
glyphname = Ytilde;
lastChange = "2015-11-25 10:44:31 +0000";
layers = (
{
layerId = "CD587521-C2B1-4DF5-9394-E26F9987D7DC";
name = "SemiBold Italic";
paths = (
{
closed = 1;
nodes = (
"368 0 LINE",
"418 237 LINE",
"735 644 LINE",
"561 644 LINE",
"361 377 LINE",
"273 644 LINE",
"111 644 LINE",
"256 237 LINE",
"206 0 LINE"
);
},
{
closed = 1;
nodes = (
"563 698 OFFCURVE",
"599 712 OFFCURVE",
"616 730 CURVE",
"639 838 LINE",
"617 814 OFFCURVE",
"584 799 OFFCURVE",
"544 799 CURVE SMOOTH",
"485 799 OFFCURVE",
"446 840 OFFCURVE",
"382 840 CURVE SMOOTH",
"345 840 OFFCURVE",
"307 826 OFFCURVE",
"284 808 CURVE",
"261 701 LINE",
"290 725 OFFCURVE",
"324 739 OFFCURVE",
"363 739 CURVE SMOOTH",
"415 739 OFFCURVE",
"463 698 OFFCURVE",
"525 698 CURVE SMOOTH"
);
}
);
width = 686;
}
);
leftKerningGroup = Y;
note = Ytilde;
rightKerningGroup = Y;
unicode = 1EF8;
},
{
glyphname = Z;
lastChange = "2015-11-25 10:44:27 +0000";
layers = (
{
layerId = "CD587521-C2B1-4DF5-9394-E26F9987D7DC";
name = "SemiBold Italic";
paths = (
{
closed = 1;
nodes = (
"494 0 LINE",
"520 124 LINE",
"215 124 LINE",
"605 554 LINE",
"624 644 LINE",
"126 644 LINE",
"99 516 LINE",
"386 516 LINE",
"-8 82 LINE",
"-25 0 LINE"
);
}
);
width = 578;
}
);
leftKerningGroup = Z;
note = Z;
rightKerningGroup = Z;
unicode = 005A;
},
{
glyphname = Zacute;
lastChange = "2015-11-25 10:44:31 +0000";
layers = (
{
layerId = "CD587521-C2B1-4DF5-9394-E26F9987D7DC";
name = "SemiBold Italic";
paths = (
{
closed = 1;
nodes = (
"494 0 LINE",
"520 124 LINE",
"215 124 LINE",
"605 554 LINE",
"624 644 LINE",
"126 644 LINE",
"99 516 LINE",
"386 516 LINE",
"-8 82 LINE",
"-25 0 LINE"
);
},
{
closed = 1;
nodes = (
"438 688 LINE",
"572 884 LINE",
"440 884 LINE",
"314 688 LINE"
);
}
);
width = 578;
}
);
leftKerningGroup = Z;
note = Zacute;
rightKerningGroup = Z;
unicode = 0179;
},
{
glyphname = Zcaron;
lastChange = "2015-11-25 10:48:54 +0000";
layers = (
{
layerId = "CD587521-C2B1-4DF5-9394-E26F9987D7DC";
name = "SemiBold Italic";
paths = (
{
closed = 1;
nodes = (
"494 0 LINE",
"520 124 LINE",
"215 124 LINE",
"605 554 LINE",
"624 644 LINE",
"126 644 LINE",
"99 516 LINE",
"386 516 LINE",
"-8 82 LINE",
"-25 0 LINE"
);
},
{
closed = 1;
nodes = (
"446 688 LINE",
"631 875 LINE",
"505 875 LINE",
"408 771 LINE",
"358 875 LINE",
"242 875 LINE",
"346 688 LINE"
);
}
);
width = 578;
}
);
leftKerningGroup = Z;
note = Zcaron;
rightKerningGroup = Z;
unicode = 017D;
},
{
glyphname = Zdotaccent;
lastChange = "2015-11-25 10:48:54 +0000";
layers = (
{
layerId = "CD587521-C2B1-4DF5-9394-E26F9987D7DC";
name = "SemiBold Italic";
paths = (
{
closed = 1;
nodes = (
"494 0 LINE",
"520 124 LINE",
"215 124 LINE",
"605 554 LINE",
"624 644 LINE",
"126 644 LINE",
"99 516 LINE",
"386 516 LINE",
"-8 82 LINE",
"-25 0 LINE"
);
},
{
closed = 1;
nodes = (
"451 714 LINE",
"475 823 LINE",
"358 823 LINE",
"334 714 LINE"
);
}
);
width = 578;
}
);
leftKerningGroup = Z;
note = Zdotaccent;
rightKerningGroup = Z;
unicode = 017B;
},
{
glyphname = Zdotbelow;
lastChange = "2015-11-25 10:44:31 +0000";
layers = (
{
layerId = "CD587521-C2B1-4DF5-9394-E26F9987D7DC";
name = "SemiBold Italic";
paths = (
{
closed = 1;
nodes = (
"494 0 LINE",
"520 124 LINE",
"215 124 LINE",
"605 554 LINE",
"624 644 LINE",
"126 644 LINE",
"99 516 LINE",
"386 516 LINE",
"-8 82 LINE",
"-25 0 LINE"
);
},
{
closed = 1;
nodes = (
"263 -179 LINE",
"286 -70 LINE",
"168 -70 LINE",
"145 -179 LINE"
);
}
);
width = 578;
}
);
leftKerningGroup = Z;
note = Zdotbelow;
rightKerningGroup = Z;
unicode = 1E92;
},
{
glyphname = a;
lastChange = "2015-11-25 10:44:30 +0000";
layers = (
{
layerId = "CD587521-C2B1-4DF5-9394-E26F9987D7DC";
name = "SemiBold Italic";
paths = (
{
closed = 1;
nodes = (
"249 -10 OFFCURVE",
"305 7 OFFCURVE",
"351 40 CURVE",
"352 0 LINE",
"491 0 LINE",
"591 474 LINE",
"430 474 LINE",
"425 447 LINE",
"395 471 OFFCURVE",
"366 484 OFFCURVE",
"312 484 CURVE SMOOTH",
"154 484 OFFCURVE",
"54 375 OFFCURVE",
"21 218 CURVE SMOOTH",
"-11 66 OFFCURVE",
"54 -10 OFFCURVE",
"185 -10 CURVE SMOOTH"
);
},
{
closed = 1;
nodes = (
"189 107 OFFCURVE",
"167 134 OFFCURVE",
"185 218 CURVE SMOOTH",
"207 320 OFFCURVE",
"253 366 OFFCURVE",
"329 366 CURVE SMOOTH",
"364 366 OFFCURVE",
"387 354 OFFCURVE",
"400 333 CURVE",
"360 143 LINE",
"330 119 OFFCURVE",
"298 107 OFFCURVE",
"262 107 CURVE SMOOTH"
);
}
);
width = 599;
}
);
leftKerningGroup = a;
note = a;
rightKerningGroup = a;
unicode = 0061;
},
{
glyphname = aacute;
lastChange = "2015-11-25 10:44:31 +0000";
layers = (
{
layerId = "CD587521-C2B1-4DF5-9394-E26F9987D7DC";
name = "SemiBold Italic";
paths = (
{
closed = 1;
nodes = (
"249 -10 OFFCURVE",
"305 7 OFFCURVE",
"351 40 CURVE",
"352 0 LINE",
"491 0 LINE",
"591 474 LINE",
"430 474 LINE",
"425 447 LINE",
"395 471 OFFCURVE",
"366 484 OFFCURVE",
"312 484 CURVE SMOOTH",
"154 484 OFFCURVE",
"54 375 OFFCURVE",
"21 218 CURVE SMOOTH",
"-11 66 OFFCURVE",
"54 -10 OFFCURVE",
"185 -10 CURVE SMOOTH"
);
},
{
closed = 1;
nodes = (
"189 107 OFFCURVE",
"167 134 OFFCURVE",
"185 218 CURVE SMOOTH",
"207 320 OFFCURVE",
"253 366 OFFCURVE",
"329 366 CURVE SMOOTH",
"364 366 OFFCURVE",
"387 354 OFFCURVE",
"400 333 CURVE",
"360 143 LINE",
"330 119 OFFCURVE",
"298 107 OFFCURVE",
"262 107 CURVE SMOOTH"
);
},
{
closed = 1;
nodes = (
"400 522 LINE",
"534 718 LINE",
"402 718 LINE",
"276 522 LINE"
);
}
);
width = 599;
}
);
leftKerningGroup = a;
note = aacute;
rightKerningGroup = a;
unicode = 00E1;
},
{
glyphname = abreve;
lastChange = "2015-11-25 10:44:30 +0000";
layers = (
{
layerId = "CD587521-C2B1-4DF5-9394-E26F9987D7DC";
name = "SemiBold Italic";
paths = (
{
closed = 1;
nodes = (
"249 -10 OFFCURVE",
"305 7 OFFCURVE",
"351 40 CURVE",
"352 0 LINE",
"491 0 LINE",
"591 474 LINE",
"430 474 LINE",
"425 447 LINE",
"395 471 OFFCURVE",
"366 484 OFFCURVE",
"312 484 CURVE SMOOTH",
"154 484 OFFCURVE",
"54 375 OFFCURVE",
"21 218 CURVE SMOOTH",
"-11 66 OFFCURVE",
"54 -10 OFFCURVE",
"185 -10 CURVE SMOOTH"
);
},
{
closed = 1;
nodes = (
"189 107 OFFCURVE",
"167 134 OFFCURVE",
"185 218 CURVE SMOOTH",
"207 320 OFFCURVE",
"253 366 OFFCURVE",
"329 366 CURVE SMOOTH",
"364 366 OFFCURVE",
"387 354 OFFCURVE",
"400 333 CURVE",
"360 143 LINE",
"330 119 OFFCURVE",
"298 107 OFFCURVE",
"262 107 CURVE SMOOTH"
);
},
{
closed = 1;
nodes = (
"469 522 OFFCURVE",
"544 584 OFFCURVE",
"567 694 CURVE",
"455 694 LINE",
"446 648 OFFCURVE",
"418 612 OFFCURVE",
"369 612 CURVE SMOOTH",
"317 612 OFFCURVE",
"308 643 OFFCURVE",
"319 694 CURVE",
"220 694 LINE",
"197 584 OFFCURVE",
"254 522 OFFCURVE",
"356 522 CURVE SMOOTH"
);
}
);
width = 599;
}
);
leftKerningGroup = a;
note = abreve;
rightKerningGroup = a;
unicode = 0103;
},
{
glyphname = abreveacute;
lastChange = "2015-11-25 10:44:32 +0000";
layers = (
{
layerId = "CD587521-C2B1-4DF5-9394-E26F9987D7DC";
name = "SemiBold Italic";
paths = (
{
closed = 1;
nodes = (
"249 -10 OFFCURVE",
"305 7 OFFCURVE",
"351 40 CURVE",
"352 0 LINE",
"491 0 LINE",
"591 474 LINE",
"430 474 LINE",
"425 447 LINE",
"395 471 OFFCURVE",
"366 484 OFFCURVE",
"312 484 CURVE SMOOTH",
"154 484 OFFCURVE",
"54 375 OFFCURVE",
"21 218 CURVE SMOOTH",
"-11 66 OFFCURVE",
"54 -10 OFFCURVE",
"185 -10 CURVE SMOOTH"
);
},
{
closed = 1;
nodes = (
"189 107 OFFCURVE",
"167 134 OFFCURVE",
"185 218 CURVE SMOOTH",
"207 320 OFFCURVE",
"253 366 OFFCURVE",
"329 366 CURVE SMOOTH",
"364 366 OFFCURVE",
"387 354 OFFCURVE",
"400 333 CURVE",
"360 143 LINE",
"330 119 OFFCURVE",
"298 107 OFFCURVE",
"262 107 CURVE SMOOTH"
);
},
{
closed = 1;
nodes = (
"456 522 OFFCURVE",
"529 570 OFFCURVE",
"553 686 CURVE",
"457 686 LINE",
"446 634 OFFCURVE",
"411 603 OFFCURVE",
"360 603 CURVE SMOOTH",
"297 603 OFFCURVE",
"285 629 OFFCURVE",
"296 686 CURVE",
"207 686 LINE",
"183 570 OFFCURVE",
"245 522 OFFCURVE",
"346 522 CURVE SMOOTH"
);
},
{
closed = 1;
nodes = (
"424 671 LINE",
"534 820 LINE",
"421 820 LINE",
"323 671 LINE"
);
}
);
width = 599;
}
);
leftKerningGroup = a;
note = abreveacute;
rightKerningGroup = a;
unicode = 1EAF;
},
{
glyphname = abrevedotbelow;
lastChange = "2015-11-25 10:49:04 +0000";
layers = (
{
layerId = "CD587521-C2B1-4DF5-9394-E26F9987D7DC";
name = "SemiBold Italic";
paths = (
{
closed = 1;
nodes = (
"249 -10 OFFCURVE",
"305 7 OFFCURVE",
"351 40 CURVE",
"352 0 LINE",
"491 0 LINE",
"591 474 LINE",
"430 474 LINE",
"425 447 LINE",
"395 471 OFFCURVE",
"366 484 OFFCURVE",
"312 484 CURVE SMOOTH",
"154 484 OFFCURVE",
"54 375 OFFCURVE",
"21 218 CURVE SMOOTH",
"-11 66 OFFCURVE",
"54 -10 OFFCURVE",
"185 -10 CURVE SMOOTH"
);
},
{
closed = 1;
nodes = (
"189 107 OFFCURVE",
"167 134 OFFCURVE",
"185 218 CURVE SMOOTH",
"207 320 OFFCURVE",
"253 366 OFFCURVE",
"329 366 CURVE SMOOTH",
"364 366 OFFCURVE",
"387 354 OFFCURVE",
"400 333 CURVE",
"360 143 LINE",
"330 119 OFFCURVE",
"298 107 OFFCURVE",
"262 107 CURVE SMOOTH"
);
},
{
closed = 1;
nodes = (
"268 -179 LINE",
"291 -70 LINE",
"173 -70 LINE",
"150 -179 LINE"
);
},
{
closed = 1;
nodes = (
"466 522 OFFCURVE",
"541 584 OFFCURVE",
"564 694 CURVE",
"452 694 LINE",
"443 648 OFFCURVE",
"415 612 OFFCURVE",
"366 612 CURVE SMOOTH",
"314 612 OFFCURVE",
"305 643 OFFCURVE",
"316 694 CURVE",
"217 694 LINE",
"194 584 OFFCURVE",
"251 522 OFFCURVE",
"353 522 CURVE SMOOTH"
);
}
);
width = 599;
}
);
leftKerningGroup = a;
note = abrevedotbelow;
rightKerningGroup = a;
unicode = 1EB7;
},
{
glyphname = abrevegrave;
lastChange = "2015-11-25 10:44:32 +0000";
layers = (
{
layerId = "CD587521-C2B1-4DF5-9394-E26F9987D7DC";
name = "SemiBold Italic";
paths = (
{
closed = 1;
nodes = (
"249 -10 OFFCURVE",
"305 7 OFFCURVE",
"351 40 CURVE",
"352 0 LINE",
"491 0 LINE",
"591 474 LINE",
"430 474 LINE",
"425 447 LINE",
"395 471 OFFCURVE",
"366 484 OFFCURVE",
"312 484 CURVE SMOOTH",
"154 484 OFFCURVE",
"54 375 OFFCURVE",
"21 218 CURVE SMOOTH",
"-11 66 OFFCURVE",
"54 -10 OFFCURVE",
"185 -10 CURVE SMOOTH"
);
},
{
closed = 1;
nodes = (
"189 107 OFFCURVE",
"167 134 OFFCURVE",
"185 218 CURVE SMOOTH",
"207 320 OFFCURVE",
"253 366 OFFCURVE",
"329 366 CURVE SMOOTH",
"364 366 OFFCURVE",
"387 354 OFFCURVE",
"400 333 CURVE",
"360 143 LINE",
"330 119 OFFCURVE",
"298 107 OFFCURVE",
"262 107 CURVE SMOOTH"
);
},
{
closed = 1;
nodes = (
"458 522 OFFCURVE",
"531 570 OFFCURVE",
"555 686 CURVE",
"459 686 LINE",
"448 634 OFFCURVE",
"413 603 OFFCURVE",
"362 603 CURVE SMOOTH",
"299 603 OFFCURVE",
"287 629 OFFCURVE",
"298 686 CURVE",
"209 686 LINE",
"185 570 OFFCURVE",
"247 522 OFFCURVE",
"348 522 CURVE SMOOTH"
);
},
{
closed = 1;
nodes = (
"434 671 LINE",
"400 820 LINE",
"286 820 LINE",
"332 671 LINE"
);
}
);
width = 599;
}
);
leftKerningGroup = a;
note = abrevegrave;
rightKerningGroup = a;
unicode = 1EB1;
},
{
glyphname = abrevehookabove;
lastChange = "2015-11-25 10:44:31 +0000";
layers = (
{
layerId = "CD587521-C2B1-4DF5-9394-E26F9987D7DC";
name = "SemiBold Italic";
paths = (
{
closed = 1;
nodes = (
"249 -10 OFFCURVE",
"305 7 OFFCURVE",
"351 40 CURVE",
"352 0 LINE",
"491 0 LINE",
"591 474 LINE",
"430 474 LINE",
"425 447 LINE",
"395 471 OFFCURVE",
"366 484 OFFCURVE",
"312 484 CURVE SMOOTH",
"154 484 OFFCURVE",
"54 375 OFFCURVE",
"21 218 CURVE SMOOTH",
"-11 66 OFFCURVE",
"54 -10 OFFCURVE",
"185 -10 CURVE SMOOTH"
);
},
{
closed = 1;
nodes = (
"189 107 OFFCURVE",
"167 134 OFFCURVE",
"185 218 CURVE SMOOTH",
"207 320 OFFCURVE",
"253 366 OFFCURVE",
"329 366 CURVE SMOOTH",
"364 366 OFFCURVE",
"387 354 OFFCURVE",
"400 333 CURVE",
"360 143 LINE",
"330 119 OFFCURVE",
"298 107 OFFCURVE",
"262 107 CURVE SMOOTH"
);
},
{
closed = 1;
nodes = (
"461 522 OFFCURVE",
"534 570 OFFCURVE",
"558 686 CURVE",
"462 686 LINE",
"451 634 OFFCURVE",
"416 603 OFFCURVE",
"365 603 CURVE SMOOTH",
"302 603 OFFCURVE",
"290 629 OFFCURVE",
"301 686 CURVE",
"212 686 LINE",
"188 570 OFFCURVE",
"250 522 OFFCURVE",
"351 522 CURVE SMOOTH"
);
},
{
closed = 1;
nodes = (
"435 678 LINE",
"441 709 LINE",
"498 721 OFFCURVE",
"525 744 OFFCURVE",
"534 789 CURVE SMOOTH",
"544 837 OFFCURVE",
"512 872 OFFCURVE",
"441 872 CURVE SMOOTH",
"404 872 OFFCURVE",
"368 867 OFFCURVE",
"343 859 CURVE",
"330 797 LINE",
"345 803 OFFCURVE",
"365 808 OFFCURVE",
"384 808 CURVE SMOOTH",
"417 808 OFFCURVE",
"432 801 OFFCURVE",
"427 778 CURVE SMOOTH",
"422 755 OFFCURVE",
"400 741 OFFCURVE",
"342 739 CURVE",
"329 678 LINE"
);
}
);
width = 599;
}
);
leftKerningGroup = a;
note = abrevehookabove;
rightKerningGroup = a;
unicode = 1EB3;
},
{
glyphname = abrevetilde;
lastChange = "2015-11-25 10:44:30 +0000";
layers = (
{
layerId = "CD587521-C2B1-4DF5-9394-E26F9987D7DC";
name = "SemiBold Italic";
paths = (
{
closed = 1;
nodes = (
"249 -10 OFFCURVE",
"305 7 OFFCURVE",
"351 40 CURVE",
"352 0 LINE",
"491 0 LINE",
"591 474 LINE",
"430 474 LINE",
"425 447 LINE",
"395 471 OFFCURVE",
"366 484 OFFCURVE",
"312 484 CURVE SMOOTH",
"154 484 OFFCURVE",
"54 375 OFFCURVE",
"21 218 CURVE SMOOTH",
"-11 66 OFFCURVE",
"54 -10 OFFCURVE",
"185 -10 CURVE SMOOTH"
);
},
{
closed = 1;
nodes = (
"189 107 OFFCURVE",
"167 134 OFFCURVE",
"185 218 CURVE SMOOTH",
"207 320 OFFCURVE",
"253 366 OFFCURVE",
"329 366 CURVE SMOOTH",
"364 366 OFFCURVE",
"387 354 OFFCURVE",
"400 333 CURVE",
"360 143 LINE",
"330 119 OFFCURVE",
"298 107 OFFCURVE",
"262 107 CURVE SMOOTH"
);
},
{
closed = 1;
nodes = (
"465 522 OFFCURVE",
"538 570 OFFCURVE",
"562 686 CURVE",
"466 686 LINE",
"455 634 OFFCURVE",
"420 603 OFFCURVE",
"369 603 CURVE SMOOTH",
"306 603 OFFCURVE",
"294 629 OFFCURVE",
"305 686 CURVE",
"216 686 LINE",
"192 570 OFFCURVE",
"254 522 OFFCURVE",
"355 522 CURVE SMOOTH"
);
},
{
closed = 1;
nodes = (
"521 704 OFFCURVE",
"556 718 OFFCURVE",
"573 736 CURVE",
"591 828 LINE",
"570 804 OFFCURVE",
"537 789 OFFCURVE",
"498 789 CURVE SMOOTH",
"440 789 OFFCURVE",
"401 830 OFFCURVE",
"338 830 CURVE SMOOTH",
"302 830 OFFCURVE",
"264 816 OFFCURVE",
"242 798 CURVE",
"223 707 LINE",
"251 731 OFFCURVE",
"284 744 OFFCURVE",
"323 744 CURVE SMOOTH",
"375 744 OFFCURVE",
"422 704 OFFCURVE",
"483 704 CURVE SMOOTH"
);
}
);
width = 599;
}
);
leftKerningGroup = a;
note = abrevetilde;
rightKerningGroup = a;
unicode = 1EB5;
},
{
glyphname = acaron;
lastChange = "2015-11-25 10:44:32 +0000";
layers = (
{
layerId = "CD587521-C2B1-4DF5-9394-E26F9987D7DC";
name = "SemiBold Italic";
paths = (
{
closed = 1;
nodes = (
"249 -10 OFFCURVE",
"305 7 OFFCURVE",
"351 40 CURVE",
"352 0 LINE",
"491 0 LINE",
"591 474 LINE",
"430 474 LINE",
"425 447 LINE",
"395 471 OFFCURVE",
"366 484 OFFCURVE",
"312 484 CURVE SMOOTH",
"154 484 OFFCURVE",
"54 375 OFFCURVE",
"21 218 CURVE SMOOTH",
"-11 66 OFFCURVE",
"54 -10 OFFCURVE",
"185 -10 CURVE SMOOTH"
);
},
{
closed = 1;
nodes = (
"189 107 OFFCURVE",
"167 134 OFFCURVE",
"185 218 CURVE SMOOTH",
"207 320 OFFCURVE",
"253 366 OFFCURVE",
"329 366 CURVE SMOOTH",
"364 366 OFFCURVE",
"387 354 OFFCURVE",
"400 333 CURVE",
"360 143 LINE",
"330 119 OFFCURVE",
"298 107 OFFCURVE",
"262 107 CURVE SMOOTH"
);
},
{
closed = 1;
nodes = (
"391 521 LINE",
"576 708 LINE",
"450 708 LINE",
"353 604 LINE",
"303 708 LINE",
"187 708 LINE",
"291 521 LINE"
);
}
);
width = 599;
}
);
leftKerningGroup = a;
note = acaron;
rightKerningGroup = a;
unicode = 01CE;
},
{
glyphname = acircumflex;
lastChange = "2015-11-25 10:44:31 +0000";
layers = (
{
layerId = "CD587521-C2B1-4DF5-9394-E26F9987D7DC";
name = "SemiBold Italic";
paths = (
{
closed = 1;
nodes = (
"249 -10 OFFCURVE",
"305 7 OFFCURVE",
"351 40 CURVE",
"352 0 LINE",
"491 0 LINE",
"591 474 LINE",
"430 474 LINE",
"425 447 LINE",
"395 471 OFFCURVE",
"366 484 OFFCURVE",
"312 484 CURVE SMOOTH",
"154 484 OFFCURVE",
"54 375 OFFCURVE",
"21 218 CURVE SMOOTH",
"-11 66 OFFCURVE",
"54 -10 OFFCURVE",
"185 -10 CURVE SMOOTH"
);
},
{
closed = 1;
nodes = (
"189 107 OFFCURVE",
"167 134 OFFCURVE",
"185 218 CURVE SMOOTH",
"207 320 OFFCURVE",
"253 366 OFFCURVE",
"329 366 CURVE SMOOTH",
"364 366 OFFCURVE",
"387 354 OFFCURVE",
"400 333 CURVE",
"360 143 LINE",
"330 119 OFFCURVE",
"298 107 OFFCURVE",
"262 107 CURVE SMOOTH"
);
},
{
closed = 1;
nodes = (
"281 521 LINE",
"375 625 LINE",
"428 521 LINE",
"542 521 LINE",
"437 708 LINE",
"337 708 LINE",
"153 521 LINE"
);
}
);
width = 599;
}
);
leftKerningGroup = a;
note = acircumflex;
rightKerningGroup = a;
unicode = 00E2;
},
{
glyphname = acircumflexacute;
lastChange = "2015-11-25 10:49:13 +0000";
layers = (
{
layerId = "CD587521-C2B1-4DF5-9394-E26F9987D7DC";
name = "SemiBold Italic";
paths = (
{
closed = 1;
nodes = (
"249 -10 OFFCURVE",
"305 7 OFFCURVE",
"351 40 CURVE",
"352 0 LINE",
"491 0 LINE",
"591 474 LINE",
"430 474 LINE",
"425 447 LINE",
"395 471 OFFCURVE",
"366 484 OFFCURVE",
"312 484 CURVE SMOOTH",
"154 484 OFFCURVE",
"54 375 OFFCURVE",
"21 218 CURVE SMOOTH",
"-11 66 OFFCURVE",
"54 -10 OFFCURVE",
"185 -10 CURVE SMOOTH"
);
},
{
closed = 1;
nodes = (
"189 107 OFFCURVE",
"167 134 OFFCURVE",
"185 218 CURVE SMOOTH",
"207 320 OFFCURVE",
"253 366 OFFCURVE",
"329 366 CURVE SMOOTH",
"364 366 OFFCURVE",
"387 354 OFFCURVE",
"400 333 CURVE",
"360 143 LINE",
"330 119 OFFCURVE",
"298 107 OFFCURVE",
"262 107 CURVE SMOOTH"
);
},
{
closed = 1;
nodes = (
"287 521 LINE",
"369 601 LINE",
"417 521 LINE",
"541 521 LINE",
"437 665 LINE",
"316 665 LINE",
"152 521 LINE"
);
},
{
closed = 1;
nodes = (
"597 642 LINE",
"703 791 LINE",
"583 791 LINE",
"484 642 LINE"
);
}
);
width = 599;
}
);
leftKerningGroup = a;
note = acircumflexacute;
rightKerningGroup = a;
unicode = 1EA5;
},
{
glyphname = acircumflexdotbelow;
lastChange = "2015-11-25 10:49:23 +0000";
layers = (
{
layerId = "CD587521-C2B1-4DF5-9394-E26F9987D7DC";
name = "SemiBold Italic";
paths = (
{
closed = 1;
nodes = (
"249 -10 OFFCURVE",
"305 7 OFFCURVE",
"351 40 CURVE",
"352 0 LINE",
"491 0 LINE",
"591 474 LINE",
"430 474 LINE",
"425 447 LINE",
"395 471 OFFCURVE",
"366 484 OFFCURVE",
"312 484 CURVE SMOOTH",
"154 484 OFFCURVE",
"54 375 OFFCURVE",
"21 218 CURVE SMOOTH",
"-11 66 OFFCURVE",
"54 -10 OFFCURVE",
"185 -10 CURVE SMOOTH"
);
},
{
closed = 1;
nodes = (
"189 107 OFFCURVE",
"167 134 OFFCURVE",
"185 218 CURVE SMOOTH",
"207 320 OFFCURVE",
"253 366 OFFCURVE",
"329 366 CURVE SMOOTH",
"364 366 OFFCURVE",
"387 354 OFFCURVE",
"400 333 CURVE",
"360 143 LINE",
"330 119 OFFCURVE",
"298 107 OFFCURVE",
"262 107 CURVE SMOOTH"
);
},
{
closed = 1;
nodes = (
"259 -179 LINE",
"282 -70 LINE",
"164 -70 LINE",
"141 -179 LINE"
);
},
{
closed = 1;
nodes = (
"281 521 LINE",
"375 625 LINE",
"428 521 LINE",
"542 521 LINE",
"437 708 LINE",
"337 708 LINE",
"153 521 LINE"
);
}
);
width = 599;
}
);
leftKerningGroup = a;
note = acircumflexdotbelow;
rightKerningGroup = a;
unicode = 1EAD;
},
{
glyphname = acircumflexgrave;
lastChange = "2015-11-25 10:44:31 +0000";
layers = (
{
layerId = "CD587521-C2B1-4DF5-9394-E26F9987D7DC";
name = "SemiBold Italic";
paths = (
{
closed = 1;
nodes = (
"249 -10 OFFCURVE",
"305 7 OFFCURVE",
"351 40 CURVE",
"352 0 LINE",
"491 0 LINE",
"591 474 LINE",
"430 474 LINE",
"425 447 LINE",
"395 471 OFFCURVE",
"366 484 OFFCURVE",
"312 484 CURVE SMOOTH",
"154 484 OFFCURVE",
"54 375 OFFCURVE",
"21 218 CURVE SMOOTH",
"-11 66 OFFCURVE",
"54 -10 OFFCURVE",
"185 -10 CURVE SMOOTH"
);
},
{
closed = 1;
nodes = (
"189 107 OFFCURVE",
"167 134 OFFCURVE",
"185 218 CURVE SMOOTH",
"207 320 OFFCURVE",
"253 366 OFFCURVE",
"329 366 CURVE SMOOTH",
"364 366 OFFCURVE",
"387 354 OFFCURVE",
"400 333 CURVE",
"360 143 LINE",
"330 119 OFFCURVE",
"298 107 OFFCURVE",
"262 107 CURVE SMOOTH"
);
},
{
closed = 1;
nodes = (
"264 642 LINE",
"226 791 LINE",
"106 791 LINE",
"150 642 LINE"
);
},
{
closed = 1;
nodes = (
"289 521 LINE",
"371 601 LINE",
"419 521 LINE",
"543 521 LINE",
"439 665 LINE",
"318 665 LINE",
"154 521 LINE"
);
}
);
width = 599;
}
);
leftKerningGroup = a;
note = acircumflexgrave;
rightKerningGroup = a;
unicode = 1EA7;
},
{
glyphname = acircumflexhookabove;
lastChange = "2015-11-25 10:49:33 +0000";
layers = (
{
layerId = "CD587521-C2B1-4DF5-9394-E26F9987D7DC";
name = "SemiBold Italic";
paths = (
{
closed = 1;
nodes = (
"249 -10 OFFCURVE",
"305 7 OFFCURVE",
"351 40 CURVE",
"352 0 LINE",
"491 0 LINE",
"591 474 LINE",
"430 474 LINE",
"425 447 LINE",
"395 471 OFFCURVE",
"366 484 OFFCURVE",
"312 484 CURVE SMOOTH",
"154 484 OFFCURVE",
"54 375 OFFCURVE",
"21 218 CURVE SMOOTH",
"-11 66 OFFCURVE",
"54 -10 OFFCURVE",
"185 -10 CURVE SMOOTH"
);
},
{
closed = 1;
nodes = (
"189 107 OFFCURVE",
"167 134 OFFCURVE",
"185 218 CURVE SMOOTH",
"207 320 OFFCURVE",
"253 366 OFFCURVE",
"329 366 CURVE SMOOTH",
"364 366 OFFCURVE",
"387 354 OFFCURVE",
"400 333 CURVE",
"360 143 LINE",
"330 119 OFFCURVE",
"298 107 OFFCURVE",
"262 107 CURVE SMOOTH"
);
},
{
closed = 1;
nodes = (
"283 521 LINE",
"365 601 LINE",
"413 521 LINE",
"537 521 LINE",
"433 665 LINE",
"312 665 LINE",
"148 521 LINE"
);
},
{
closed = 1;
nodes = (
"593 620 LINE",
"600 653 LINE",
"653 661 OFFCURVE",
"682 690 OFFCURVE",
"691 735 CURVE SMOOTH",
"702 785 OFFCURVE",
"670 818 OFFCURVE",
"594 818 CURVE SMOOTH",
"556 818 OFFCURVE",
"526 813 OFFCURVE",
"501 806 CURVE",
"487 739 LINE",
"503 745 OFFCURVE",
"522 749 OFFCURVE",
"541 749 CURVE SMOOTH",
"569 749 OFFCURVE",
"583 742 OFFCURVE",
"579 724 CURVE SMOOTH",
"575 705 OFFCURVE",
"559 693 OFFCURVE",
"500 691 CURVE",
"485 620 LINE"
);
}
);
width = 599;
}
);
leftKerningGroup = a;
note = acircumflexhookabove;
rightKerningGroup = a;
unicode = 1EA9;
},
{
glyphname = acircumflextilde;
lastChange = "2015-11-25 10:44:32 +0000";
layers = (
{
layerId = "CD587521-C2B1-4DF5-9394-E26F9987D7DC";
name = "SemiBold Italic";
paths = (
{
closed = 1;
nodes = (
"249 -10 OFFCURVE",
"305 7 OFFCURVE",
"351 40 CURVE",
"352 0 LINE",
"491 0 LINE",
"591 474 LINE",
"430 474 LINE",
"425 447 LINE",
"395 471 OFFCURVE",
"366 484 OFFCURVE",
"312 484 CURVE SMOOTH",
"154 484 OFFCURVE",
"54 375 OFFCURVE",
"21 218 CURVE SMOOTH",
"-11 66 OFFCURVE",
"54 -10 OFFCURVE",
"185 -10 CURVE SMOOTH"
);
},
{
closed = 1;
nodes = (
"189 107 OFFCURVE",
"167 134 OFFCURVE",
"185 218 CURVE SMOOTH",
"207 320 OFFCURVE",
"253 366 OFFCURVE",
"329 366 CURVE SMOOTH",
"364 366 OFFCURVE",
"387 354 OFFCURVE",
"400 333 CURVE",
"360 143 LINE",
"330 119 OFFCURVE",
"298 107 OFFCURVE",
"262 107 CURVE SMOOTH"
);
},
{
closed = 1;
nodes = (
"284 521 LINE",
"366 601 LINE",
"414 521 LINE",
"538 521 LINE",
"434 665 LINE",
"313 665 LINE",
"149 521 LINE"
);
},
{
closed = 1;
nodes = (
"513 680 OFFCURVE",
"547 694 OFFCURVE",
"563 712 CURVE",
"583 804 LINE",
"561 780 OFFCURVE",
"529 765 OFFCURVE",
"490 765 CURVE SMOOTH",
"432 765 OFFCURVE",
"392 806 OFFCURVE",
"329 806 CURVE SMOOTH",
"293 806 OFFCURVE",
"255 792 OFFCURVE",
"234 774 CURVE",
"214 683 LINE",
"242 707 OFFCURVE",
"275 720 OFFCURVE",
"314 720 CURVE SMOOTH",
"366 720 OFFCURVE",
"414 680 OFFCURVE",
"475 680 CURVE SMOOTH"
);
}
);
width = 599;
}
);
leftKerningGroup = a;
note = acircumflextilde;
rightKerningGroup = a;
unicode = 1EAB;
},
{
glyphname = adieresis;
lastChange = "2015-11-25 10:44:30 +0000";
layers = (
{
layerId = "CD587521-C2B1-4DF5-9394-E26F9987D7DC";
name = "SemiBold Italic";
paths = (
{
closed = 1;
nodes = (
"249 -10 OFFCURVE",
"305 7 OFFCURVE",
"351 40 CURVE",
"352 0 LINE",
"491 0 LINE",
"591 474 LINE",
"430 474 LINE",
"425 447 LINE",
"395 471 OFFCURVE",
"366 484 OFFCURVE",
"312 484 CURVE SMOOTH",
"154 484 OFFCURVE",
"54 375 OFFCURVE",
"21 218 CURVE SMOOTH",
"-11 66 OFFCURVE",
"54 -10 OFFCURVE",
"185 -10 CURVE SMOOTH"
);
},
{
closed = 1;
nodes = (
"189 107 OFFCURVE",
"167 134 OFFCURVE",
"185 218 CURVE SMOOTH",
"207 320 OFFCURVE",
"253 366 OFFCURVE",
"329 366 CURVE SMOOTH",
"364 366 OFFCURVE",
"387 354 OFFCURVE",
"400 333 CURVE",
"360 143 LINE",
"330 119 OFFCURVE",
"298 107 OFFCURVE",
"262 107 CURVE SMOOTH"
);
},
{
closed = 1;
nodes = (
"314 548 LINE",
"338 657 LINE",
"221 657 LINE",
"197 548 LINE"
);
},
{
closed = 1;
nodes = (
"520 548 LINE",
"544 657 LINE",
"426 657 LINE",
"402 548 LINE"
);
}
);
width = 599;
}
);
leftKerningGroup = a;
note = adieresis;
rightKerningGroup = a;
unicode = 00E4;
},
{
glyphname = adotbelow;
lastChange = "2015-11-25 10:49:38 +0000";
layers = (
{
layerId = "CD587521-C2B1-4DF5-9394-E26F9987D7DC";
name = "SemiBold Italic";
paths = (
{
closed = 1;
nodes = (
"249 -10 OFFCURVE",
"305 7 OFFCURVE",
"351 40 CURVE",
"352 0 LINE",
"491 0 LINE",
"591 474 LINE",
"430 474 LINE",
"425 447 LINE",
"395 471 OFFCURVE",
"366 484 OFFCURVE",
"312 484 CURVE SMOOTH",
"154 484 OFFCURVE",
"54 375 OFFCURVE",
"21 218 CURVE SMOOTH",
"-11 66 OFFCURVE",
"54 -10 OFFCURVE",
"185 -10 CURVE SMOOTH"
);
},
{
closed = 1;
nodes = (
"189 107 OFFCURVE",
"167 134 OFFCURVE",
"185 218 CURVE SMOOTH",
"207 320 OFFCURVE",
"253 366 OFFCURVE",
"329 366 CURVE SMOOTH",
"364 366 OFFCURVE",
"387 354 OFFCURVE",
"400 333 CURVE",
"360 143 LINE",
"330 119 OFFCURVE",
"298 107 OFFCURVE",
"262 107 CURVE SMOOTH"
);
},
{
closed = 1;
nodes = (
"256 -179 LINE",
"279 -70 LINE",
"161 -70 LINE",
"138 -179 LINE"
);
}
);
width = 599;
}
);
leftKerningGroup = a;
note = adotbelow;
rightKerningGroup = a;
unicode = 1EA1;
},
{
glyphname = agrave;
lastChange = "2015-11-25 10:44:32 +0000";
layers = (
{
layerId = "CD587521-C2B1-4DF5-9394-E26F9987D7DC";
name = "SemiBold Italic";
paths = (
{
closed = 1;
nodes = (
"249 -10 OFFCURVE",
"305 7 OFFCURVE",
"351 40 CURVE",
"352 0 LINE",
"491 0 LINE",
"591 474 LINE",
"430 474 LINE",
"425 447 LINE",
"395 471 OFFCURVE",
"366 484 OFFCURVE",
"312 484 CURVE SMOOTH",
"154 484 OFFCURVE",
"54 375 OFFCURVE",
"21 218 CURVE SMOOTH",
"-11 66 OFFCURVE",
"54 -10 OFFCURVE",
"185 -10 CURVE SMOOTH"
);
},
{
closed = 1;
nodes = (
"189 107 OFFCURVE",
"167 134 OFFCURVE",
"185 218 CURVE SMOOTH",
"207 320 OFFCURVE",
"253 366 OFFCURVE",
"329 366 CURVE SMOOTH",
"364 366 OFFCURVE",
"387 354 OFFCURVE",
"400 333 CURVE",
"360 143 LINE",
"330 119 OFFCURVE",
"298 107 OFFCURVE",
"262 107 CURVE SMOOTH"
);
},
{
closed = 1;
nodes = (
"412 522 LINE",
"370 718 LINE",
"238 718 LINE",
"289 522 LINE"
);
}
);
width = 599;
}
);
leftKerningGroup = a;
note = agrave;
rightKerningGroup = a;
unicode = 00E0;
},
{
glyphname = ahookabove;
lastChange = "2015-11-25 10:44:31 +0000";
layers = (
{
layerId = "CD587521-C2B1-4DF5-9394-E26F9987D7DC";
name = "SemiBold Italic";
paths = (
{
closed = 1;
nodes = (
"249 -10 OFFCURVE",
"305 7 OFFCURVE",
"351 40 CURVE",
"352 0 LINE",
"491 0 LINE",
"591 474 LINE",
"430 474 LINE",
"425 447 LINE",
"395 471 OFFCURVE",
"366 484 OFFCURVE",
"312 484 CURVE SMOOTH",
"154 484 OFFCURVE",
"54 375 OFFCURVE",
"21 218 CURVE SMOOTH",
"-11 66 OFFCURVE",
"54 -10 OFFCURVE",
"185 -10 CURVE SMOOTH"
);
},
{
closed = 1;
nodes = (
"189 107 OFFCURVE",
"167 134 OFFCURVE",
"185 218 CURVE SMOOTH",
"207 320 OFFCURVE",
"253 366 OFFCURVE",
"329 366 CURVE SMOOTH",
"364 366 OFFCURVE",
"387 354 OFFCURVE",
"400 333 CURVE",
"360 143 LINE",
"330 119 OFFCURVE",
"298 107 OFFCURVE",
"262 107 CURVE SMOOTH"
);
},
{
closed = 1;
nodes = (
"399 521 LINE",
"408 565 LINE",
"470 579 OFFCURVE",
"501 605 OFFCURVE",
"514 662 CURVE SMOOTH",
"526 721 OFFCURVE",
"487 761 OFFCURVE",
"399 761 CURVE SMOOTH",
"356 761 OFFCURVE",
"317 756 OFFCURVE",
"289 747 CURVE",
"273 675 LINE",
"290 680 OFFCURVE",
"316 684 OFFCURVE",
"335 684 CURVE SMOOTH",
"376 684 OFFCURVE",
"398 673 OFFCURVE",
"393 648 CURVE SMOOTH",
"387 621 OFFCURVE",
"366 606 OFFCURVE",
"294 602 CURVE",
"277 521 LINE"
);
}
);
width = 599;
}
);
leftKerningGroup = a;
note = ahookabove;
rightKerningGroup = a;
unicode = 1EA3;
},
{
glyphname = "alpha-latin";
lastChange = "2015-11-25 10:44:32 +0000";
layers = (
{
layerId = "CD587521-C2B1-4DF5-9394-E26F9987D7DC";
name = "SemiBold Italic";
paths = (
{
closed = 1;
nodes = (
"249 -10 OFFCURVE",
"305 7 OFFCURVE",
"351 40 CURVE",
"352 0 LINE",
"491 0 LINE",
"591 474 LINE",
"430 474 LINE",
"425 447 LINE",
"395 471 OFFCURVE",
"366 484 OFFCURVE",
"312 484 CURVE SMOOTH",
"154 484 OFFCURVE",
"54 375 OFFCURVE",
"21 218 CURVE SMOOTH",
"-11 66 OFFCURVE",
"54 -10 OFFCURVE",
"185 -10 CURVE SMOOTH"
);
},
{
closed = 1;
nodes = (
"189 107 OFFCURVE",
"167 134 OFFCURVE",
"185 218 CURVE SMOOTH",
"207 320 OFFCURVE",
"253 366 OFFCURVE",
"329 366 CURVE SMOOTH",
"364 366 OFFCURVE",
"387 354 OFFCURVE",
"400 333 CURVE",
"360 143 LINE",
"330 119 OFFCURVE",
"298 107 OFFCURVE",
"262 107 CURVE SMOOTH"
);
}
);
width = 599;
}
);
leftKerningGroup = a;
note = ascript;
rightKerningGroup = a;
unicode = 0251;
},
{
glyphname = amacron;
lastChange = "2015-11-25 10:44:31 +0000";
layers = (
{
layerId = "CD587521-C2B1-4DF5-9394-E26F9987D7DC";
name = "SemiBold Italic";
paths = (
{
closed = 1;
nodes = (
"249 -10 OFFCURVE",
"305 7 OFFCURVE",
"351 40 CURVE",
"352 0 LINE",
"491 0 LINE",
"591 474 LINE",
"430 474 LINE",
"425 447 LINE",
"395 471 OFFCURVE",
"366 484 OFFCURVE",
"312 484 CURVE SMOOTH",
"154 484 OFFCURVE",
"54 375 OFFCURVE",
"21 218 CURVE SMOOTH",
"-11 66 OFFCURVE",
"54 -10 OFFCURVE",
"185 -10 CURVE SMOOTH"
);
},
{
closed = 1;
nodes = (
"189 107 OFFCURVE",
"167 134 OFFCURVE",
"185 218 CURVE SMOOTH",
"207 320 OFFCURVE",
"253 366 OFFCURVE",
"329 366 CURVE SMOOTH",
"364 366 OFFCURVE",
"387 354 OFFCURVE",
"400 333 CURVE",
"360 143 LINE",
"330 119 OFFCURVE",
"298 107 OFFCURVE",
"262 107 CURVE SMOOTH"
);
},
{
closed = 1;
nodes = (
"520 538 LINE",
"541 635 LINE",
"224 635 LINE",
"203 538 LINE"
);
}
);
width = 599;
}
);
leftKerningGroup = a;
note = amacron;
rightKerningGroup = a;
unicode = 0101;
},
{
glyphname = aogonek;
lastChange = "2015-11-25 10:44:30 +0000";
layers = (
{
layerId = "CD587521-C2B1-4DF5-9394-E26F9987D7DC";
name = "SemiBold Italic";
paths = (
{
closed = 1;
nodes = (
"419 -220 OFFCURVE",
"457 -213 OFFCURVE",
"478 -205 CURVE",
"495 -124 LINE",
"482 -131 OFFCURVE",
"460 -135 OFFCURVE",
"443 -135 CURVE SMOOTH",
"417 -135 OFFCURVE",
"402 -124 OFFCURVE",
"408 -97 CURVE SMOOTH",
"416 -61 OFFCURVE",
"446 -24 OFFCURVE",
"491 0 CURVE",
"591 474 LINE",
"430 474 LINE",
"425 447 LINE",
"395 471 OFFCURVE",
"366 484 OFFCURVE",
"312 484 CURVE SMOOTH",
"154 484 OFFCURVE",
"54 375 OFFCURVE",
"21 218 CURVE SMOOTH",
"-11 66 OFFCURVE",
"54 -10 OFFCURVE",
"185 -10 CURVE SMOOTH",
"249 -10 OFFCURVE",
"305 7 OFFCURVE",
"351 40 CURVE",
"352 0 LINE",
"321 -29 OFFCURVE",
"289 -76 OFFCURVE",
"279 -126 CURVE SMOOTH",
"265 -191 OFFCURVE",
"314 -220 OFFCURVE",
"382 -220 CURVE SMOOTH"
);
},
{
closed = 1;
nodes = (
"189 107 OFFCURVE",
"167 134 OFFCURVE",
"185 218 CURVE SMOOTH",
"207 320 OFFCURVE",
"253 366 OFFCURVE",
"329 366 CURVE SMOOTH",
"364 366 OFFCURVE",
"387 354 OFFCURVE",
"400 333 CURVE",
"360 143 LINE",
"330 119 OFFCURVE",
"298 107 OFFCURVE",
"262 107 CURVE SMOOTH"
);
}
);
width = 599;
}
);
leftKerningGroup = a;
note = aogonek;
rightKerningGroup = a;
unicode = 0105;
},
{
glyphname = aring;
lastChange = "2015-11-25 10:44:32 +0000";
layers = (
{
layerId = "CD587521-C2B1-4DF5-9394-E26F9987D7DC";
name = "SemiBold Italic";
paths = (
{
closed = 1;
nodes = (
"249 -10 OFFCURVE",
"305 7 OFFCURVE",
"351 40 CURVE",
"352 0 LINE",
"491 0 LINE",
"591 474 LINE",
"430 474 LINE",
"425 447 LINE",
"395 471 OFFCURVE",
"366 484 OFFCURVE",
"312 484 CURVE SMOOTH",
"154 484 OFFCURVE",
"54 375 OFFCURVE",
"21 218 CURVE SMOOTH",
"-11 66 OFFCURVE",
"54 -10 OFFCURVE",
"185 -10 CURVE SMOOTH"
);
},
{
closed = 1;
nodes = (
"189 107 OFFCURVE",
"167 134 OFFCURVE",
"185 218 CURVE SMOOTH",
"207 320 OFFCURVE",
"253 366 OFFCURVE",
"329 366 CURVE SMOOTH",
"364 366 OFFCURVE",
"387 354 OFFCURVE",
"400 333 CURVE",
"360 143 LINE",
"330 119 OFFCURVE",
"298 107 OFFCURVE",
"262 107 CURVE SMOOTH"
);
},
{
closed = 1;
nodes = (
"443 521 OFFCURVE",
"497 576 OFFCURVE",
"512 646 CURVE SMOOTH",
"527 717 OFFCURVE",
"491 772 OFFCURVE",
"407 772 CURVE SMOOTH",
"321 772 OFFCURVE",
"265 717 OFFCURVE",
"250 646 CURVE SMOOTH",
"235 576 OFFCURVE",
"273 521 OFFCURVE",
"354 521 CURVE SMOOTH"
);
},
{
closed = 1;
nodes = (
"328 591 OFFCURVE",
"317 615 OFFCURVE",
"323 646 CURVE SMOOTH",
"330 677 OFFCURVE",
"357 702 OFFCURVE",
"392 702 CURVE SMOOTH",
"436 702 OFFCURVE",
"445 677 OFFCURVE",
"438 646 CURVE SMOOTH",
"432 615 OFFCURVE",
"406 591 OFFCURVE",
"369 591 CURVE SMOOTH"
);
}
);
width = 599;
}
);
leftKerningGroup = a;
note = aring;
rightKerningGroup = a;
unicode = 00E5;
},
{
glyphname = aringacute;
lastChange = "2015-11-25 10:49:59 +0000";
layers = (
{
layerId = "CD587521-C2B1-4DF5-9394-E26F9987D7DC";
name = "SemiBold Italic";
paths = (
{
closed = 1;
nodes = (
"249 -10 OFFCURVE",
"305 7 OFFCURVE",
"351 40 CURVE",
"352 0 LINE",
"491 0 LINE",
"591 474 LINE",
"430 474 LINE",
"425 447 LINE",
"395 471 OFFCURVE",
"366 484 OFFCURVE",
"312 484 CURVE SMOOTH",
"154 484 OFFCURVE",
"54 375 OFFCURVE",
"21 218 CURVE SMOOTH",
"-11 66 OFFCURVE",
"54 -10 OFFCURVE",
"185 -10 CURVE SMOOTH"
);
},
{
closed = 1;
nodes = (
"189 107 OFFCURVE",
"167 134 OFFCURVE",
"185 218 CURVE SMOOTH",
"207 320 OFFCURVE",
"253 366 OFFCURVE",
"329 366 CURVE SMOOTH",
"364 366 OFFCURVE",
"387 354 OFFCURVE",
"400 333 CURVE",
"360 143 LINE",
"330 119 OFFCURVE",
"298 107 OFFCURVE",
"262 107 CURVE SMOOTH"
);
},
{
closed = 1;
nodes = (
"443 521 OFFCURVE",
"497 576 OFFCURVE",
"512 646 CURVE SMOOTH",
"527 717 OFFCURVE",
"491 772 OFFCURVE",
"407 772 CURVE SMOOTH",
"321 772 OFFCURVE",
"265 717 OFFCURVE",
"250 646 CURVE SMOOTH",
"235 576 OFFCURVE",
"273 521 OFFCURVE",
"354 521 CURVE SMOOTH"
);
},
{
closed = 1;
nodes = (
"328 591 OFFCURVE",
"317 615 OFFCURVE",
"323 646 CURVE SMOOTH",
"330 677 OFFCURVE",
"357 702 OFFCURVE",
"392 702 CURVE SMOOTH",
"436 702 OFFCURVE",
"445 677 OFFCURVE",
"438 646 CURVE SMOOTH",
"432 615 OFFCURVE",
"406 591 OFFCURVE",
"369 591 CURVE SMOOTH"
);
},
{
closed = 1;
nodes = (
"483 795 LINE",
"617 951 LINE",
"485 951 LINE",
"359 795 LINE"
);
}
);
width = 599;
}
);
leftKerningGroup = a;
note = aringacute;
rightKerningGroup = a;
unicode = 01FB;
},
{
glyphname = atilde;
lastChange = "2015-11-25 10:44:31 +0000";
layers = (
{
layerId = "CD587521-C2B1-4DF5-9394-E26F9987D7DC";
name = "SemiBold Italic";
paths = (
{
closed = 1;
nodes = (
"249 -10 OFFCURVE",
"305 7 OFFCURVE",
"351 40 CURVE",
"352 0 LINE",
"491 0 LINE",
"591 474 LINE",
"430 474 LINE",
"425 447 LINE",
"395 471 OFFCURVE",
"366 484 OFFCURVE",
"312 484 CURVE SMOOTH",
"154 484 OFFCURVE",
"54 375 OFFCURVE",
"21 218 CURVE SMOOTH",
"-11 66 OFFCURVE",
"54 -10 OFFCURVE",
"185 -10 CURVE SMOOTH"
);
},
{
closed = 1;
nodes = (
"189 107 OFFCURVE",
"167 134 OFFCURVE",
"185 218 CURVE SMOOTH",
"207 320 OFFCURVE",
"253 366 OFFCURVE",
"329 366 CURVE SMOOTH",
"364 366 OFFCURVE",
"387 354 OFFCURVE",
"400 333 CURVE",
"360 143 LINE",
"330 119 OFFCURVE",
"298 107 OFFCURVE",
"262 107 CURVE SMOOTH"
);
},
{
closed = 1;
nodes = (
"485 532 OFFCURVE",
"521 546 OFFCURVE",
"538 564 CURVE",
"561 672 LINE",
"539 648 OFFCURVE",
"506 633 OFFCURVE",
"466 633 CURVE SMOOTH",
"407 633 OFFCURVE",
"368 674 OFFCURVE",
"304 674 CURVE SMOOTH",
"267 674 OFFCURVE",
"229 660 OFFCURVE",
"206 642 CURVE",
"183 535 LINE",
"212 559 OFFCURVE",
"246 573 OFFCURVE",
"285 573 CURVE SMOOTH",
"337 573 OFFCURVE",
"385 532 OFFCURVE",
"447 532 CURVE SMOOTH"
);
}
);
width = 599;
}
);
leftKerningGroup = a;
note = atilde;
rightKerningGroup = a;
unicode = 00E3;
},
{
glyphname = ae;
lastChange = "2015-11-25 10:44:32 +0000";
layers = (
{
layerId = "CD587521-C2B1-4DF5-9394-E26F9987D7DC";
name = "SemiBold Italic";
paths = (
{
closed = 1;
nodes = (
"275 -10 OFFCURVE",
"341 20 OFFCURVE",
"404 63 CURVE",
"436 16 OFFCURVE",
"505 -10 OFFCURVE",
"581 -10 CURVE SMOOTH",
"656 -10 OFFCURVE",
"722 0 OFFCURVE",
"772 21 CURVE",
"794 124 LINE",
"755 110 OFFCURVE",
"694 99 OFFCURVE",
"642 99 CURVE SMOOTH",
"541 99 OFFCURVE",
"499 122 OFFCURVE",
"498 185 CURVE",
"834 185 LINE",
"852 270 LINE SMOOTH",
"877 388 OFFCURVE",
"804 484 OFFCURVE",
"660 484 CURVE SMOOTH",
"592 484 OFFCURVE",
"525 468 OFFCURVE",
"479 438 CURVE",
"445 469 OFFCURVE",
"400 484 OFFCURVE",
"326 484 CURVE SMOOTH",
"251 484 OFFCURVE",
"177 470 OFFCURVE",
"128 452 CURVE",
"105 348 LINE",
"159 364 OFFCURVE",
"218 373 OFFCURVE",
"270 373 CURVE SMOOTH",
"362 373 OFFCURVE",
"383 353 OFFCURVE",
"370 306 CURVE SMOOTH",
"367 295 LINE",
"235 295 LINE SMOOTH",
"103 295 OFFCURVE",
"25 236 OFFCURVE",
"4 139 CURVE SMOOTH",
"-17 38 OFFCURVE",
"60 -10 OFFCURVE",
"153 -10 CURVE SMOOTH"
);
},
{
closed = 1;
nodes = (
"153 89 OFFCURVE",
"143 110 OFFCURVE",
"150 145 CURVE SMOOTH",
"159 184 OFFCURVE",
"185 202 OFFCURVE",
"233 202 CURVE SMOOTH",
"347 202 LINE",
"332 131 LINE",
"302 106 OFFCURVE",
"263 89 OFFCURVE",
"212 89 CURVE SMOOTH"
);
},
{
closed = 1;
nodes = (
"532 344 OFFCURVE",
"561 375 OFFCURVE",
"642 375 CURVE SMOOTH",
"709 375 OFFCURVE",
"728 345 OFFCURVE",
"718 299 CURVE SMOOTH",
"714 278 LINE",
"518 278 LINE"
);
}
);
width = 882;
}
);
leftKerningGroup = a;
note = ae;
rightKerningGroup = e;
unicode = 00E6;
},
{
glyphname = aeacute;
lastChange = "2015-11-25 10:44:31 +0000";
layers = (
{
layerId = "CD587521-C2B1-4DF5-9394-E26F9987D7DC";
name = "SemiBold Italic";
paths = (
{
closed = 1;
nodes = (
"275 -10 OFFCURVE",
"341 20 OFFCURVE",
"404 63 CURVE",
"436 16 OFFCURVE",
"505 -10 OFFCURVE",
"581 -10 CURVE SMOOTH",
"656 -10 OFFCURVE",
"722 0 OFFCURVE",
"772 21 CURVE",
"794 124 LINE",
"755 110 OFFCURVE",
"694 99 OFFCURVE",
"642 99 CURVE SMOOTH",
"541 99 OFFCURVE",
"499 122 OFFCURVE",
"498 185 CURVE",
"834 185 LINE",
"852 270 LINE SMOOTH",
"877 388 OFFCURVE",
"804 484 OFFCURVE",
"660 484 CURVE SMOOTH",
"592 484 OFFCURVE",
"525 468 OFFCURVE",
"479 438 CURVE",
"445 469 OFFCURVE",
"400 484 OFFCURVE",
"326 484 CURVE SMOOTH",
"251 484 OFFCURVE",
"177 470 OFFCURVE",
"128 452 CURVE",
"105 348 LINE",
"159 364 OFFCURVE",
"218 373 OFFCURVE",
"270 373 CURVE SMOOTH",
"362 373 OFFCURVE",
"383 353 OFFCURVE",
"370 306 CURVE SMOOTH",
"367 295 LINE",
"235 295 LINE SMOOTH",
"103 295 OFFCURVE",
"25 236 OFFCURVE",
"4 139 CURVE SMOOTH",
"-17 38 OFFCURVE",
"60 -10 OFFCURVE",
"153 -10 CURVE SMOOTH"
);
},
{
closed = 1;
nodes = (
"153 89 OFFCURVE",
"143 110 OFFCURVE",
"150 145 CURVE SMOOTH",
"159 184 OFFCURVE",
"185 202 OFFCURVE",
"233 202 CURVE SMOOTH",
"347 202 LINE",
"332 131 LINE",
"302 106 OFFCURVE",
"263 89 OFFCURVE",
"212 89 CURVE SMOOTH"
);
},
{
closed = 1;
nodes = (
"532 344 OFFCURVE",
"561 375 OFFCURVE",
"642 375 CURVE SMOOTH",
"709 375 OFFCURVE",
"728 345 OFFCURVE",
"718 299 CURVE SMOOTH",
"714 278 LINE",
"518 278 LINE"
);
},
{
closed = 1;
nodes = (
"550 522 LINE",
"684 718 LINE",
"552 718 LINE",
"426 522 LINE"
);
}
);
width = 882;
}
);
leftKerningGroup = a;
note = aeacute;
rightKerningGroup = e;
unicode = 01FD;
},
{
glyphname = b;
lastChange = "2015-11-25 10:44:32 +0000";
layers = (
{
layerId = "CD587521-C2B1-4DF5-9394-E26F9987D7DC";
name = "SemiBold Italic";
paths = (
{
closed = 1;
nodes = (
"438 -10 OFFCURVE",
"526 70 OFFCURVE",
"562 241 CURVE SMOOTH",
"596 405 OFFCURVE",
"519 484 OFFCURVE",
"389 484 CURVE SMOOTH",
"341 484 OFFCURVE",
"292 473 OFFCURVE",
"252 452 CURVE",
"299 674 LINE",
"138 674 LINE",
"-5 0 LINE",
"135 0 LINE",
"151 40 LINE",
"183 7 OFFCURVE",
"225 -10 OFFCURVE",
"289 -10 CURVE SMOOTH"
);
},
{
closed = 1;
nodes = (
"233 107 OFFCURVE",
"203 119 OFFCURVE",
"186 143 CURVE",
"227 336 LINE",
"253 356 OFFCURVE",
"287 366 OFFCURVE",
"323 366 CURVE SMOOTH",
"398 366 OFFCURVE",
"417 333 OFFCURVE",
"398 240 CURVE SMOOTH",
"378 149 OFFCURVE",
"340 107 OFFCURVE",
"268 107 CURVE SMOOTH"
);
}
);
width = 598;
}
);
note = b;
unicode = 0062;
},
{
glyphname = c;
lastChange = "2015-11-25 10:44:27 +0000";
layers = (
{
layerId = "CD587521-C2B1-4DF5-9394-E26F9987D7DC";
name = "SemiBold Italic";
paths = (
{
closed = 1;
nodes = (
"308 -10 OFFCURVE",
"365 -1 OFFCURVE",
"418 20 CURVE",
"443 139 LINE",
"399 119 OFFCURVE",
"351 109 OFFCURVE",
"304 109 CURVE SMOOTH",
"195 109 OFFCURVE",
"170 147 OFFCURVE",
"189 237 CURVE SMOOTH",
"209 333 OFFCURVE",
"266 365 OFFCURVE",
"359 365 CURVE SMOOTH",
"408 365 OFFCURVE",
"453 355 OFFCURVE",
"484 338 CURVE",
"509 452 LINE",
"465 475 OFFCURVE",
"419 484 OFFCURVE",
"350 484 CURVE SMOOTH",
"170 484 OFFCURVE",
"60 404 OFFCURVE",
"25 237 CURVE SMOOTH",
"-10 73 OFFCURVE",
"89 -10 OFFCURVE",
"242 -10 CURVE SMOOTH"
);
}
);
width = 501;
}
);
leftKerningGroup = c;
note = c;
rightKerningGroup = c;
unicode = 0063;
},
